<?xml version="1.0" encoding="UTF-8" standalone="no"?>
<!DOCTYPE svg PUBLIC "-//W3C//DTD SVG 1.1//EN"
 "http://www.w3.org/Graphics/SVG/1.1/DTD/svg11.dtd">
<!-- Generated by graphviz version 2.38.0 (20140413.2041)
 -->
<!-- Title: ActuatorDCMotorModel&lt; Scalar_ &gt; Pages: 1 -->
<svg width="130pt" height="117pt"
 viewBox="0.00 0.00 130.00 117.00" xmlns="http://www.w3.org/2000/svg" xmlns:xlink="http://www.w3.org/1999/xlink">
<g id="graph0" class="graph" transform="scale(1 1) rotate(0) translate(4 113)">
<title>ActuatorDCMotorModel&lt; Scalar_ &gt;</title>
<polygon fill="white" stroke="none" points="-4,4 -4,-113 126,-113 126,4 -4,4"/>
<!-- Node1 -->
<g id="node1" class="node"><title>Node1</title>
<polygon fill="#bfbfbf" stroke="black" points="1.5,-0.5 1.5,-30.5 120.5,-30.5 120.5,-0.5 1.5,-0.5"/>
<text text-anchor="start" x="9.5" y="-18.5" font-family="Helvetica,sans-Serif" font-size="10.00">ActuatorDCMotorModel</text>
<text text-anchor="middle" x="61" y="-7.5" font-family="Helvetica,sans-Serif" font-size="10.00">&lt; Scalar_ &gt;</text>
</g>
<!-- Node2 -->
<g id="node2" class="node"><title>Node2</title>
<g id="a_node2"><a xlink:href="structse3_1_1ActuatorModelBase.html" target="_top" xlink:title="ActuatorModelBase\&lt;\l ActuatorDCMotorModel\l\&lt; Scalar_ \&gt; \&gt;">
<polygon fill="white" stroke="black" points="0,-67.5 0,-108.5 122,-108.5 122,-67.5 0,-67.5"/>
<text text-anchor="start" x="8" y="-96.5" font-family="Helvetica,sans-Serif" font-size="10.00">ActuatorModelBase&lt;</text>
<text text-anchor="start" x="8" y="-85.5" font-family="Helvetica,sans-Serif" font-size="10.00"> ActuatorDCMotorModel</text>
<text text-anchor="middle" x="61" y="-74.5" font-family="Helvetica,sans-Serif" font-size="10.00">&lt; Scalar_ &gt; &gt;</text>
</a>
</g>
</g>
<!-- Node2&#45;&gt;Node1 -->
<g id="edge1" class="edge"><title>Node2&#45;&gt;Node1</title>
<path fill="none" stroke="#8b1a1a" d="M61,-57.08C61,-48.0061 61,-38.4498 61,-30.8916"/>
<polygon fill="#8b1a1a" stroke="#8b1a1a" points="57.5001,-57.3618 61,-67.3618 64.5001,-57.3619 57.5001,-57.3618"/>
</g>
</g>
</svg>
