<?xml version="1.0" encoding="UTF-8" standalone="no"?>
<!DOCTYPE svg PUBLIC "-//W3C//DTD SVG 1.1//EN"
 "http://www.w3.org/Graphics/SVG/1.1/DTD/svg11.dtd">
<!-- Generated by graphviz version 2.38.0 (20140413.2041)
 -->
<!-- Title: ActuatorDCNonLinearMotorModel&lt; Scalar_ &gt; Pages: 1 -->
<svg width="286pt" height="206pt"
 viewBox="0.00 0.00 286.00 206.00" xmlns="http://www.w3.org/2000/svg" xmlns:xlink="http://www.w3.org/1999/xlink">
<g id="graph0" class="graph" transform="scale(1 1) rotate(0) translate(4 202)">
<title>ActuatorDCNonLinearMotorModel&lt; Scalar_ &gt;</title>
<polygon fill="white" stroke="none" points="-4,4 -4,-202 282,-202 282,4 -4,4"/>
<!-- Node1 -->
<g id="node1" class="node"><title>Node1</title>
<polygon fill="#bfbfbf" stroke="black" points="95.5,-0.5 95.5,-30.5 232.5,-30.5 232.5,-0.5 95.5,-0.5"/>
<text text-anchor="start" x="103.5" y="-18.5" font-family="Helvetica,sans-Serif" font-size="10.00">ActuatorDCNonLinearMotor</text>
<text text-anchor="middle" x="164" y="-7.5" font-family="Helvetica,sans-Serif" font-size="10.00">Model&lt; Scalar_ &gt;</text>
</g>
<!-- Node2 -->
<g id="node2" class="node"><title>Node2</title>
<g id="a_node2"><a xlink:href="structse3_1_1ActuatorModelBase.html" target="_top" xlink:title="ActuatorModelBase\&lt;\l ActuatorDCNonLinearMotorModel\l\&lt; Scalar_ \&gt; \&gt;">
<polygon fill="white" stroke="black" points="0.5,-78.5 0.5,-119.5 167.5,-119.5 167.5,-78.5 0.5,-78.5"/>
<text text-anchor="start" x="8.5" y="-107.5" font-family="Helvetica,sans-Serif" font-size="10.00">ActuatorModelBase&lt;</text>
<text text-anchor="start" x="8.5" y="-96.5" font-family="Helvetica,sans-Serif" font-size="10.00"> ActuatorDCNonLinearMotorModel</text>
<text text-anchor="middle" x="84" y="-85.5" font-family="Helvetica,sans-Serif" font-size="10.00">&lt; Scalar_ &gt; &gt;</text>
</a>
</g>
</g>
<!-- Node2&#45;&gt;Node1 -->
<g id="edge1" class="edge"><title>Node2&#45;&gt;Node1</title>
<path fill="none" stroke="#8b1a1a" d="M110.447,-71.0575C123.686,-57.5696 139.172,-41.7931 150.076,-30.6846"/>
<polygon fill="#8b1a1a" stroke="#8b1a1a" points="107.873,-68.6829 103.366,-78.2711 112.869,-73.5865 107.873,-68.6829"/>
</g>
<!-- Node3 -->
<g id="node3" class="node"><title>Node3</title>
<g id="a_node3"><a xlink:href="structse3_1_1amb__traits_3_01ActuatorDCNonLinearMotorModel_3_01Scalar___01_4_01_4.html" target="_top" xlink:title="amb_traits\&lt; ActuatorDCNon\lLinearMotorModel\&lt; Scalar_ \&gt; \&gt;">
<polygon fill="white" stroke="black" points="0,-167.5 0,-197.5 154,-197.5 154,-167.5 0,-167.5"/>
<text text-anchor="start" x="8" y="-185.5" font-family="Helvetica,sans-Serif" font-size="10.00">amb_traits&lt; ActuatorDCNon</text>
<text text-anchor="middle" x="77" y="-174.5" font-family="Helvetica,sans-Serif" font-size="10.00">LinearMotorModel&lt; Scalar_ &gt; &gt;</text>
</a>
</g>
</g>
<!-- Node3&#45;&gt;Node2 -->
<g id="edge2" class="edge"><title>Node3&#45;&gt;Node2</title>
<path fill="none" stroke="#9a32cd" stroke-dasharray="5,2" d="M79.0986,-157.066C80.1297,-145.061 81.3551,-130.794 82.3228,-119.528"/>
<polygon fill="#9a32cd" stroke="#9a32cd" points="75.588,-157.041 78.2193,-167.304 82.5623,-157.64 75.588,-157.041"/>
<text text-anchor="middle" x="131" y="-141" font-family="Helvetica,sans-Serif" font-size="10.00"> ActuatorModelDerived</text>
</g>
<!-- Node4 -->
<g id="node4" class="node"><title>Node4</title>
<g id="a_node4"><a xlink:title="STL class. ">
<polygon fill="white" stroke="#bfbfbf" points="198.5,-89.5 198.5,-108.5 239.5,-108.5 239.5,-89.5 198.5,-89.5"/>
<text text-anchor="middle" x="219" y="-96.5" font-family="Helvetica,sans-Serif" font-size="10.00">string</text>
</a>
</g>
</g>
<!-- Node4&#45;&gt;Node1 -->
<g id="edge3" class="edge"><title>Node4&#45;&gt;Node1</title>
<path fill="none" stroke="#9a32cd" stroke-dasharray="5,2" d="M207.491,-80.9464C197.415,-66.0148 182.948,-44.5781 173.514,-30.5974"/>
<polygon fill="#9a32cd" stroke="#9a32cd" points="204.619,-82.9468 213.114,-89.2781 210.421,-79.0311 204.619,-82.9468"/>
<text text-anchor="middle" x="210.5" y="-52" font-family="Helvetica,sans-Serif" font-size="10.00"> name_</text>
</g>
<!-- Node5 -->
<g id="node5" class="node"><title>Node5</title>
<g id="a_node5"><a xlink:title="STL class. ">
<polygon fill="white" stroke="#bfbfbf" points="172,-173 172,-192 278,-192 278,-173 172,-173"/>
<text text-anchor="middle" x="225" y="-180" font-family="Helvetica,sans-Serif" font-size="10.00">basic_string&lt; char &gt;</text>
</a>
</g>
</g>
<!-- Node5&#45;&gt;Node4 -->
<g id="edge4" class="edge"><title>Node5&#45;&gt;Node4</title>
<path fill="none" stroke="midnightblue" d="M223.592,-162.376C222.342,-145.398 220.573,-121.367 219.637,-108.659"/>
<polygon fill="midnightblue" stroke="midnightblue" points="220.133,-163.062 224.358,-172.778 227.114,-162.548 220.133,-163.062"/>
</g>
</g>
</svg>
