<?xml version="1.0" encoding="UTF-8" standalone="no"?>
<!DOCTYPE svg PUBLIC "-//W3C//DTD SVG 1.1//EN"
 "http://www.w3.org/Graphics/SVG/1.1/DTD/svg11.dtd">
<!-- Generated by graphviz version 2.38.0 (20140413.2041)
 -->
<!-- Title: ActuatorDCMotorModel&lt; Scalar_ &gt; Pages: 1 -->
<svg width="280pt" height="206pt"
 viewBox="0.00 0.00 280.00 206.00" xmlns="http://www.w3.org/2000/svg" xmlns:xlink="http://www.w3.org/1999/xlink">
<g id="graph0" class="graph" transform="scale(1 1) rotate(0) translate(4 202)">
<title>ActuatorDCMotorModel&lt; Scalar_ &gt;</title>
<polygon fill="white" stroke="none" points="-4,4 -4,-202 276,-202 276,4 -4,4"/>
<!-- Node1 -->
<g id="node1" class="node"><title>Node1</title>
<polygon fill="#bfbfbf" stroke="black" points="36.5,-0.5 36.5,-30.5 155.5,-30.5 155.5,-0.5 36.5,-0.5"/>
<text text-anchor="start" x="44.5" y="-18.5" font-family="Helvetica,sans-Serif" font-size="10.00">ActuatorDCMotorModel</text>
<text text-anchor="middle" x="96" y="-7.5" font-family="Helvetica,sans-Serif" font-size="10.00">&lt; Scalar_ &gt;</text>
</g>
<!-- Node2 -->
<g id="node2" class="node"><title>Node2</title>
<g id="a_node2"><a xlink:href="structse3_1_1ActuatorModelBase.html" target="_top" xlink:title="ActuatorModelBase\&lt;\l ActuatorDCMotorModel\l\&lt; Scalar_ \&gt; \&gt;">
<polygon fill="white" stroke="black" points="35,-78.5 35,-119.5 157,-119.5 157,-78.5 35,-78.5"/>
<text text-anchor="start" x="43" y="-107.5" font-family="Helvetica,sans-Serif" font-size="10.00">ActuatorModelBase&lt;</text>
<text text-anchor="start" x="43" y="-96.5" font-family="Helvetica,sans-Serif" font-size="10.00"> ActuatorDCMotorModel</text>
<text text-anchor="middle" x="96" y="-85.5" font-family="Helvetica,sans-Serif" font-size="10.00">&lt; Scalar_ &gt; &gt;</text>
</a>
</g>
</g>
<!-- Node2&#45;&gt;Node1 -->
<g id="edge1" class="edge"><title>Node2&#45;&gt;Node1</title>
<path fill="none" stroke="#8b1a1a" d="M89.4643,-68.0254C88.9454,-55.258 89.3689,-40.9702 90.7347,-30.6846"/>
<polygon fill="#8b1a1a" stroke="#8b1a1a" points="85.9885,-68.5158 90.1218,-78.2711 92.9741,-68.0675 85.9885,-68.5158"/>
</g>
<!-- Node2&#45;&gt;Node1 -->
<g id="edge3" class="edge"><title>Node2&#45;&gt;Node1</title>
<path fill="none" stroke="#8b1a1a" d="M102.536,-68.0254C103.055,-55.258 102.631,-40.9702 101.265,-30.6846"/>
<polygon fill="#8b1a1a" stroke="#8b1a1a" points="99.0259,-68.0675 101.878,-78.2711 106.012,-68.5158 99.0259,-68.0675"/>
</g>
<!-- Node3 -->
<g id="node3" class="node"><title>Node3</title>
<g id="a_node3"><a xlink:href="structse3_1_1amb__traits_3_01ActuatorDCMotorModel_3_01Scalar___01_4_01_4.html" target="_top" xlink:title="amb_traits\&lt; ActuatorDCMotor\lModel\&lt; Scalar_ \&gt; \&gt;">
<polygon fill="white" stroke="black" points="0,-167.5 0,-197.5 148,-197.5 148,-167.5 0,-167.5"/>
<text text-anchor="start" x="8" y="-185.5" font-family="Helvetica,sans-Serif" font-size="10.00">amb_traits&lt; ActuatorDCMotor</text>
<text text-anchor="middle" x="74" y="-174.5" font-family="Helvetica,sans-Serif" font-size="10.00">Model&lt; Scalar_ &gt; &gt;</text>
</a>
</g>
</g>
<!-- Node3&#45;&gt;Node2 -->
<g id="edge2" class="edge"><title>Node3&#45;&gt;Node2</title>
<path fill="none" stroke="#9a32cd" stroke-dasharray="5,2" d="M80.4966,-157.433C83.7575,-145.353 87.6566,-130.909 90.7287,-119.528"/>
<polygon fill="#9a32cd" stroke="#9a32cd" points="77.0592,-156.737 77.8321,-167.304 83.8173,-158.562 77.0592,-156.737"/>
<text text-anchor="middle" x="136" y="-141" font-family="Helvetica,sans-Serif" font-size="10.00"> ActuatorModelDerived</text>
</g>
<!-- Node4 -->
<g id="node4" class="node"><title>Node4</title>
<g id="a_node4"><a xlink:title="STL class. ">
<polygon fill="white" stroke="#bfbfbf" points="186.5,-89.5 186.5,-108.5 227.5,-108.5 227.5,-89.5 186.5,-89.5"/>
<text text-anchor="middle" x="207" y="-96.5" font-family="Helvetica,sans-Serif" font-size="10.00">string</text>
</a>
</g>
</g>
<!-- Node4&#45;&gt;Node1 -->
<g id="edge4" class="edge"><title>Node4&#45;&gt;Node1</title>
<path fill="none" stroke="#9a32cd" stroke-dasharray="5,2" d="M186.865,-83.2162C166.494,-68.2594 135.229,-45.3035 115.2,-30.5974"/>
<polygon fill="#9a32cd" stroke="#9a32cd" points="184.989,-86.1809 195.121,-89.2781 189.132,-80.5385 184.989,-86.1809"/>
<text text-anchor="middle" x="171.5" y="-52" font-family="Helvetica,sans-Serif" font-size="10.00"> name_</text>
</g>
<!-- Node5 -->
<g id="node5" class="node"><title>Node5</title>
<g id="a_node5"><a xlink:title="STL class. ">
<polygon fill="white" stroke="#bfbfbf" points="166,-173 166,-192 272,-192 272,-173 166,-173"/>
<text text-anchor="middle" x="219" y="-180" font-family="Helvetica,sans-Serif" font-size="10.00">basic_string&lt; char &gt;</text>
</a>
</g>
</g>
<!-- Node5&#45;&gt;Node4 -->
<g id="edge5" class="edge"><title>Node5&#45;&gt;Node4</title>
<path fill="none" stroke="midnightblue" d="M216.256,-162.864C213.753,-145.861 210.164,-121.49 208.275,-108.659"/>
<polygon fill="midnightblue" stroke="midnightblue" points="212.796,-163.395 217.716,-172.778 219.722,-162.375 212.796,-163.395"/>
</g>
</g>
</svg>
