<?xml version="1.0" encoding="UTF-8" standalone="no"?>
<!DOCTYPE svg PUBLIC "-//W3C//DTD SVG 1.1//EN"
 "http://www.w3.org/Graphics/SVG/1.1/DTD/svg11.dtd">
<!-- Generated by graphviz version 2.38.0 (20140413.2041)
 -->
<!-- Title: InertiaTpl&lt; _Scalar, _Options &gt; Pages: 1 -->
<svg width="370pt" height="116pt"
 viewBox="0.00 0.00 370.00 115.50" xmlns="http://www.w3.org/2000/svg" xmlns:xlink="http://www.w3.org/1999/xlink">
<g id="graph0" class="graph" transform="scale(1 1) rotate(0) translate(4 111.5)">
<title>InertiaTpl&lt; _Scalar, _Options &gt;</title>
<polygon fill="white" stroke="none" points="-4,4 -4,-111.5 366,-111.5 366,4 -4,4"/>
<!-- Node1 -->
<g id="node1" class="node"><title>Node1</title>
<polygon fill="#bfbfbf" stroke="black" points="260,-33 260,-63 362,-63 362,-33 260,-33"/>
<text text-anchor="start" x="268" y="-51" font-family="Helvetica,sans-Serif" font-size="10.00">InertiaTpl&lt; _Scalar,</text>
<text text-anchor="middle" x="311" y="-40" font-family="Helvetica,sans-Serif" font-size="10.00"> _Options &gt;</text>
</g>
<!-- Node2 -->
<g id="node2" class="node"><title>Node2</title>
<g id="a_node2"><a xlink:href="classse3_1_1InertiaBase.html" target="_top" xlink:title="InertiaBase\&lt; InertiaTpl\l\&lt; _Scalar, _Options \&gt; \&gt;">
<polygon fill="white" stroke="black" points="9,-77 9,-107 131,-107 131,-77 9,-77"/>
<text text-anchor="start" x="17" y="-95" font-family="Helvetica,sans-Serif" font-size="10.00">InertiaBase&lt; InertiaTpl</text>
<text text-anchor="middle" x="70" y="-84" font-family="Helvetica,sans-Serif" font-size="10.00">&lt; _Scalar, _Options &gt; &gt;</text>
</a>
</g>
</g>
<!-- Node2&#45;&gt;Node1 -->
<g id="edge1" class="edge"><title>Node2&#45;&gt;Node1</title>
<path fill="none" stroke="midnightblue" d="M141.521,-80.84C172.421,-75.7438 209.074,-69.4195 242,-63 247.814,-61.8664 253.894,-60.6172 259.925,-59.3382"/>
<polygon fill="midnightblue" stroke="midnightblue" points="140.578,-77.4478 131.276,-82.5196 141.71,-84.3556 140.578,-77.4478"/>
</g>
<!-- Node3 -->
<g id="node3" class="node"><title>Node3</title>
<g id="a_node3"><a xlink:href="classse3_1_1Symmetric3Tpl.html" target="_top" xlink:title="Symmetric3Tpl\&lt; double, 0 \&gt;">
<polygon fill="white" stroke="black" points="0,-38.5 0,-57.5 140,-57.5 140,-38.5 0,-38.5"/>
<text text-anchor="middle" x="70" y="-45.5" font-family="Helvetica,sans-Serif" font-size="10.00">Symmetric3Tpl&lt; double, 0 &gt;</text>
</a>
</g>
</g>
<!-- Node3&#45;&gt;Node1 -->
<g id="edge2" class="edge"><title>Node3&#45;&gt;Node1</title>
<path fill="none" stroke="#9a32cd" stroke-dasharray="5,2" d="M150.147,-48C186.236,-48 227.889,-48 259.627,-48"/>
<polygon fill="#9a32cd" stroke="#9a32cd" points="150.129,-44.5001 140.129,-48 150.129,-51.5001 150.129,-44.5001"/>
<text text-anchor="middle" x="200" y="-51" font-family="Helvetica,sans-Serif" font-size="10.00"> I</text>
</g>
<!-- Node4 -->
<g id="node4" class="node"><title>Node4</title>
<g id="a_node4"><a xlink:href="structse3_1_1Symmetric3Tpl_1_1AlphaSkewSquare.html" target="_top" xlink:title="AlphaSkewSquare">
<polygon fill="white" stroke="black" points="21.5,-0.5 21.5,-19.5 118.5,-19.5 118.5,-0.5 21.5,-0.5"/>
<text text-anchor="middle" x="70" y="-7.5" font-family="Helvetica,sans-Serif" font-size="10.00">AlphaSkewSquare</text>
</a>
</g>
</g>
<!-- Node4&#45;&gt;Node1 -->
<g id="edge3" class="edge"><title>Node4&#45;&gt;Node1</title>
<path fill="none" stroke="#9a32cd" stroke-dasharray="5,2" d="M128.71,-16.5461C161.945,-20.6194 204.444,-26.3441 242,-33 247.833,-34.0337 253.924,-35.2213 259.961,-36.4659"/>
<polygon fill="#9a32cd" stroke="#9a32cd" points="129.057,-13.0626 118.709,-15.3358 128.216,-20.0119 129.057,-13.0626"/>
<text text-anchor="middle" x="200" y="-36" font-family="Helvetica,sans-Serif" font-size="10.00"> AlphaSkewSquare</text>
</g>
</g>
</svg>
