<?xml version="1.0" encoding="UTF-8" standalone="no"?>
<!DOCTYPE svg PUBLIC "-//W3C//DTD SVG 1.1//EN"
 "http://www.w3.org/Graphics/SVG/1.1/DTD/svg11.dtd">
<!-- Generated by graphviz version 2.38.0 (20140413.2041)
 -->
<!-- Title: PneumaticTwoChambersModel&lt; Scalar_ &gt; Pages: 1 -->
<svg width="280pt" height="206pt"
 viewBox="0.00 0.00 280.00 206.00" xmlns="http://www.w3.org/2000/svg" xmlns:xlink="http://www.w3.org/1999/xlink">
<g id="graph0" class="graph" transform="scale(1 1) rotate(0) translate(4 202)">
<title>PneumaticTwoChambersModel&lt; Scalar_ &gt;</title>
<polygon fill="white" stroke="none" points="-4,4 -4,-202 276,-202 276,4 -4,4"/>
<!-- Node1 -->
<g id="node1" class="node"><title>Node1</title>
<polygon fill="#bfbfbf" stroke="black" points="81.5,-0.5 81.5,-30.5 234.5,-30.5 234.5,-0.5 81.5,-0.5"/>
<text text-anchor="start" x="89.5" y="-18.5" font-family="Helvetica,sans-Serif" font-size="10.00">PneumaticTwoChambersModel</text>
<text text-anchor="middle" x="158" y="-7.5" font-family="Helvetica,sans-Serif" font-size="10.00">&lt; Scalar_ &gt;</text>
</g>
<!-- Node2 -->
<g id="node2" class="node"><title>Node2</title>
<g id="a_node2"><a xlink:href="structse3_1_1ActuatorModelBase.html" target="_top" xlink:title="ActuatorModelBase\&lt;\l PneumaticTwoChambersModel\l\&lt; Scalar_ \&gt; \&gt;">
<polygon fill="white" stroke="black" points="3,-78.5 3,-119.5 159,-119.5 159,-78.5 3,-78.5"/>
<text text-anchor="start" x="11" y="-107.5" font-family="Helvetica,sans-Serif" font-size="10.00">ActuatorModelBase&lt;</text>
<text text-anchor="start" x="11" y="-96.5" font-family="Helvetica,sans-Serif" font-size="10.00"> PneumaticTwoChambersModel</text>
<text text-anchor="middle" x="81" y="-85.5" font-family="Helvetica,sans-Serif" font-size="10.00">&lt; Scalar_ &gt; &gt;</text>
</a>
</g>
</g>
<!-- Node2&#45;&gt;Node1 -->
<g id="edge1" class="edge"><title>Node2&#45;&gt;Node1</title>
<path fill="none" stroke="#8b1a1a" d="M106.809,-70.6823C119.474,-57.2779 134.201,-41.6902 144.599,-30.6846"/>
<polygon fill="#8b1a1a" stroke="#8b1a1a" points="103.963,-68.5986 99.6396,-78.2711 109.051,-73.4059 103.963,-68.5986"/>
</g>
<!-- Node3 -->
<g id="node3" class="node"><title>Node3</title>
<g id="a_node3"><a xlink:href="structse3_1_1amb__traits.html" target="_top" xlink:title="amb_traits\&lt; PneumaticTwo\lChambersModel\&lt; Scalar_ \&gt; \&gt;">
<polygon fill="white" stroke="black" points="0,-167.5 0,-197.5 148,-197.5 148,-167.5 0,-167.5"/>
<text text-anchor="start" x="8" y="-185.5" font-family="Helvetica,sans-Serif" font-size="10.00">amb_traits&lt; PneumaticTwo</text>
<text text-anchor="middle" x="74" y="-174.5" font-family="Helvetica,sans-Serif" font-size="10.00">ChambersModel&lt; Scalar_ &gt; &gt;</text>
</a>
</g>
</g>
<!-- Node3&#45;&gt;Node2 -->
<g id="edge2" class="edge"><title>Node3&#45;&gt;Node2</title>
<path fill="none" stroke="#9a32cd" stroke-dasharray="5,2" d="M76.0986,-157.066C77.1297,-145.061 78.3551,-130.794 79.3228,-119.528"/>
<polygon fill="#9a32cd" stroke="#9a32cd" points="72.588,-157.041 75.2193,-167.304 79.5623,-157.64 72.588,-157.041"/>
<text text-anchor="middle" x="128" y="-141" font-family="Helvetica,sans-Serif" font-size="10.00"> ActuatorModelDerived</text>
</g>
<!-- Node4 -->
<g id="node4" class="node"><title>Node4</title>
<g id="a_node4"><a xlink:title="STL class. ">
<polygon fill="white" stroke="#bfbfbf" points="191.5,-89.5 191.5,-108.5 232.5,-108.5 232.5,-89.5 191.5,-89.5"/>
<text text-anchor="middle" x="212" y="-96.5" font-family="Helvetica,sans-Serif" font-size="10.00">string</text>
</a>
</g>
</g>
<!-- Node4&#45;&gt;Node1 -->
<g id="edge3" class="edge"><title>Node4&#45;&gt;Node1</title>
<path fill="none" stroke="#9a32cd" stroke-dasharray="5,2" d="M200.42,-80.5221C190.54,-65.611 176.517,-44.4462 167.341,-30.5974"/>
<polygon fill="#9a32cd" stroke="#9a32cd" points="197.78,-82.875 206.221,-89.2781 203.615,-79.0087 197.78,-82.875"/>
<text text-anchor="middle" x="203.5" y="-52" font-family="Helvetica,sans-Serif" font-size="10.00"> name_</text>
</g>
<!-- Node5 -->
<g id="node5" class="node"><title>Node5</title>
<g id="a_node5"><a xlink:title="STL class. ">
<polygon fill="white" stroke="#bfbfbf" points="166,-173 166,-192 272,-192 272,-173 166,-173"/>
<text text-anchor="middle" x="219" y="-180" font-family="Helvetica,sans-Serif" font-size="10.00">basic_string&lt; char &gt;</text>
</a>
</g>
</g>
<!-- Node5&#45;&gt;Node4 -->
<g id="edge4" class="edge"><title>Node5&#45;&gt;Node4</title>
<path fill="none" stroke="midnightblue" d="M217.357,-162.376C215.899,-145.398 213.835,-121.367 212.744,-108.659"/>
<polygon fill="midnightblue" stroke="midnightblue" points="213.908,-163.114 218.251,-172.778 220.882,-162.515 213.908,-163.114"/>
</g>
</g>
</svg>
