<?xml version="1.0" encoding="UTF-8" standalone="no"?>
<!DOCTYPE svg PUBLIC "-//W3C//DTD SVG 1.1//EN"
 "http://www.w3.org/Graphics/SVG/1.1/DTD/svg11.dtd">
<!-- Generated by graphviz version 2.38.0 (20140413.2041)
 -->
<!-- Title: ActuatorDCTempNonLinearMotorModel&lt; Scalar_ &gt; Pages: 1 -->
<svg width="304pt" height="206pt"
 viewBox="0.00 0.00 304.00 206.00" xmlns="http://www.w3.org/2000/svg" xmlns:xlink="http://www.w3.org/1999/xlink">
<g id="graph0" class="graph" transform="scale(1 1) rotate(0) translate(4 202)">
<title>ActuatorDCTempNonLinearMotorModel&lt; Scalar_ &gt;</title>
<polygon fill="white" stroke="none" points="-4,4 -4,-202 300,-202 300,4 -4,4"/>
<!-- Node1 -->
<g id="node1" class="node"><title>Node1</title>
<polygon fill="#bfbfbf" stroke="black" points="96,-0.5 96,-30.5 258,-30.5 258,-0.5 96,-0.5"/>
<text text-anchor="start" x="104" y="-18.5" font-family="Helvetica,sans-Serif" font-size="10.00">ActuatorDCTempNonLinearMotor</text>
<text text-anchor="middle" x="177" y="-7.5" font-family="Helvetica,sans-Serif" font-size="10.00">Model&lt; Scalar_ &gt;</text>
</g>
<!-- Node2 -->
<g id="node2" class="node"><title>Node2</title>
<g id="a_node2"><a xlink:href="structse3_1_1ActuatorModelBase.html" target="_top" xlink:title="ActuatorModelBase\&lt;\l ActuatorDCTempNonLinearMotor\lModel\&lt; Scalar_ \&gt; \&gt;">
<polygon fill="white" stroke="black" points="12.5,-78.5 12.5,-119.5 177.5,-119.5 177.5,-78.5 12.5,-78.5"/>
<text text-anchor="start" x="20.5" y="-107.5" font-family="Helvetica,sans-Serif" font-size="10.00">ActuatorModelBase&lt;</text>
<text text-anchor="start" x="20.5" y="-96.5" font-family="Helvetica,sans-Serif" font-size="10.00"> ActuatorDCTempNonLinearMotor</text>
<text text-anchor="middle" x="95" y="-85.5" font-family="Helvetica,sans-Serif" font-size="10.00">Model&lt; Scalar_ &gt; &gt;</text>
</a>
</g>
</g>
<!-- Node2&#45;&gt;Node1 -->
<g id="edge1" class="edge"><title>Node2&#45;&gt;Node1</title>
<path fill="none" stroke="#8b1a1a" d="M122.108,-71.0575C135.678,-57.5696 151.552,-41.7931 162.728,-30.6846"/>
<polygon fill="#8b1a1a" stroke="#8b1a1a" points="119.475,-68.7392 114.85,-78.2711 124.41,-73.7041 119.475,-68.7392"/>
</g>
<!-- Node3 -->
<g id="node3" class="node"><title>Node3</title>
<g id="a_node3"><a xlink:href="structse3_1_1amb__traits_3_01ActuatorDCTempNonLinearMotorModel_3_01Scalar___01_4_01_4.html" target="_top" xlink:title="amb_traits\&lt; ActuatorDCTemp\lNonLinearMotorModel\&lt; Scalar_ \&gt; \&gt;">
<polygon fill="white" stroke="black" points="0,-167.5 0,-197.5 172,-197.5 172,-167.5 0,-167.5"/>
<text text-anchor="start" x="8" y="-185.5" font-family="Helvetica,sans-Serif" font-size="10.00">amb_traits&lt; ActuatorDCTemp</text>
<text text-anchor="middle" x="86" y="-174.5" font-family="Helvetica,sans-Serif" font-size="10.00">NonLinearMotorModel&lt; Scalar_ &gt; &gt;</text>
</a>
</g>
</g>
<!-- Node3&#45;&gt;Node2 -->
<g id="edge2" class="edge"><title>Node3&#45;&gt;Node2</title>
<path fill="none" stroke="#9a32cd" stroke-dasharray="5,2" d="M88.6982,-157.066C90.0239,-145.061 91.5995,-130.794 92.8436,-119.528"/>
<polygon fill="#9a32cd" stroke="#9a32cd" points="85.1865,-156.98 87.5677,-167.304 92.1442,-157.748 85.1865,-156.98"/>
<text text-anchor="middle" x="141" y="-141" font-family="Helvetica,sans-Serif" font-size="10.00"> ActuatorModelDerived</text>
</g>
<!-- Node4 -->
<g id="node4" class="node"><title>Node4</title>
<g id="a_node4"><a xlink:title="STL class. ">
<polygon fill="white" stroke="#bfbfbf" points="213.5,-89.5 213.5,-108.5 254.5,-108.5 254.5,-89.5 213.5,-89.5"/>
<text text-anchor="middle" x="234" y="-96.5" font-family="Helvetica,sans-Serif" font-size="10.00">string</text>
</a>
</g>
</g>
<!-- Node4&#45;&gt;Node1 -->
<g id="edge3" class="edge"><title>Node4&#45;&gt;Node1</title>
<path fill="none" stroke="#9a32cd" stroke-dasharray="5,2" d="M222.073,-80.9464C211.63,-66.0148 196.637,-44.5781 186.86,-30.5974"/>
<polygon fill="#9a32cd" stroke="#9a32cd" points="219.301,-83.0893 227.9,-89.2781 225.037,-79.0774 219.301,-83.0893"/>
<text text-anchor="middle" x="223.5" y="-52" font-family="Helvetica,sans-Serif" font-size="10.00"> name_</text>
</g>
<!-- Node5 -->
<g id="node5" class="node"><title>Node5</title>
<g id="a_node5"><a xlink:title="STL class. ">
<polygon fill="white" stroke="#bfbfbf" points="190,-173 190,-192 296,-192 296,-173 190,-173"/>
<text text-anchor="middle" x="243" y="-180" font-family="Helvetica,sans-Serif" font-size="10.00">basic_string&lt; char &gt;</text>
</a>
</g>
</g>
<!-- Node5&#45;&gt;Node4 -->
<g id="edge4" class="edge"><title>Node5&#45;&gt;Node4</title>
<path fill="none" stroke="midnightblue" d="M240.888,-162.376C239.013,-145.398 236.36,-121.367 234.956,-108.659"/>
<polygon fill="midnightblue" stroke="midnightblue" points="237.46,-163.223 242.037,-172.778 244.418,-162.454 237.46,-163.223"/>
</g>
</g>
</svg>
