<?xml version="1.0" encoding="UTF-8" standalone="no"?>
<!DOCTYPE svg PUBLIC "-//W3C//DTD SVG 1.1//EN"
 "http://www.w3.org/Graphics/SVG/1.1/DTD/svg11.dtd">
<!-- Generated by graphviz version 2.38.0 (20140413.2041)
 -->
<!-- Title: ActuatorDCMotorModel&lt; Scalar_ &gt; Pages: 1 -->
<svg width="280pt" height="206pt"
 viewBox="0.00 0.00 280.00 206.00" xmlns="http://www.w3.org/2000/svg" xmlns:xlink="http://www.w3.org/1999/xlink">
<g id="graph0" class="graph" transform="scale(1 1) rotate(0) translate(4 202)">
<title>ActuatorDCMotorModel&lt; Scalar_ &gt;</title>
<polygon fill="white" stroke="none" points="-4,4 -4,-202 276,-202 276,4 -4,4"/>
<!-- Node1 -->
<g id="node1" class="node"><title>Node1</title>
<polygon fill="#bfbfbf" stroke="black" points="101.5,-0.5 101.5,-30.5 220.5,-30.5 220.5,-0.5 101.5,-0.5"/>
<text text-anchor="start" x="109.5" y="-18.5" font-family="Helvetica,sans-Serif" font-size="10.00">ActuatorDCMotorModel</text>
<text text-anchor="middle" x="161" y="-7.5" font-family="Helvetica,sans-Serif" font-size="10.00">&lt; Scalar_ &gt;</text>
</g>
<!-- Node2 -->
<g id="node2" class="node"><title>Node2</title>
<g id="a_node2"><a xlink:href="structse3_1_1ActuatorModelBase.html" target="_top" xlink:title="ActuatorModelBase\&lt;\l ActuatorDCMotorModel\l\&lt; Scalar_ \&gt; \&gt;">
<polygon fill="white" stroke="black" points="35,-78.5 35,-119.5 157,-119.5 157,-78.5 35,-78.5"/>
<text text-anchor="start" x="43" y="-107.5" font-family="Helvetica,sans-Serif" font-size="10.00">ActuatorModelBase&lt;</text>
<text text-anchor="start" x="43" y="-96.5" font-family="Helvetica,sans-Serif" font-size="10.00"> ActuatorDCMotorModel</text>
<text text-anchor="middle" x="96" y="-85.5" font-family="Helvetica,sans-Serif" font-size="10.00">&lt; Scalar_ &gt; &gt;</text>
</a>
</g>
</g>
<!-- Node2&#45;&gt;Node1 -->
<g id="edge1" class="edge"><title>Node2&#45;&gt;Node1</title>
<path fill="none" stroke="#8b1a1a" d="M118.087,-70.3059C128.71,-56.9869 140.992,-41.5873 149.687,-30.6846"/>
<polygon fill="#8b1a1a" stroke="#8b1a1a" points="115.234,-68.2707 111.735,-78.2711 120.706,-72.6354 115.234,-68.2707"/>
</g>
<!-- Node3 -->
<g id="node3" class="node"><title>Node3</title>
<g id="a_node3"><a xlink:href="structse3_1_1amb__traits_3_01ActuatorDCMotorModel_3_01Scalar___01_4_01_4.html" target="_top" xlink:title="amb_traits\&lt; ActuatorDCMotor\lModel\&lt; Scalar_ \&gt; \&gt;">
<polygon fill="white" stroke="black" points="0,-167.5 0,-197.5 148,-197.5 148,-167.5 0,-167.5"/>
<text text-anchor="start" x="8" y="-185.5" font-family="Helvetica,sans-Serif" font-size="10.00">amb_traits&lt; ActuatorDCMotor</text>
<text text-anchor="middle" x="74" y="-174.5" font-family="Helvetica,sans-Serif" font-size="10.00">Model&lt; Scalar_ &gt; &gt;</text>
</a>
</g>
</g>
<!-- Node3&#45;&gt;Node2 -->
<g id="edge2" class="edge"><title>Node3&#45;&gt;Node2</title>
<path fill="none" stroke="#9a32cd" stroke-dasharray="5,2" d="M80.4966,-157.433C83.7575,-145.353 87.6566,-130.909 90.7287,-119.528"/>
<polygon fill="#9a32cd" stroke="#9a32cd" points="77.0592,-156.737 77.8321,-167.304 83.8173,-158.562 77.0592,-156.737"/>
<text text-anchor="middle" x="136" y="-141" font-family="Helvetica,sans-Serif" font-size="10.00"> ActuatorModelDerived</text>
</g>
<!-- Node4 -->
<g id="node4" class="node"><title>Node4</title>
<g id="a_node4"><a xlink:title="STL class. ">
<polygon fill="white" stroke="#bfbfbf" points="186.5,-89.5 186.5,-108.5 227.5,-108.5 227.5,-89.5 186.5,-89.5"/>
<text text-anchor="middle" x="207" y="-96.5" font-family="Helvetica,sans-Serif" font-size="10.00">string</text>
</a>
</g>
</g>
<!-- Node4&#45;&gt;Node1 -->
<g id="edge3" class="edge"><title>Node4&#45;&gt;Node1</title>
<path fill="none" stroke="#9a32cd" stroke-dasharray="5,2" d="M197.135,-80.5221C188.719,-65.611 176.773,-44.4462 168.957,-30.5974"/>
<polygon fill="#9a32cd" stroke="#9a32cd" points="194.114,-82.2898 202.077,-89.2781 200.21,-78.8491 194.114,-82.2898"/>
<text text-anchor="middle" x="202.5" y="-52" font-family="Helvetica,sans-Serif" font-size="10.00"> name_</text>
</g>
<!-- Node5 -->
<g id="node5" class="node"><title>Node5</title>
<g id="a_node5"><a xlink:title="STL class. ">
<polygon fill="white" stroke="#bfbfbf" points="166,-173 166,-192 272,-192 272,-173 166,-173"/>
<text text-anchor="middle" x="219" y="-180" font-family="Helvetica,sans-Serif" font-size="10.00">basic_string&lt; char &gt;</text>
</a>
</g>
</g>
<!-- Node5&#45;&gt;Node4 -->
<g id="edge4" class="edge"><title>Node5&#45;&gt;Node4</title>
<path fill="none" stroke="midnightblue" d="M216.256,-162.864C213.753,-145.861 210.164,-121.49 208.275,-108.659"/>
<polygon fill="midnightblue" stroke="midnightblue" points="212.796,-163.395 217.716,-172.778 219.722,-162.375 212.796,-163.395"/>
</g>
</g>
</svg>
