<?xml version="1.0" encoding="UTF-8" standalone="no"?>
<!DOCTYPE svg PUBLIC "-//W3C//DTD SVG 1.1//EN"
 "http://www.w3.org/Graphics/SVG/1.1/DTD/svg11.dtd">
<!-- Generated by graphviz version 2.38.0 (20140413.2041)
 -->
<!-- Title: ActuatorDCMotorData&lt; Scalar_ &gt; Pages: 1 -->
<svg width="151pt" height="106pt"
 viewBox="0.00 0.00 151.00 106.00" xmlns="http://www.w3.org/2000/svg" xmlns:xlink="http://www.w3.org/1999/xlink">
<g id="graph0" class="graph" transform="scale(1 1) rotate(0) translate(4 102)">
<title>ActuatorDCMotorData&lt; Scalar_ &gt;</title>
<polygon fill="white" stroke="none" points="-4,4 -4,-102 147,-102 147,4 -4,4"/>
<!-- Node1 -->
<g id="node1" class="node"><title>Node1</title>
<polygon fill="#bfbfbf" stroke="black" points="14.5,-0.5 14.5,-30.5 128.5,-30.5 128.5,-0.5 14.5,-0.5"/>
<text text-anchor="start" x="22.5" y="-18.5" font-family="Helvetica,sans-Serif" font-size="10.00">ActuatorDCMotorData</text>
<text text-anchor="middle" x="71.5" y="-7.5" font-family="Helvetica,sans-Serif" font-size="10.00">&lt; Scalar_ &gt;</text>
</g>
<!-- Node2 -->
<g id="node2" class="node"><title>Node2</title>
<g id="a_node2"><a xlink:href="structse3_1_1ActuatorDataBase.html" target="_top" xlink:title="ActuatorDataBase\&lt; Actuator\lDCMotorData\&lt; Scalar_ \&gt; \&gt;">
<polygon fill="white" stroke="black" points="0,-67.5 0,-97.5 143,-97.5 143,-67.5 0,-67.5"/>
<text text-anchor="start" x="8" y="-85.5" font-family="Helvetica,sans-Serif" font-size="10.00">ActuatorDataBase&lt; Actuator</text>
<text text-anchor="middle" x="71.5" y="-74.5" font-family="Helvetica,sans-Serif" font-size="10.00">DCMotorData&lt; Scalar_ &gt; &gt;</text>
</a>
</g>
</g>
<!-- Node2&#45;&gt;Node1 -->
<g id="edge1" class="edge"><title>Node2&#45;&gt;Node1</title>
<path fill="none" stroke="#8b1a1a" d="M71.5,-57.1081C71.5,-48.1539 71.5,-38.3227 71.5,-30.5765"/>
<polygon fill="#8b1a1a" stroke="#8b1a1a" points="68.0001,-57.3959 71.5,-67.396 75.0001,-57.396 68.0001,-57.3959"/>
</g>
</g>
</svg>
