<?xml version="1.0" encoding="UTF-8" standalone="no"?>
<!DOCTYPE svg PUBLIC "-//W3C//DTD SVG 1.1//EN"
 "http://www.w3.org/Graphics/SVG/1.1/DTD/svg11.dtd">
<!-- Generated by graphviz version 2.38.0 (20140413.2041)
 -->
<!-- Title: ActuatorDCFirstOrderMotorModel&lt; Scalar_ &gt; Pages: 1 -->
<svg width="284pt" height="206pt"
 viewBox="0.00 0.00 284.00 206.00" xmlns="http://www.w3.org/2000/svg" xmlns:xlink="http://www.w3.org/1999/xlink">
<g id="graph0" class="graph" transform="scale(1 1) rotate(0) translate(4 202)">
<title>ActuatorDCFirstOrderMotorModel&lt; Scalar_ &gt;</title>
<polygon fill="white" stroke="none" points="-4,4 -4,-202 280,-202 280,4 -4,4"/>
<!-- Node1 -->
<g id="node1" class="node"><title>Node1</title>
<polygon fill="#bfbfbf" stroke="black" points="95.5,-0.5 95.5,-30.5 232.5,-30.5 232.5,-0.5 95.5,-0.5"/>
<text text-anchor="start" x="103.5" y="-18.5" font-family="Helvetica,sans-Serif" font-size="10.00">ActuatorDCFirstOrderMotor</text>
<text text-anchor="middle" x="164" y="-7.5" font-family="Helvetica,sans-Serif" font-size="10.00">Model&lt; Scalar_ &gt;</text>
</g>
<!-- Node2 -->
<g id="node2" class="node"><title>Node2</title>
<g id="a_node2"><a xlink:href="structse3_1_1ActuatorModelBase.html" target="_top" xlink:title="ActuatorModelBase\&lt;\l ActuatorDCFirstOrderMotor\lModel\&lt; Scalar_ \&gt; \&gt;">
<polygon fill="white" stroke="black" points="25,-78.5 25,-119.5 165,-119.5 165,-78.5 25,-78.5"/>
<text text-anchor="start" x="33" y="-107.5" font-family="Helvetica,sans-Serif" font-size="10.00">ActuatorModelBase&lt;</text>
<text text-anchor="start" x="33" y="-96.5" font-family="Helvetica,sans-Serif" font-size="10.00"> ActuatorDCFirstOrderMotor</text>
<text text-anchor="middle" x="95" y="-85.5" font-family="Helvetica,sans-Serif" font-size="10.00">Model&lt; Scalar_ &gt; &gt;</text>
</a>
</g>
</g>
<!-- Node2&#45;&gt;Node1 -->
<g id="edge1" class="edge"><title>Node2&#45;&gt;Node1</title>
<path fill="none" stroke="#8b1a1a" d="M118.447,-70.3059C129.723,-56.9869 142.76,-41.5873 151.991,-30.6846"/>
<polygon fill="#8b1a1a" stroke="#8b1a1a" points="115.493,-68.3775 111.703,-78.2711 120.836,-72.9006 115.493,-68.3775"/>
</g>
<!-- Node3 -->
<g id="node3" class="node"><title>Node3</title>
<g id="a_node3"><a xlink:href="structse3_1_1amb__traits_3_01ActuatorDCFirstOrderMotorModel_3_01Scalar___01_4_01_4.html" target="_top" xlink:title="amb_traits\&lt; ActuatorDCFirst\lOrderMotorModel\&lt; Scalar_ \&gt; \&gt;">
<polygon fill="white" stroke="black" points="0,-167.5 0,-197.5 152,-197.5 152,-167.5 0,-167.5"/>
<text text-anchor="start" x="8" y="-185.5" font-family="Helvetica,sans-Serif" font-size="10.00">amb_traits&lt; ActuatorDCFirst</text>
<text text-anchor="middle" x="76" y="-174.5" font-family="Helvetica,sans-Serif" font-size="10.00">OrderMotorModel&lt; Scalar_ &gt; &gt;</text>
</a>
</g>
</g>
<!-- Node3&#45;&gt;Node2 -->
<g id="edge2" class="edge"><title>Node3&#45;&gt;Node2</title>
<path fill="none" stroke="#9a32cd" stroke-dasharray="5,2" d="M81.6107,-157.433C84.4269,-145.353 87.7943,-130.909 90.4475,-119.528"/>
<polygon fill="#9a32cd" stroke="#9a32cd" points="78.1714,-156.77 79.3095,-167.304 84.9886,-158.36 78.1714,-156.77"/>
<text text-anchor="middle" x="137" y="-141" font-family="Helvetica,sans-Serif" font-size="10.00"> ActuatorModelDerived</text>
</g>
<!-- Node4 -->
<g id="node4" class="node"><title>Node4</title>
<g id="a_node4"><a xlink:title="STL class. ">
<polygon fill="white" stroke="#bfbfbf" points="192.5,-89.5 192.5,-108.5 233.5,-108.5 233.5,-89.5 192.5,-89.5"/>
<text text-anchor="middle" x="213" y="-96.5" font-family="Helvetica,sans-Serif" font-size="10.00">string</text>
</a>
</g>
</g>
<!-- Node4&#45;&gt;Node1 -->
<g id="edge3" class="edge"><title>Node4&#45;&gt;Node1</title>
<path fill="none" stroke="#9a32cd" stroke-dasharray="5,2" d="M202.492,-80.5221C193.527,-65.611 180.802,-44.4462 172.476,-30.5974"/>
<polygon fill="#9a32cd" stroke="#9a32cd" points="199.604,-82.5112 207.756,-89.2781 205.603,-78.9043 199.604,-82.5112"/>
<text text-anchor="middle" x="206.5" y="-52" font-family="Helvetica,sans-Serif" font-size="10.00"> name_</text>
</g>
<!-- Node5 -->
<g id="node5" class="node"><title>Node5</title>
<g id="a_node5"><a xlink:title="STL class. ">
<polygon fill="white" stroke="#bfbfbf" points="170,-173 170,-192 276,-192 276,-173 170,-173"/>
<text text-anchor="middle" x="223" y="-180" font-family="Helvetica,sans-Serif" font-size="10.00">basic_string&lt; char &gt;</text>
</a>
</g>
</g>
<!-- Node5&#45;&gt;Node4 -->
<g id="edge4" class="edge"><title>Node5&#45;&gt;Node4</title>
<path fill="none" stroke="midnightblue" d="M220.654,-162.376C218.57,-145.398 215.622,-121.367 214.062,-108.659"/>
<polygon fill="midnightblue" stroke="midnightblue" points="217.238,-163.279 221.93,-172.778 224.186,-162.426 217.238,-163.279"/>
</g>
</g>
</svg>
