<?xml version="1.0" encoding="UTF-8" standalone="no"?>
<!DOCTYPE svg PUBLIC "-//W3C//DTD SVG 1.1//EN"
 "http://www.w3.org/Graphics/SVG/1.1/DTD/svg11.dtd">
<!-- Generated by graphviz version 2.38.0 (20140413.2041)
 -->
<!-- Title: Spatial Pages: 1 -->
<svg width="137pt" height="142pt"
 viewBox="0.00 0.00 137.00 142.00" xmlns="http://www.w3.org/2000/svg" xmlns:xlink="http://www.w3.org/1999/xlink">
<g id="graph0" class="graph" transform="scale(1 1) rotate(0) translate(4 138)">
<title>Spatial</title>
<polygon fill="white" stroke="none" points="-4,4 -4,-138 133,-138 133,4 -4,4"/>
<!-- Node3 -->
<g id="node1" class="node"><title>Node3</title>
<g id="a_node1"><a xlink:href="group__Inertia__group.html" target="_top" xlink:title="Inertia">
<polygon fill="white" stroke="black" points="84,-114.5 84,-133.5 128,-133.5 128,-114.5 84,-114.5"/>
<text text-anchor="middle" x="106" y="-121.5" font-family="Helvetica,sans-Serif" font-size="10.00">Inertia</text>
</a>
</g>
</g>
<!-- Node4 -->
<g id="node2" class="node"><title>Node4</title>
<g id="a_node2"><a xlink:href="group__SE3__group.html" target="_top" xlink:title="SE3">
<polygon fill="white" stroke="black" points="88.5,-76.5 88.5,-95.5 123.5,-95.5 123.5,-76.5 88.5,-76.5"/>
<text text-anchor="middle" x="106" y="-83.5" font-family="Helvetica,sans-Serif" font-size="10.00">SE3</text>
</a>
</g>
</g>
<!-- Node2 -->
<g id="node3" class="node"><title>Node2</title>
<g id="a_node3"><a xlink:href="group__Motion__group.html" target="_top" xlink:title="Motion">
<polygon fill="white" stroke="black" points="83,-38.5 83,-57.5 129,-57.5 129,-38.5 83,-38.5"/>
<text text-anchor="middle" x="106" y="-45.5" font-family="Helvetica,sans-Serif" font-size="10.00">Motion</text>
</a>
</g>
</g>
<!-- Node1 -->
<g id="node4" class="node"><title>Node1</title>
<g id="a_node4"><a xlink:href="group__Force__group.html" target="_top" xlink:title="Force">
<polygon fill="white" stroke="black" points="85.5,-0.5 85.5,-19.5 126.5,-19.5 126.5,-0.5 85.5,-0.5"/>
<text text-anchor="middle" x="106" y="-7.5" font-family="Helvetica,sans-Serif" font-size="10.00">Force</text>
</a>
</g>
</g>
<!-- Node0 -->
<g id="node5" class="node"><title>Node0</title>
<polygon fill="#bfbfbf" stroke="black" points="0,-57.5 0,-76.5 47,-76.5 47,-57.5 0,-57.5"/>
<text text-anchor="middle" x="23.5" y="-64.5" font-family="Helvetica,sans-Serif" font-size="10.00">Spatial</text>
</g>
<!-- Node0&#45;&gt;Node3 -->
<g id="edge3" class="edge"><title>Node0&#45;&gt;Node3</title>
<path fill="none" stroke="black" d="M46.5243,-82.5948C60.928,-92.7937 79.2792,-105.788 91.5459,-114.474"/>
<polygon fill="black" stroke="black" points="48.3396,-79.5916 38.1557,-76.6693 44.2944,-85.3045 48.3396,-79.5916"/>
</g>
<!-- Node0&#45;&gt;Node4 -->
<g id="edge4" class="edge"><title>Node0&#45;&gt;Node4</title>
<path fill="none" stroke="black" d="M57.3089,-74.7437C68.0354,-77.2754 79.4924,-79.9796 88.488,-82.1028"/>
<polygon fill="black" stroke="black" points="57.8894,-71.2846 47.3527,-72.3938 56.2813,-78.0974 57.8894,-71.2846"/>
</g>
<!-- Node0&#45;&gt;Node2 -->
<g id="edge2" class="edge"><title>Node0&#45;&gt;Node2</title>
<path fill="none" stroke="black" d="M57.1889,-59.2846C65.8429,-57.2421 74.9805,-55.0853 82.9232,-53.2107"/>
<polygon fill="black" stroke="black" points="56.2813,-55.9026 47.3527,-61.6062 57.8894,-62.7154 56.2813,-55.9026"/>
</g>
<!-- Node0&#45;&gt;Node1 -->
<g id="edge1" class="edge"><title>Node0&#45;&gt;Node1</title>
<path fill="none" stroke="black" d="M46.5243,-51.4052C60.928,-41.2063 79.2792,-28.2123 91.5459,-19.5265"/>
<polygon fill="black" stroke="black" points="44.2944,-48.6955 38.1557,-57.3307 48.3396,-54.4084 44.2944,-48.6955"/>
</g>
</g>
</svg>
