<?xml version="1.0" encoding="UTF-8" standalone="no"?>
<!DOCTYPE svg PUBLIC "-//W3C//DTD SVG 1.1//EN"
 "http://www.w3.org/Graphics/SVG/1.1/DTD/svg11.dtd">
<!-- Generated by graphviz version 2.38.0 (20140413.2041)
 -->
<!-- Title: Motor models Pages: 1 -->
<svg width="336pt" height="127pt"
 viewBox="0.00 0.00 336.00 127.00" xmlns="http://www.w3.org/2000/svg" xmlns:xlink="http://www.w3.org/1999/xlink">
<g id="graph0" class="graph" transform="scale(1 1) rotate(0) translate(4 123)">
<title>Motor models</title>
<polygon fill="white" stroke="none" points="-4,4 -4,-123 332,-123 332,4 -4,4"/>
<!-- Node3 -->
<g id="node1" class="node"><title>Node3</title>
<g id="a_node1"><a xlink:href="group__actuators__motor__group__sl__dc__motor.html" target="_top" xlink:title="Linear motor model\l (second order)">
<polygon fill="white" stroke="black" points="217.5,-88.5 217.5,-118.5 317.5,-118.5 317.5,-88.5 217.5,-88.5"/>
<text text-anchor="start" x="225.5" y="-106.5" font-family="Helvetica,sans-Serif" font-size="10.00">Linear motor model</text>
<text text-anchor="middle" x="267.5" y="-95.5" font-family="Helvetica,sans-Serif" font-size="10.00"> (second order)</text>
</a>
</g>
</g>
<!-- Node0 -->
<g id="node2" class="node"><title>Node0</title>
<polygon fill="#bfbfbf" stroke="black" points="95,-50 95,-69 171,-69 171,-50 95,-50"/>
<text text-anchor="middle" x="133" y="-57" font-family="Helvetica,sans-Serif" font-size="10.00">Motor models</text>
</g>
<!-- Node0&#45;&gt;Node3 -->
<g id="edge3" class="edge"><title>Node0&#45;&gt;Node3</title>
<path fill="none" stroke="black" d="M172.376,-72.2436C187.617,-77.3048 205.265,-83.1653 221.133,-88.4346"/>
<polygon fill="black" stroke="black" points="173.344,-68.8773 162.751,-69.0473 171.138,-75.5206 173.344,-68.8773"/>
</g>
<!-- Node4 -->
<g id="node4" class="node"><title>Node4</title>
<g id="a_node4"><a xlink:href="group__actuators__motor__group__nl__dc__motor.html" target="_top" xlink:title="Non linear motor model.">
<polygon fill="white" stroke="black" points="207,-50 207,-69 328,-69 328,-50 207,-50"/>
<text text-anchor="middle" x="267.5" y="-57" font-family="Helvetica,sans-Serif" font-size="10.00">Non linear motor model.</text>
</a>
</g>
</g>
<!-- Node0&#45;&gt;Node4 -->
<g id="edge4" class="edge"><title>Node0&#45;&gt;Node4</title>
<path fill="none" stroke="black" d="M181.46,-59.5C189.726,-59.5 198.417,-59.5 206.958,-59.5"/>
<polygon fill="black" stroke="black" points="181.261,-56.0001 171.261,-59.5 181.261,-63.0001 181.261,-56.0001"/>
</g>
<!-- Node2 -->
<g id="node5" class="node"><title>Node2</title>
<g id="a_node5"><a xlink:href="group__actuators__motor__group__fl__dc__motor.html" target="_top" xlink:title="DC linear model (first\l order)">
<polygon fill="white" stroke="black" points="212.5,-0.5 212.5,-30.5 322.5,-30.5 322.5,-0.5 212.5,-0.5"/>
<text text-anchor="start" x="220.5" y="-18.5" font-family="Helvetica,sans-Serif" font-size="10.00">DC linear model (first</text>
<text text-anchor="middle" x="267.5" y="-7.5" font-family="Helvetica,sans-Serif" font-size="10.00"> order)</text>
</a>
</g>
</g>
<!-- Node0&#45;&gt;Node2 -->
<g id="edge2" class="edge"><title>Node0&#45;&gt;Node2</title>
<path fill="none" stroke="black" d="M172.376,-46.7564C187.617,-41.6952 205.265,-35.8347 221.133,-30.5654"/>
<polygon fill="black" stroke="black" points="171.138,-43.4794 162.751,-49.9527 173.344,-50.1227 171.138,-43.4794"/>
</g>
<!-- Node1 -->
<g id="node3" class="node"><title>Node1</title>
<g id="a_node3"><a xlink:href="group__actuators__group.html" target="_top" xlink:title="Actuators">
<polygon fill="white" stroke="black" points="0,-50 0,-69 59,-69 59,-50 0,-50"/>
<text text-anchor="middle" x="29.5" y="-57" font-family="Helvetica,sans-Serif" font-size="10.00">Actuators</text>
</a>
</g>
</g>
<!-- Node1&#45;&gt;Node0 -->
<g id="edge1" class="edge"><title>Node1&#45;&gt;Node0</title>
<path fill="none" stroke="black" d="M69.0814,-59.5C77.5632,-59.5 86.5268,-59.5 94.9467,-59.5"/>
<polygon fill="black" stroke="black" points="69.0436,-56.0001 59.0435,-59.5 69.0435,-63.0001 69.0436,-56.0001"/>
</g>
</g>
</svg>
