<?xml version="1.0" encoding="UTF-8" standalone="no"?>
<!DOCTYPE svg PUBLIC "-//W3C//DTD SVG 1.1//EN"
 "http://www.w3.org/Graphics/SVG/1.1/DTD/svg11.dtd">
<!-- Generated by graphviz version 2.38.0 (20140413.2041)
 -->
<!-- Title: Motor models Pages: 1 -->
<svg width="336pt" height="176pt"
 viewBox="0.00 0.00 336.00 176.00" xmlns="http://www.w3.org/2000/svg" xmlns:xlink="http://www.w3.org/1999/xlink">
<g id="graph0" class="graph" transform="scale(1 1) rotate(0) translate(4 172)">
<title>Motor models</title>
<polygon fill="white" stroke="none" points="-4,4 -4,-172 332,-172 332,4 -4,4"/>
<!-- Node5 -->
<g id="node1" class="node"><title>Node5</title>
<g id="a_node1"><a xlink:href="group__actuators__motor__group__tnl__dc__motor.html" target="_top" xlink:title="Non linear motor model\l (temperature)">
<polygon fill="white" stroke="black" points="208.5,-137.5 208.5,-167.5 326.5,-167.5 326.5,-137.5 208.5,-137.5"/>
<text text-anchor="start" x="216.5" y="-155.5" font-family="Helvetica,sans-Serif" font-size="10.00">Non linear motor model</text>
<text text-anchor="middle" x="267.5" y="-144.5" font-family="Helvetica,sans-Serif" font-size="10.00"> (temperature)</text>
</a>
</g>
</g>
<!-- Node3 -->
<g id="node2" class="node"><title>Node3</title>
<g id="a_node2"><a xlink:href="group__actuators__motor__group__sl__dc__motor.html" target="_top" xlink:title="Linear motor model\l (second order)">
<polygon fill="white" stroke="black" points="217.5,-88.5 217.5,-118.5 317.5,-118.5 317.5,-88.5 217.5,-88.5"/>
<text text-anchor="start" x="225.5" y="-106.5" font-family="Helvetica,sans-Serif" font-size="10.00">Linear motor model</text>
<text text-anchor="middle" x="267.5" y="-95.5" font-family="Helvetica,sans-Serif" font-size="10.00"> (second order)</text>
</a>
</g>
</g>
<!-- Node0 -->
<g id="node3" class="node"><title>Node0</title>
<polygon fill="#bfbfbf" stroke="black" points="95,-72 95,-91 171,-91 171,-72 95,-72"/>
<text text-anchor="middle" x="133" y="-79" font-family="Helvetica,sans-Serif" font-size="10.00">Motor models</text>
</g>
<!-- Node0&#45;&gt;Node5 -->
<g id="edge5" class="edge"><title>Node0&#45;&gt;Node5</title>
<path fill="none" stroke="black" d="M155.806,-97.0851C169.986,-106.825 189.102,-119.234 207,-128.5 213.034,-131.624 219.57,-134.622 226.028,-137.376"/>
<polygon fill="black" stroke="black" points="157.469,-93.9774 147.264,-91.1293 153.465,-99.7196 157.469,-93.9774"/>
</g>
<!-- Node0&#45;&gt;Node3 -->
<g id="edge3" class="edge"><title>Node0&#45;&gt;Node3</title>
<path fill="none" stroke="black" d="M181.24,-89.3436C192.892,-91.2784 205.402,-93.3554 217.152,-95.3063"/>
<polygon fill="black" stroke="black" points="181.7,-85.8721 171.261,-87.6868 180.553,-92.7775 181.7,-85.8721"/>
</g>
<!-- Node4 -->
<g id="node5" class="node"><title>Node4</title>
<g id="a_node5"><a xlink:href="group__actuators__motor__group__nl__dc__motor.html" target="_top" xlink:title="Non linear motor model.">
<polygon fill="white" stroke="black" points="207,-50 207,-69 328,-69 328,-50 207,-50"/>
<text text-anchor="middle" x="267.5" y="-57" font-family="Helvetica,sans-Serif" font-size="10.00">Non linear motor model.</text>
</a>
</g>
</g>
<!-- Node0&#45;&gt;Node4 -->
<g id="edge4" class="edge"><title>Node0&#45;&gt;Node4</title>
<path fill="none" stroke="black" d="M181.232,-73.6576C190.295,-72.1529 199.877,-70.562 209.216,-69.0113"/>
<polygon fill="black" stroke="black" points="180.553,-70.2225 171.261,-75.3132 181.7,-77.1279 180.553,-70.2225"/>
</g>
<!-- Node2 -->
<g id="node6" class="node"><title>Node2</title>
<g id="a_node6"><a xlink:href="group__actuators__motor__group__fl__dc__motor.html" target="_top" xlink:title="DC linear model (first\l order)">
<polygon fill="white" stroke="black" points="212.5,-0.5 212.5,-30.5 322.5,-30.5 322.5,-0.5 212.5,-0.5"/>
<text text-anchor="start" x="220.5" y="-18.5" font-family="Helvetica,sans-Serif" font-size="10.00">DC linear model (first</text>
<text text-anchor="middle" x="267.5" y="-7.5" font-family="Helvetica,sans-Serif" font-size="10.00"> order)</text>
</a>
</g>
</g>
<!-- Node0&#45;&gt;Node2 -->
<g id="edge2" class="edge"><title>Node0&#45;&gt;Node2</title>
<path fill="none" stroke="black" d="M158.918,-66.5733C172.854,-58.463 190.661,-48.4889 207,-40.5 213.945,-37.1041 221.469,-33.7227 228.755,-30.5945"/>
<polygon fill="black" stroke="black" points="156.801,-63.7578 149.954,-71.843 160.349,-69.7923 156.801,-63.7578"/>
</g>
<!-- Node1 -->
<g id="node4" class="node"><title>Node1</title>
<g id="a_node4"><a xlink:href="group__actuators__group.html" target="_top" xlink:title="Actuators">
<polygon fill="white" stroke="black" points="0,-72 0,-91 59,-91 59,-72 0,-72"/>
<text text-anchor="middle" x="29.5" y="-79" font-family="Helvetica,sans-Serif" font-size="10.00">Actuators</text>
</a>
</g>
</g>
<!-- Node1&#45;&gt;Node0 -->
<g id="edge1" class="edge"><title>Node1&#45;&gt;Node0</title>
<path fill="none" stroke="black" d="M69.0814,-81.5C77.5632,-81.5 86.5268,-81.5 94.9467,-81.5"/>
<polygon fill="black" stroke="black" points="69.0436,-78.0001 59.0435,-81.5 69.0435,-85.0001 69.0436,-78.0001"/>
</g>
</g>
</svg>
