<?xml version="1.0" encoding="UTF-8" standalone="no"?>
<!DOCTYPE svg PUBLIC "-//W3C//DTD SVG 1.1//EN"
 "http://www.w3.org/Graphics/SVG/1.1/DTD/svg11.dtd">
<!-- Generated by graphviz version 2.38.0 (20140413.2041)
 -->
<!-- Title: Graphical Class Hierarchy Pages: 1 -->
<svg width="352pt" height="50pt"
 viewBox="0.00 0.00 352.00 50.00" xmlns="http://www.w3.org/2000/svg" xmlns:xlink="http://www.w3.org/1999/xlink">
<g id="graph0" class="graph" transform="scale(1 1) rotate(0) translate(4 46)">
<title>Graphical Class Hierarchy</title>
<polygon fill="white" stroke="none" points="-4,4 -4,-46 348,-46 348,4 -4,4"/>
<!-- Node1 -->
<g id="node1" class="node"><title>Node1</title>
<g id="a_node1"><a xlink:href="structse3_1_1LieGroupOperationBase.html" target="_top" xlink:title="LieGroupOperationBase\l\&lt; SpecialOrthogonalOperation\l\&lt; 2 \&gt; \&gt;">
<polygon fill="white" stroke="black" points="0,-0.5 0,-41.5 147,-41.5 147,-0.5 0,-0.5"/>
<text text-anchor="start" x="8" y="-29.5" font-family="Helvetica,sans-Serif" font-size="10.00">LieGroupOperationBase</text>
<text text-anchor="start" x="8" y="-18.5" font-family="Helvetica,sans-Serif" font-size="10.00">&lt; SpecialOrthogonalOperation</text>
<text text-anchor="middle" x="73.5" y="-7.5" font-family="Helvetica,sans-Serif" font-size="10.00">&lt; 2 &gt; &gt;</text>
</a>
</g>
</g>
<!-- Node2 -->
<g id="node2" class="node"><title>Node2</title>
<g id="a_node2"><a xlink:href="structse3_1_1SpecialOrthogonalOperation_3_012_01_4.html" target="_top" xlink:title="SpecialOrthogonalOperation\&lt; 2 \&gt;">
<polygon fill="white" stroke="black" points="183,-11.5 183,-30.5 344,-30.5 344,-11.5 183,-11.5"/>
<text text-anchor="middle" x="263.5" y="-18.5" font-family="Helvetica,sans-Serif" font-size="10.00">SpecialOrthogonalOperation&lt; 2 &gt;</text>
</a>
</g>
</g>
<!-- Node1&#45;&gt;Node2 -->
<g id="edge1" class="edge"><title>Node1&#45;&gt;Node2</title>
<path fill="none" stroke="midnightblue" d="M157.408,-21C165.854,-21 174.42,-21 182.83,-21"/>
<polygon fill="midnightblue" stroke="midnightblue" points="157.186,-17.5001 147.186,-21 157.186,-24.5001 157.186,-17.5001"/>
</g>
</g>
</svg>
