<?xml version="1.0" encoding="UTF-8" standalone="no"?>
<!DOCTYPE svg PUBLIC "-//W3C//DTD SVG 1.1//EN"
 "http://www.w3.org/Graphics/SVG/1.1/DTD/svg11.dtd">
<!-- Generated by graphviz version 2.38.0 (20140413.2041)
 -->
<!-- Title: Graphical Class Hierarchy Pages: 1 -->
<svg width="301pt" height="39pt"
 viewBox="0.00 0.00 301.00 39.00" xmlns="http://www.w3.org/2000/svg" xmlns:xlink="http://www.w3.org/1999/xlink">
<g id="graph0" class="graph" transform="scale(1 1) rotate(0) translate(4 35)">
<title>Graphical Class Hierarchy</title>
<polygon fill="white" stroke="none" points="-4,4 -4,-35 297,-35 297,4 -4,4"/>
<!-- Node1 -->
<g id="node1" class="node"><title>Node1</title>
<g id="a_node1"><a xlink:href="structse3_1_1ActuatorDataBase.html" target="_top" xlink:title="ActuatorDataBase\&lt; Actuator\lDCMotorData\&lt; Scalar_ \&gt; \&gt;">
<polygon fill="white" stroke="black" points="0,-0.5 0,-30.5 143,-30.5 143,-0.5 0,-0.5"/>
<text text-anchor="start" x="8" y="-18.5" font-family="Helvetica,sans-Serif" font-size="10.00">ActuatorDataBase&lt; Actuator</text>
<text text-anchor="middle" x="71.5" y="-7.5" font-family="Helvetica,sans-Serif" font-size="10.00">DCMotorData&lt; Scalar_ &gt; &gt;</text>
</a>
</g>
</g>
<!-- Node2 -->
<g id="node2" class="node"><title>Node2</title>
<g id="a_node2"><a xlink:href="classse3_1_1ActuatorDCMotorData.html" target="_top" xlink:title="Template for handling data related to a second order linear DC motor model. ">
<polygon fill="white" stroke="black" points="179,-0.5 179,-30.5 293,-30.5 293,-0.5 179,-0.5"/>
<text text-anchor="start" x="187" y="-18.5" font-family="Helvetica,sans-Serif" font-size="10.00">ActuatorDCMotorData</text>
<text text-anchor="middle" x="236" y="-7.5" font-family="Helvetica,sans-Serif" font-size="10.00">&lt; Scalar_ &gt;</text>
</a>
</g>
</g>
<!-- Node1&#45;&gt;Node2 -->
<g id="edge1" class="edge"><title>Node1&#45;&gt;Node2</title>
<path fill="none" stroke="#8b1a1a" d="M153.309,-15.5C161.855,-15.5 170.408,-15.5 178.589,-15.5"/>
<polygon fill="#8b1a1a" stroke="#8b1a1a" points="153.302,-12.0001 143.302,-15.5 153.302,-19.0001 153.302,-12.0001"/>
</g>
</g>
</svg>
