<?xml version="1.0" encoding="UTF-8" standalone="no"?>
<!DOCTYPE svg PUBLIC "-//W3C//DTD SVG 1.1//EN"
 "http://www.w3.org/Graphics/SVG/1.1/DTD/svg11.dtd">
<!-- Generated by graphviz version 2.38.0 (20140413.2041)
 -->
<!-- Title: Graphical Class Hierarchy Pages: 1 -->
<svg width="283pt" height="723pt"
 viewBox="0.00 0.00 283.00 722.50" xmlns="http://www.w3.org/2000/svg" xmlns:xlink="http://www.w3.org/1999/xlink">
<g id="graph0" class="graph" transform="scale(1 1) rotate(0) translate(4 718.5)">
<title>Graphical Class Hierarchy</title>
<polygon fill="white" stroke="none" points="-4,4 -4,-718.5 279,-718.5 279,4 -4,4"/>
<!-- Node1 -->
<g id="node1" class="node"><title>Node1</title>
<g id="a_node1"><a xlink:title="STL class. ">
<polygon fill="white" stroke="#bfbfbf" points="0,-351.5 0,-370.5 68,-370.5 68,-351.5 0,-351.5"/>
<text text-anchor="middle" x="34" y="-358.5" font-family="Helvetica,sans-Serif" font-size="10.00">vector&lt; T &gt;</text>
</a>
</g>
</g>
<!-- Node2 -->
<g id="node2" class="node"><title>Node2</title>
<g id="a_node2"><a xlink:href="classse3_1_1container_1_1aligned__vector.html" target="_top" xlink:title="aligned_vector\&lt; Eigen\l::Vector3d \&gt;">
<polygon fill="white" stroke="black" points="133,-684 133,-714 246,-714 246,-684 133,-684"/>
<text text-anchor="start" x="141" y="-702" font-family="Helvetica,sans-Serif" font-size="10.00">aligned_vector&lt; Eigen</text>
<text text-anchor="middle" x="189.5" y="-691" font-family="Helvetica,sans-Serif" font-size="10.00">::Vector3d &gt;</text>
</a>
</g>
</g>
<!-- Node1&#45;&gt;Node2 -->
<g id="edge1" class="edge"><title>Node1&#45;&gt;Node2</title>
<path fill="none" stroke="midnightblue" d="M36.748,-380.657C42.6169,-442.348 63.5588,-630.595 104,-674 111.717,-682.283 122.034,-687.866 132.802,-691.619"/>
<polygon fill="midnightblue" stroke="midnightblue" points="40.2309,-380.31 35.8263,-370.674 33.2606,-380.954 40.2309,-380.31"/>
</g>
<!-- Node3 -->
<g id="node3" class="node"><title>Node3</title>
<g id="a_node3"><a xlink:href="classse3_1_1container_1_1aligned__vector.html" target="_top" xlink:title="aligned_vector\&lt; JointData \&gt;">
<polygon fill="white" stroke="black" points="119.5,-645.5 119.5,-664.5 259.5,-664.5 259.5,-645.5 119.5,-645.5"/>
<text text-anchor="middle" x="189.5" y="-652.5" font-family="Helvetica,sans-Serif" font-size="10.00">aligned_vector&lt; JointData &gt;</text>
</a>
</g>
</g>
<!-- Node1&#45;&gt;Node3 -->
<g id="edge2" class="edge"><title>Node1&#45;&gt;Node3</title>
<path fill="none" stroke="midnightblue" d="M37.2965,-380.926C44.2678,-437.931 67.0007,-599.902 104,-636 108.413,-640.305 113.579,-643.719 119.145,-646.416"/>
<polygon fill="midnightblue" stroke="midnightblue" points="40.7385,-380.23 36.0806,-370.714 33.7876,-381.057 40.7385,-380.23"/>
</g>
<!-- Node4 -->
<g id="node4" class="node"><title>Node4</title>
<g id="a_node4"><a xlink:href="classse3_1_1container_1_1aligned__vector.html" target="_top" xlink:title="aligned_vector\&lt; JointData\lVariant \&gt;">
<polygon fill="white" stroke="black" points="124,-596 124,-626 255,-626 255,-596 124,-596"/>
<text text-anchor="start" x="132" y="-614" font-family="Helvetica,sans-Serif" font-size="10.00">aligned_vector&lt; JointData</text>
<text text-anchor="middle" x="189.5" y="-603" font-family="Helvetica,sans-Serif" font-size="10.00">Variant &gt;</text>
</a>
</g>
</g>
<!-- Node1&#45;&gt;Node4 -->
<g id="edge3" class="edge"><title>Node1&#45;&gt;Node4</title>
<path fill="none" stroke="midnightblue" d="M35.1416,-380.857C36.5576,-424.357 46.1649,-528.735 104,-586 109.653,-591.597 116.496,-595.952 123.812,-599.339"/>
<polygon fill="midnightblue" stroke="midnightblue" points="38.6382,-380.656 34.9296,-370.731 31.6397,-380.802 38.6382,-380.656"/>
</g>
<!-- Node5 -->
<g id="node5" class="node"><title>Node5</title>
<g id="a_node5"><a xlink:href="classse3_1_1container_1_1aligned__vector.html" target="_top" xlink:title="aligned_vector\&lt; JointModel \&gt;">
<polygon fill="white" stroke="black" points="117,-557.5 117,-576.5 262,-576.5 262,-557.5 117,-557.5"/>
<text text-anchor="middle" x="189.5" y="-564.5" font-family="Helvetica,sans-Serif" font-size="10.00">aligned_vector&lt; JointModel &gt;</text>
</a>
</g>
</g>
<!-- Node1&#45;&gt;Node5 -->
<g id="edge4" class="edge"><title>Node1&#45;&gt;Node5</title>
<path fill="none" stroke="midnightblue" d="M36.2976,-380.847C39.9202,-419.241 53.5115,-503.786 104,-548 108.299,-551.764 113.183,-554.83 118.384,-557.321"/>
<polygon fill="midnightblue" stroke="midnightblue" points="39.7565,-380.195 35.4636,-370.509 32.7792,-380.758 39.7565,-380.195"/>
</g>
<!-- Node6 -->
<g id="node6" class="node"><title>Node6</title>
<g id="a_node6"><a xlink:href="classse3_1_1container_1_1aligned__vector.html" target="_top" xlink:title="aligned_vector\&lt; JointModel\lVariant \&gt;">
<polygon fill="white" stroke="black" points="121.5,-508 121.5,-538 257.5,-538 257.5,-508 121.5,-508"/>
<text text-anchor="start" x="129.5" y="-526" font-family="Helvetica,sans-Serif" font-size="10.00">aligned_vector&lt; JointModel</text>
<text text-anchor="middle" x="189.5" y="-515" font-family="Helvetica,sans-Serif" font-size="10.00">Variant &gt;</text>
</a>
</g>
</g>
<!-- Node1&#45;&gt;Node6 -->
<g id="edge5" class="edge"><title>Node1&#45;&gt;Node6</title>
<path fill="none" stroke="midnightblue" d="M39.552,-380.609C47.4808,-410.381 66.6671,-466.813 104,-498 109.166,-502.316 115.052,-505.886 121.259,-508.84"/>
<polygon fill="midnightblue" stroke="midnightblue" points="42.8732,-379.463 37.05,-370.612 36.0826,-381.162 42.8732,-379.463"/>
</g>
<!-- Node7 -->
<g id="node7" class="node"><title>Node7</title>
<g id="a_node7"><a xlink:href="classse3_1_1container_1_1aligned__vector.html" target="_top" xlink:title="aligned_vector\&lt; Matrix6x \&gt;">
<polygon fill="white" stroke="black" points="122,-469.5 122,-488.5 257,-488.5 257,-469.5 122,-469.5"/>
<text text-anchor="middle" x="189.5" y="-476.5" font-family="Helvetica,sans-Serif" font-size="10.00">aligned_vector&lt; Matrix6x &gt;</text>
</a>
</g>
</g>
<!-- Node1&#45;&gt;Node7 -->
<g id="edge6" class="edge"><title>Node1&#45;&gt;Node7</title>
<path fill="none" stroke="midnightblue" d="M42.965,-379.952C53.5071,-402.632 74.293,-440.039 104,-460 109.741,-463.858 116.147,-466.942 122.794,-469.407"/>
<polygon fill="midnightblue" stroke="midnightblue" points="46.1059,-378.401 38.8469,-370.684 39.7089,-381.243 46.1059,-378.401"/>
</g>
<!-- Node8 -->
<g id="node8" class="node"><title>Node8</title>
<g id="a_node8"><a xlink:href="classse3_1_1container_1_1aligned__vector.html" target="_top" xlink:title="aligned_vector\&lt; se3\l::ForceTpl \&gt;">
<polygon fill="white" stroke="black" points="137.5,-420 137.5,-450 241.5,-450 241.5,-420 137.5,-420"/>
<text text-anchor="start" x="145.5" y="-438" font-family="Helvetica,sans-Serif" font-size="10.00">aligned_vector&lt; se3</text>
<text text-anchor="middle" x="189.5" y="-427" font-family="Helvetica,sans-Serif" font-size="10.00">::ForceTpl &gt;</text>
</a>
</g>
</g>
<!-- Node1&#45;&gt;Node8 -->
<g id="edge7" class="edge"><title>Node1&#45;&gt;Node8</title>
<path fill="none" stroke="midnightblue" d="M53.8131,-377.438C67.0689,-388.29 85.659,-402.097 104,-411 114.427,-416.061 126.11,-420.233 137.385,-423.596"/>
<polygon fill="midnightblue" stroke="midnightblue" points="55.8369,-374.567 45.9286,-370.815 51.3346,-379.927 55.8369,-374.567"/>
</g>
<!-- Node9 -->
<g id="node9" class="node"><title>Node9</title>
<g id="a_node9"><a xlink:href="classse3_1_1container_1_1aligned__vector.html" target="_top" xlink:title="aligned_vector\&lt; se3\l::FrameTpl \&gt;">
<polygon fill="white" stroke="black" points="137.5,-371 137.5,-401 241.5,-401 241.5,-371 137.5,-371"/>
<text text-anchor="start" x="145.5" y="-389" font-family="Helvetica,sans-Serif" font-size="10.00">aligned_vector&lt; se3</text>
<text text-anchor="middle" x="189.5" y="-378" font-family="Helvetica,sans-Serif" font-size="10.00">::FrameTpl &gt;</text>
</a>
</g>
</g>
<!-- Node1&#45;&gt;Node9 -->
<g id="edge8" class="edge"><title>Node1&#45;&gt;Node9</title>
<path fill="none" stroke="midnightblue" d="M78.4306,-368.073C96.7956,-371.064 118.319,-374.57 137.438,-377.684"/>
<polygon fill="midnightblue" stroke="midnightblue" points="78.7398,-364.578 68.3072,-366.425 77.6145,-371.487 78.7398,-364.578"/>
</g>
<!-- Node10 -->
<g id="node10" class="node"><title>Node10</title>
<g id="a_node10"><a xlink:href="classse3_1_1container_1_1aligned__vector.html" target="_top" xlink:title="aligned_vector\&lt; se3\l::GeometryObject \&gt;">
<polygon fill="white" stroke="black" points="137.5,-322 137.5,-352 241.5,-352 241.5,-322 137.5,-322"/>
<text text-anchor="start" x="145.5" y="-340" font-family="Helvetica,sans-Serif" font-size="10.00">aligned_vector&lt; se3</text>
<text text-anchor="middle" x="189.5" y="-329" font-family="Helvetica,sans-Serif" font-size="10.00">::GeometryObject &gt;</text>
</a>
</g>
</g>
<!-- Node1&#45;&gt;Node10 -->
<g id="edge9" class="edge"><title>Node1&#45;&gt;Node10</title>
<path fill="none" stroke="midnightblue" d="M78.4306,-354.21C96.7956,-351.338 118.319,-347.973 137.438,-344.984"/>
<polygon fill="midnightblue" stroke="midnightblue" points="77.6465,-350.79 68.3072,-355.792 78.7279,-357.706 77.6465,-350.79"/>
</g>
<!-- Node11 -->
<g id="node11" class="node"><title>Node11</title>
<g id="a_node11"><a xlink:href="classse3_1_1container_1_1aligned__vector.html" target="_top" xlink:title="aligned_vector\&lt; se3\l::InertiaTpl \&gt;">
<polygon fill="white" stroke="black" points="137.5,-273 137.5,-303 241.5,-303 241.5,-273 137.5,-273"/>
<text text-anchor="start" x="145.5" y="-291" font-family="Helvetica,sans-Serif" font-size="10.00">aligned_vector&lt; se3</text>
<text text-anchor="middle" x="189.5" y="-280" font-family="Helvetica,sans-Serif" font-size="10.00">::InertiaTpl &gt;</text>
</a>
</g>
</g>
<!-- Node1&#45;&gt;Node11 -->
<g id="edge10" class="edge"><title>Node1&#45;&gt;Node11</title>
<path fill="none" stroke="midnightblue" d="M54.4269,-344.95C67.7083,-334.634 86.0876,-321.603 104,-313 114.481,-307.966 126.186,-303.718 137.465,-300.233"/>
<polygon fill="midnightblue" stroke="midnightblue" points="52.1386,-342.298 46.4915,-351.262 56.4963,-347.776 52.1386,-342.298"/>
</g>
<!-- Node12 -->
<g id="node12" class="node"><title>Node12</title>
<g id="a_node12"><a xlink:href="classse3_1_1container_1_1aligned__vector.html" target="_top" xlink:title="aligned_vector\&lt; se3\l::InertiaTpl::Matrix6 \&gt;">
<polygon fill="white" stroke="black" points="134.5,-224 134.5,-254 244.5,-254 244.5,-224 134.5,-224"/>
<text text-anchor="start" x="142.5" y="-242" font-family="Helvetica,sans-Serif" font-size="10.00">aligned_vector&lt; se3</text>
<text text-anchor="middle" x="189.5" y="-231" font-family="Helvetica,sans-Serif" font-size="10.00">::InertiaTpl::Matrix6 &gt;</text>
</a>
</g>
</g>
<!-- Node1&#45;&gt;Node12 -->
<g id="edge11" class="edge"><title>Node1&#45;&gt;Node12</title>
<path fill="none" stroke="midnightblue" d="M43.6028,-342.117C54.5595,-320.154 75.5418,-284.32 104,-264 112.964,-257.599 123.57,-252.821 134.186,-249.26"/>
<polygon fill="midnightblue" stroke="midnightblue" points="40.3239,-340.861 39.1617,-351.391 46.6374,-343.884 40.3239,-340.861"/>
</g>
<!-- Node13 -->
<g id="node13" class="node"><title>Node13</title>
<g id="a_node13"><a xlink:href="classse3_1_1container_1_1aligned__vector.html" target="_top" xlink:title="aligned_vector\&lt; se3\l::MotionTpl \&gt;">
<polygon fill="white" stroke="black" points="137.5,-175 137.5,-205 241.5,-205 241.5,-175 137.5,-175"/>
<text text-anchor="start" x="145.5" y="-193" font-family="Helvetica,sans-Serif" font-size="10.00">aligned_vector&lt; se3</text>
<text text-anchor="middle" x="189.5" y="-182" font-family="Helvetica,sans-Serif" font-size="10.00">::MotionTpl &gt;</text>
</a>
</g>
</g>
<!-- Node1&#45;&gt;Node13 -->
<g id="edge12" class="edge"><title>Node1&#45;&gt;Node13</title>
<path fill="none" stroke="midnightblue" d="M38.9657,-340.999C46.2484,-309.542 64.7522,-248.631 104,-215 113.41,-206.937 125.325,-201.473 137.217,-197.772"/>
<polygon fill="midnightblue" stroke="midnightblue" points="35.4631,-340.638 36.7726,-351.151 42.3053,-342.116 35.4631,-340.638"/>
</g>
<!-- Node14 -->
<g id="node14" class="node"><title>Node14</title>
<g id="a_node14"><a xlink:href="classse3_1_1container_1_1aligned__vector.html" target="_top" xlink:title="aligned_vector\&lt; se3\l::se3::SE3Tpl \&gt;">
<polygon fill="white" stroke="black" points="137.5,-126 137.5,-156 241.5,-156 241.5,-126 137.5,-126"/>
<text text-anchor="start" x="145.5" y="-144" font-family="Helvetica,sans-Serif" font-size="10.00">aligned_vector&lt; se3</text>
<text text-anchor="middle" x="189.5" y="-133" font-family="Helvetica,sans-Serif" font-size="10.00">::se3::SE3Tpl &gt;</text>
</a>
</g>
</g>
<!-- Node1&#45;&gt;Node14 -->
<g id="edge13" class="edge"><title>Node1&#45;&gt;Node14</title>
<path fill="none" stroke="midnightblue" d="M36.2458,-341.135C39.7882,-301.909 53.2615,-214.145 104,-166 113.1,-157.365 125.04,-151.697 137.067,-147.981"/>
<polygon fill="midnightblue" stroke="midnightblue" points="32.7453,-341.007 35.4608,-351.248 39.7243,-341.548 32.7453,-341.007"/>
</g>
<!-- Node15 -->
<g id="node15" class="node"><title>Node15</title>
<g id="a_node15"><a xlink:href="classse3_1_1container_1_1aligned__vector.html" target="_top" xlink:title="aligned_vector\&lt; se3\l::SE3Tpl \&gt;">
<polygon fill="white" stroke="black" points="137.5,-77 137.5,-107 241.5,-107 241.5,-77 137.5,-77"/>
<text text-anchor="start" x="145.5" y="-95" font-family="Helvetica,sans-Serif" font-size="10.00">aligned_vector&lt; se3</text>
<text text-anchor="middle" x="189.5" y="-84" font-family="Helvetica,sans-Serif" font-size="10.00">::SE3Tpl &gt;</text>
</a>
</g>
</g>
<!-- Node1&#45;&gt;Node15 -->
<g id="edge14" class="edge"><title>Node1&#45;&gt;Node15</title>
<path fill="none" stroke="midnightblue" d="M34.5727,-341.379C34.6798,-295.481 41.5347,-180.223 104,-117 112.924,-107.967 124.944,-102.164 137.115,-98.4449"/>
<polygon fill="midnightblue" stroke="midnightblue" points="31.0736,-341.511 34.6611,-351.48 38.0734,-341.45 31.0736,-341.511"/>
</g>
<!-- Node16 -->
<g id="node16" class="node"><title>Node16</title>
<g id="a_node16"><a xlink:href="classse3_1_1container_1_1aligned__vector.html" target="_top" xlink:title="aligned_vector\&lt; Transformation_t \&gt;">
<polygon fill="white" stroke="black" points="104,-38.5 104,-57.5 275,-57.5 275,-38.5 104,-38.5"/>
<text text-anchor="middle" x="189.5" y="-45.5" font-family="Helvetica,sans-Serif" font-size="10.00">aligned_vector&lt; Transformation_t &gt;</text>
</a>
</g>
</g>
<!-- Node1&#45;&gt;Node16 -->
<g id="edge15" class="edge"><title>Node1&#45;&gt;Node16</title>
<path fill="none" stroke="midnightblue" d="M36.998,-340.983C43.3445,-281.429 64.9615,-107.083 104,-68 108.262,-63.7336 113.254,-60.3122 118.646,-57.5758"/>
<polygon fill="midnightblue" stroke="midnightblue" points="33.4795,-340.982 35.9317,-351.289 40.4423,-341.703 33.4795,-340.982"/>
</g>
<!-- Node17 -->
<g id="node17" class="node"><title>Node17</title>
<g id="a_node17"><a xlink:href="classse3_1_1container_1_1aligned__vector.html" target="_top" xlink:title="Specialization of an std::vector with an aligned allocator. This specialization might be used when th...">
<polygon fill="white" stroke="black" points="137.5,-0.5 137.5,-19.5 241.5,-19.5 241.5,-0.5 137.5,-0.5"/>
<text text-anchor="middle" x="189.5" y="-7.5" font-family="Helvetica,sans-Serif" font-size="10.00">aligned_vector&lt; T &gt;</text>
</a>
</g>
</g>
<!-- Node1&#45;&gt;Node17 -->
<g id="edge16" class="edge"><title>Node1&#45;&gt;Node17</title>
<path fill="none" stroke="midnightblue" d="M36.3532,-341.306C41.1812,-276.892 59.6951,-74.0312 104,-29 112.858,-19.9965 125.001,-14.8559 137.319,-12.0125"/>
<polygon fill="midnightblue" stroke="midnightblue" points="32.8575,-341.121 35.6289,-351.347 39.8394,-341.624 32.8575,-341.121"/>
</g>
</g>
</svg>
