<?xml version="1.0" encoding="UTF-8" standalone="no"?>
<!DOCTYPE svg PUBLIC "-//W3C//DTD SVG 1.1//EN"
 "http://www.w3.org/Graphics/SVG/1.1/DTD/svg11.dtd">
<!-- Generated by graphviz version 2.38.0 (20140413.2041)
 -->
<!-- Title: Graphical Class Hierarchy Pages: 1 -->
<svg width="283pt" height="312pt"
 viewBox="0.00 0.00 283.00 311.50" xmlns="http://www.w3.org/2000/svg" xmlns:xlink="http://www.w3.org/1999/xlink">
<g id="graph0" class="graph" transform="scale(1 1) rotate(0) translate(4 307.5)">
<title>Graphical Class Hierarchy</title>
<polygon fill="white" stroke="none" points="-4,4 -4,-307.5 279,-307.5 279,4 -4,4"/>
<!-- Node1 -->
<g id="node1" class="node"><title>Node1</title>
<g id="a_node1"><a xlink:title="STL class. ">
<polygon fill="white" stroke="#bfbfbf" points="0,-131.5 0,-150.5 68,-150.5 68,-131.5 0,-131.5"/>
<text text-anchor="middle" x="34" y="-138.5" font-family="Helvetica,sans-Serif" font-size="10.00">vector&lt; T &gt;</text>
</a>
</g>
</g>
<!-- Node2 -->
<g id="node2" class="node"><title>Node2</title>
<g id="a_node2"><a xlink:href="structse3_1_1container_1_1aligned__vector.html" target="_top" xlink:title="aligned_vector\&lt; JointData\lVariant \&gt;">
<polygon fill="white" stroke="black" points="124,-273 124,-303 255,-303 255,-273 124,-273"/>
<text text-anchor="start" x="132" y="-291" font-family="Helvetica,sans-Serif" font-size="10.00">aligned_vector&lt; JointData</text>
<text text-anchor="middle" x="189.5" y="-280" font-family="Helvetica,sans-Serif" font-size="10.00">Variant &gt;</text>
</a>
</g>
</g>
<!-- Node1&#45;&gt;Node2 -->
<g id="edge1" class="edge"><title>Node1&#45;&gt;Node2</title>
<path fill="none" stroke="midnightblue" d="M40.6031,-160.224C49.5225,-187.414 69.5561,-236.815 104,-264 109.866,-268.63 116.582,-272.366 123.608,-275.382"/>
<polygon fill="midnightblue" stroke="midnightblue" points="43.9445,-159.182 37.6309,-150.674 37.2607,-161.262 43.9445,-159.182"/>
</g>
<!-- Node3 -->
<g id="node3" class="node"><title>Node3</title>
<g id="a_node3"><a xlink:href="structse3_1_1container_1_1aligned__vector.html" target="_top" xlink:title="aligned_vector\&lt; JointModel\lVariant \&gt;">
<polygon fill="white" stroke="black" points="121.5,-224 121.5,-254 257.5,-254 257.5,-224 121.5,-224"/>
<text text-anchor="start" x="129.5" y="-242" font-family="Helvetica,sans-Serif" font-size="10.00">aligned_vector&lt; JointModel</text>
<text text-anchor="middle" x="189.5" y="-231" font-family="Helvetica,sans-Serif" font-size="10.00">Variant &gt;</text>
</a>
</g>
</g>
<!-- Node1&#45;&gt;Node3 -->
<g id="edge2" class="edge"><title>Node1&#45;&gt;Node3</title>
<path fill="none" stroke="midnightblue" d="M47.4331,-159.209C59.8641,-176.065 80.4774,-200.625 104,-215 109.596,-218.419 115.695,-221.367 121.972,-223.906"/>
<polygon fill="midnightblue" stroke="midnightblue" points="50.0578,-156.862 41.4024,-150.751 44.3583,-160.925 50.0578,-156.862"/>
</g>
<!-- Node4 -->
<g id="node4" class="node"><title>Node4</title>
<g id="a_node4"><a xlink:href="structse3_1_1container_1_1aligned__vector.html" target="_top" xlink:title="aligned_vector\&lt; se3\l::GeometryObject \&gt;">
<polygon fill="white" stroke="black" points="137.5,-175 137.5,-205 241.5,-205 241.5,-175 137.5,-175"/>
<text text-anchor="start" x="145.5" y="-193" font-family="Helvetica,sans-Serif" font-size="10.00">aligned_vector&lt; se3</text>
<text text-anchor="middle" x="189.5" y="-182" font-family="Helvetica,sans-Serif" font-size="10.00">::GeometryObject &gt;</text>
</a>
</g>
</g>
<!-- Node1&#45;&gt;Node4 -->
<g id="edge3" class="edge"><title>Node1&#45;&gt;Node4</title>
<path fill="none" stroke="midnightblue" d="M69.7097,-154.119C80.6279,-158.1 92.7669,-162.375 104,-166 114.74,-169.466 126.331,-172.934 137.385,-176.112"/>
<polygon fill="midnightblue" stroke="midnightblue" points="70.6804,-150.747 60.087,-150.574 68.2605,-157.315 70.6804,-150.747"/>
</g>
<!-- Node5 -->
<g id="node5" class="node"><title>Node5</title>
<g id="a_node5"><a xlink:href="structse3_1_1container_1_1aligned__vector.html" target="_top" xlink:title="aligned_vector\&lt; se3\l::se3::SE3Tpl \&gt;">
<polygon fill="white" stroke="black" points="137.5,-126 137.5,-156 241.5,-156 241.5,-126 137.5,-126"/>
<text text-anchor="start" x="145.5" y="-144" font-family="Helvetica,sans-Serif" font-size="10.00">aligned_vector&lt; se3</text>
<text text-anchor="middle" x="189.5" y="-133" font-family="Helvetica,sans-Serif" font-size="10.00">::se3::SE3Tpl &gt;</text>
</a>
</g>
</g>
<!-- Node1&#45;&gt;Node5 -->
<g id="edge4" class="edge"><title>Node1&#45;&gt;Node5</title>
<path fill="none" stroke="midnightblue" d="M78.4306,-141C96.7956,-141 118.319,-141 137.438,-141"/>
<polygon fill="midnightblue" stroke="midnightblue" points="78.3072,-137.5 68.3072,-141 78.3072,-144.5 78.3072,-137.5"/>
</g>
<!-- Node6 -->
<g id="node6" class="node"><title>Node6</title>
<g id="a_node6"><a xlink:href="structse3_1_1container_1_1aligned__vector.html" target="_top" xlink:title="aligned_vector\&lt; se3\l::SE3Tpl \&gt;">
<polygon fill="white" stroke="black" points="137.5,-77 137.5,-107 241.5,-107 241.5,-77 137.5,-77"/>
<text text-anchor="start" x="145.5" y="-95" font-family="Helvetica,sans-Serif" font-size="10.00">aligned_vector&lt; se3</text>
<text text-anchor="middle" x="189.5" y="-84" font-family="Helvetica,sans-Serif" font-size="10.00">::SE3Tpl &gt;</text>
</a>
</g>
</g>
<!-- Node1&#45;&gt;Node6 -->
<g id="edge5" class="edge"><title>Node1&#45;&gt;Node6</title>
<path fill="none" stroke="midnightblue" d="M71.1808,-128.056C81.7281,-124.38 93.2948,-120.443 104,-117 114.777,-113.534 126.385,-109.982 137.441,-106.685"/>
<polygon fill="midnightblue" stroke="midnightblue" points="69.7179,-124.86 61.4422,-131.476 72.037,-131.465 69.7179,-124.86"/>
</g>
<!-- Node7 -->
<g id="node7" class="node"><title>Node7</title>
<g id="a_node7"><a xlink:href="structse3_1_1container_1_1aligned__vector.html" target="_top" xlink:title="aligned_vector\&lt; Transformation_t \&gt;">
<polygon fill="white" stroke="black" points="104,-38.5 104,-57.5 275,-57.5 275,-38.5 104,-38.5"/>
<text text-anchor="middle" x="189.5" y="-45.5" font-family="Helvetica,sans-Serif" font-size="10.00">aligned_vector&lt; Transformation_t &gt;</text>
</a>
</g>
</g>
<!-- Node1&#45;&gt;Node7 -->
<g id="edge6" class="edge"><title>Node1&#45;&gt;Node7</title>
<path fill="none" stroke="midnightblue" d="M47.1501,-123.078C59.4978,-106.276 80.1624,-81.7431 104,-68 111.575,-63.6328 120.055,-60.2178 128.641,-57.5478"/>
<polygon fill="midnightblue" stroke="midnightblue" points="44.1078,-121.317 41.1785,-131.499 49.818,-125.366 44.1078,-121.317"/>
</g>
<!-- Node8 -->
<g id="node8" class="node"><title>Node8</title>
<g id="a_node8"><a xlink:href="structse3_1_1container_1_1aligned__vector.html" target="_top" xlink:title="Specialization of an std::vector with an aligned allocator. This specialization might be used when th...">
<polygon fill="white" stroke="black" points="137.5,-0.5 137.5,-19.5 241.5,-19.5 241.5,-0.5 137.5,-0.5"/>
<text text-anchor="middle" x="189.5" y="-7.5" font-family="Helvetica,sans-Serif" font-size="10.00">aligned_vector&lt; T &gt;</text>
</a>
</g>
</g>
<!-- Node1&#45;&gt;Node8 -->
<g id="edge7" class="edge"><title>Node1&#45;&gt;Node8</title>
<path fill="none" stroke="midnightblue" d="M41.4389,-121.811C50.9679,-96.4697 71.307,-52.3353 104,-29 113.791,-22.0115 125.714,-17.5354 137.482,-14.6839"/>
<polygon fill="midnightblue" stroke="midnightblue" points="38.0796,-120.811 38.0123,-131.405 44.6718,-123.165 38.0796,-120.811"/>
</g>
</g>
</svg>
