<?xml version="1.0" encoding="UTF-8" standalone="no"?>
<!DOCTYPE svg PUBLIC "-//W3C//DTD SVG 1.1//EN"
 "http://www.w3.org/Graphics/SVG/1.1/DTD/svg11.dtd">
<!-- Generated by graphviz version 2.38.0 (20140413.2041)
 -->
<!-- Title: Graphical Class Hierarchy Pages: 1 -->
<svg width="353pt" height="50pt"
 viewBox="0.00 0.00 353.00 50.00" xmlns="http://www.w3.org/2000/svg" xmlns:xlink="http://www.w3.org/1999/xlink">
<g id="graph0" class="graph" transform="scale(1 1) rotate(0) translate(4 46)">
<title>Graphical Class Hierarchy</title>
<polygon fill="white" stroke="none" points="-4,4 -4,-46 349,-46 349,4 -4,4"/>
<!-- Node1 -->
<g id="node1" class="node"><title>Node1</title>
<g id="a_node1"><a xlink:href="structse3_1_1ActuatorModelBase.html" target="_top" xlink:title="ActuatorModelBase\&lt;\l PneumaticTwoChambersModel\l\&lt; Scalar_ \&gt; \&gt;">
<polygon fill="white" stroke="black" points="0,-0.5 0,-41.5 156,-41.5 156,-0.5 0,-0.5"/>
<text text-anchor="start" x="8" y="-29.5" font-family="Helvetica,sans-Serif" font-size="10.00">ActuatorModelBase&lt;</text>
<text text-anchor="start" x="8" y="-18.5" font-family="Helvetica,sans-Serif" font-size="10.00"> PneumaticTwoChambersModel</text>
<text text-anchor="middle" x="78" y="-7.5" font-family="Helvetica,sans-Serif" font-size="10.00">&lt; Scalar_ &gt; &gt;</text>
</a>
</g>
</g>
<!-- Node2 -->
<g id="node2" class="node"><title>Node2</title>
<g id="a_node2"><a xlink:href="classse3_1_1PneumaticTwoChambersModel.html" target="_top" xlink:title="Template which implements a second order linear DC motor model. ">
<polygon fill="white" stroke="black" points="192,-6 192,-36 345,-36 345,-6 192,-6"/>
<text text-anchor="start" x="200" y="-24" font-family="Helvetica,sans-Serif" font-size="10.00">PneumaticTwoChambersModel</text>
<text text-anchor="middle" x="268.5" y="-13" font-family="Helvetica,sans-Serif" font-size="10.00">&lt; Scalar_ &gt;</text>
</a>
</g>
</g>
<!-- Node1&#45;&gt;Node2 -->
<g id="edge1" class="edge"><title>Node1&#45;&gt;Node2</title>
<path fill="none" stroke="#8b1a1a" d="M166.236,-21C174.818,-21 183.477,-21 191.929,-21"/>
<polygon fill="#8b1a1a" stroke="#8b1a1a" points="166.214,-17.5001 156.214,-21 166.214,-24.5001 166.214,-17.5001"/>
</g>
</g>
</svg>
