<?xml version="1.0" encoding="UTF-8" standalone="no"?>
<!DOCTYPE svg PUBLIC "-//W3C//DTD SVG 1.1//EN"
 "http://www.w3.org/Graphics/SVG/1.1/DTD/svg11.dtd">
<!-- Generated by graphviz version 2.38.0 (20140413.2041)
 -->
<!-- Title: ParseRootTreeVisitor Pages: 1 -->
<svg width="922pt" height="412pt"
 viewBox="0.00 0.00 922.00 411.50" xmlns="http://www.w3.org/2000/svg" xmlns:xlink="http://www.w3.org/1999/xlink">
<g id="graph0" class="graph" transform="scale(1 1) rotate(0) translate(4 407.5)">
<title>ParseRootTreeVisitor</title>
<polygon fill="white" stroke="none" points="-4,4 -4,-407.5 918,-407.5 918,4 -4,4"/>
<!-- Node1 -->
<g id="node1" class="node"><title>Node1</title>
<polygon fill="#bfbfbf" stroke="black" points="804,-200.5 804,-219.5 914,-219.5 914,-200.5 804,-200.5"/>
<text text-anchor="middle" x="859" y="-207.5" font-family="Helvetica,sans-Serif" font-size="10.00">ParseRootTreeVisitor</text>
</g>
<!-- Node2 -->
<g id="node2" class="node"><title>Node2</title>
<polygon fill="white" stroke="#bfbfbf" points="641,-216.5 641,-235.5 725,-235.5 725,-216.5 641,-216.5"/>
<text text-anchor="middle" x="683" y="-223.5" font-family="Helvetica,sans-Serif" font-size="10.00">static_visitor&lt;&gt;</text>
</g>
<!-- Node2&#45;&gt;Node1 -->
<g id="edge1" class="edge"><title>Node2&#45;&gt;Node1</title>
<path fill="none" stroke="midnightblue" d="M735.203,-221.292C756.805,-219.305 781.974,-216.991 803.881,-214.977"/>
<polygon fill="midnightblue" stroke="midnightblue" points="734.873,-217.807 725.236,-222.208 735.514,-224.778 734.873,-217.807"/>
</g>
<!-- Node3 -->
<g id="node3" class="node"><title>Node3</title>
<g id="a_node3"><a xlink:href="structse3_1_1Model.html" target="_top" xlink:title="Model">
<polygon fill="white" stroke="black" points="661.5,-178.5 661.5,-197.5 704.5,-197.5 704.5,-178.5 661.5,-178.5"/>
<text text-anchor="middle" x="683" y="-185.5" font-family="Helvetica,sans-Serif" font-size="10.00">Model</text>
</a>
</g>
</g>
<!-- Node3&#45;&gt;Node1 -->
<g id="edge2" class="edge"><title>Node3&#45;&gt;Node1</title>
<path fill="none" stroke="#9a32cd" stroke-dasharray="5,2" d="M714.838,-191.899C739.474,-195.014 774.602,-199.455 803.895,-203.159"/>
<polygon fill="#9a32cd" stroke="#9a32cd" points="715.003,-188.392 704.643,-190.61 714.125,-195.337 715.003,-188.392"/>
<text text-anchor="middle" x="764.5" y="-204" font-family="Helvetica,sans-Serif" font-size="10.00"> m_model</text>
</g>
<!-- Node4 -->
<g id="node4" class="node"><title>Node4</title>
<g id="a_node4"><a xlink:href="classse3_1_1MotionTpl.html" target="_top" xlink:title="MotionTpl\&lt; double, 0 \&gt;">
<polygon fill="white" stroke="black" points="401,-369.5 401,-388.5 518,-388.5 518,-369.5 401,-369.5"/>
<text text-anchor="middle" x="459.5" y="-376.5" font-family="Helvetica,sans-Serif" font-size="10.00">MotionTpl&lt; double, 0 &gt;</text>
</a>
</g>
</g>
<!-- Node4&#45;&gt;Node3 -->
<g id="edge3" class="edge"><title>Node4&#45;&gt;Node3</title>
<path fill="none" stroke="#9a32cd" stroke-dasharray="5,2" d="M528.284,-374.233C561.627,-368.268 599.584,-355.398 623,-328 658.324,-286.668 608.432,-250.536 641,-207 645.981,-200.341 653.867,-195.939 661.397,-193.067"/>
<polygon fill="#9a32cd" stroke="#9a32cd" points="527.423,-370.827 518.106,-375.871 528.535,-377.738 527.423,-370.827"/>
<text text-anchor="middle" x="586.5" y="-371" font-family="Helvetica,sans-Serif" font-size="10.00"> gravity</text>
</g>
<!-- Node5 -->
<g id="node5" class="node"><title>Node5</title>
<g id="a_node5"><a xlink:href="classse3_1_1MotionBase.html" target="_top" xlink:title="MotionBase\&lt; MotionTpl\l\&lt; double, _Options \&gt; \&gt;">
<polygon fill="white" stroke="black" points="186.5,-373 186.5,-403 306.5,-403 306.5,-373 186.5,-373"/>
<text text-anchor="start" x="194.5" y="-391" font-family="Helvetica,sans-Serif" font-size="10.00">MotionBase&lt; MotionTpl</text>
<text text-anchor="middle" x="246.5" y="-380" font-family="Helvetica,sans-Serif" font-size="10.00">&lt; double, _Options &gt; &gt;</text>
</a>
</g>
</g>
<!-- Node5&#45;&gt;Node4 -->
<g id="edge4" class="edge"><title>Node5&#45;&gt;Node4</title>
<path fill="none" stroke="midnightblue" d="M316.798,-385.044C344.035,-383.882 374.937,-382.564 400.916,-381.456"/>
<polygon fill="midnightblue" stroke="midnightblue" points="316.398,-381.558 306.556,-385.481 316.696,-388.552 316.398,-381.558"/>
</g>
<!-- Node6 -->
<g id="node6" class="node"><title>Node6</title>
<g id="a_node6"><a xlink:href="classse3_1_1container_1_1aligned__vector.html" target="_top" xlink:title="aligned_vector\&lt; se3\l::SE3Tpl \&gt;">
<polygon fill="white" stroke="black" points="407.5,-307 407.5,-337 511.5,-337 511.5,-307 407.5,-307"/>
<text text-anchor="start" x="415.5" y="-325" font-family="Helvetica,sans-Serif" font-size="10.00">aligned_vector&lt; se3</text>
<text text-anchor="middle" x="459.5" y="-314" font-family="Helvetica,sans-Serif" font-size="10.00">::SE3Tpl &gt;</text>
</a>
</g>
</g>
<!-- Node6&#45;&gt;Node3 -->
<g id="edge5" class="edge"><title>Node6&#45;&gt;Node3</title>
<path fill="none" stroke="#9a32cd" stroke-dasharray="5,2" d="M521.876,-319.579C555.977,-315.03 596.702,-303.788 623,-277 645.504,-254.077 620.447,-231.687 641,-207 646.22,-200.73 653.966,-196.418 661.323,-193.509"/>
<polygon fill="#9a32cd" stroke="#9a32cd" points="521.056,-316.151 511.529,-320.786 521.867,-323.104 521.056,-316.151"/>
<text text-anchor="middle" x="586.5" y="-316" font-family="Helvetica,sans-Serif" font-size="10.00"> jointPlacements</text>
</g>
<!-- Node7 -->
<g id="node7" class="node"><title>Node7</title>
<g id="a_node7"><a xlink:title="STL class. ">
<polygon fill="white" stroke="#bfbfbf" points="185,-313.5 185,-354.5 308,-354.5 308,-313.5 185,-313.5"/>
<text text-anchor="start" x="193" y="-342.5" font-family="Helvetica,sans-Serif" font-size="10.00">vector&lt; se3::SE3Tpl,</text>
<text text-anchor="start" x="193" y="-331.5" font-family="Helvetica,sans-Serif" font-size="10.00"> Eigen::aligned_allocator</text>
<text text-anchor="middle" x="246.5" y="-320.5" font-family="Helvetica,sans-Serif" font-size="10.00">&lt; se3::SE3Tpl &gt; &gt;</text>
</a>
</g>
</g>
<!-- Node7&#45;&gt;Node6 -->
<g id="edge6" class="edge"><title>Node7&#45;&gt;Node6</title>
<path fill="none" stroke="midnightblue" d="M318.385,-329.969C347.564,-328.309 380.716,-326.424 407.445,-324.904"/>
<polygon fill="midnightblue" stroke="midnightblue" points="318.032,-326.483 308.247,-330.545 318.429,-333.472 318.032,-326.483"/>
</g>
<!-- Node8 -->
<g id="node8" class="node"><title>Node8</title>
<polygon fill="white" stroke="#bfbfbf" points="38.5,-215.5 38.5,-234.5 67.5,-234.5 67.5,-215.5 38.5,-215.5"/>
<text text-anchor="middle" x="53" y="-222.5" font-family="Helvetica,sans-Serif" font-size="10.00">T</text>
</g>
<!-- Node8&#45;&gt;Node7 -->
<g id="edge7" class="edge"><title>Node8&#45;&gt;Node7</title>
<path fill="none" stroke="#9a32cd" stroke-dasharray="5,2" d="M76.5158,-239.562C102.289,-255.999 145.985,-283.159 185,-304 190.791,-307.093 196.943,-310.269 203.022,-313.343"/>
<polygon fill="#9a32cd" stroke="#9a32cd" points="78.181,-236.472 67.873,-234.024 74.404,-242.366 78.181,-236.472"/>
<text text-anchor="middle" x="145.5" y="-297" font-family="Helvetica,sans-Serif" font-size="10.00"> elements</text>
</g>
<!-- Node12 -->
<g id="node12" class="node"><title>Node12</title>
<g id="a_node12"><a xlink:title="STL class. ">
<polygon fill="white" stroke="#bfbfbf" points="185,-253.5 185,-294.5 308,-294.5 308,-253.5 185,-253.5"/>
<text text-anchor="start" x="193" y="-282.5" font-family="Helvetica,sans-Serif" font-size="10.00">vector&lt; JointModel,</text>
<text text-anchor="start" x="193" y="-271.5" font-family="Helvetica,sans-Serif" font-size="10.00"> Eigen::aligned_allocator</text>
<text text-anchor="middle" x="246.5" y="-260.5" font-family="Helvetica,sans-Serif" font-size="10.00">&lt; JointModel &gt; &gt;</text>
</a>
</g>
</g>
<!-- Node8&#45;&gt;Node12 -->
<g id="edge12" class="edge"><title>Node8&#45;&gt;Node12</title>
<path fill="none" stroke="#9a32cd" stroke-dasharray="5,2" d="M77.6914,-231.062C104.271,-237.863 148.423,-249.161 184.768,-258.46"/>
<polygon fill="#9a32cd" stroke="#9a32cd" points="78.3277,-227.612 67.7722,-228.524 76.5925,-234.394 78.3277,-227.612"/>
<text text-anchor="middle" x="145.5" y="-257" font-family="Helvetica,sans-Serif" font-size="10.00"> elements</text>
</g>
<!-- Node16 -->
<g id="node16" class="node"><title>Node16</title>
<g id="a_node16"><a xlink:title="STL class. ">
<polygon fill="white" stroke="#bfbfbf" points="212.5,-215.5 212.5,-234.5 280.5,-234.5 280.5,-215.5 212.5,-215.5"/>
<text text-anchor="middle" x="246.5" y="-222.5" font-family="Helvetica,sans-Serif" font-size="10.00">vector&lt; T &gt;</text>
</a>
</g>
</g>
<!-- Node8&#45;&gt;Node16 -->
<g id="edge18" class="edge"><title>Node8&#45;&gt;Node16</title>
<path fill="none" stroke="#9a32cd" stroke-dasharray="5,2" d="M78.143,-225C112.116,-225 174.143,-225 212.396,-225"/>
<polygon fill="#9a32cd" stroke="#9a32cd" points="77.7722,-221.5 67.7722,-225 77.7722,-228.5 77.7722,-221.5"/>
<text text-anchor="middle" x="145.5" y="-228" font-family="Helvetica,sans-Serif" font-size="10.00"> elements</text>
</g>
<!-- Node18 -->
<g id="node18" class="node"><title>Node18</title>
<g id="a_node18"><a xlink:title="STL class. ">
<polygon fill="white" stroke="#bfbfbf" points="185,-155.5 185,-196.5 308,-196.5 308,-155.5 185,-155.5"/>
<text text-anchor="start" x="193" y="-184.5" font-family="Helvetica,sans-Serif" font-size="10.00">vector&lt; se3::FrameTpl,</text>
<text text-anchor="start" x="193" y="-173.5" font-family="Helvetica,sans-Serif" font-size="10.00"> Eigen::aligned_allocator</text>
<text text-anchor="middle" x="246.5" y="-162.5" font-family="Helvetica,sans-Serif" font-size="10.00">&lt; se3::FrameTpl &gt; &gt;</text>
</a>
</g>
</g>
<!-- Node8&#45;&gt;Node18 -->
<g id="edge21" class="edge"><title>Node8&#45;&gt;Node18</title>
<path fill="none" stroke="#9a32cd" stroke-dasharray="5,2" d="M77.6914,-218.938C104.271,-212.137 148.423,-200.839 184.768,-191.54"/>
<polygon fill="#9a32cd" stroke="#9a32cd" points="76.5925,-215.606 67.7722,-221.476 78.3277,-222.388 76.5925,-215.606"/>
<text text-anchor="middle" x="145.5" y="-210" font-family="Helvetica,sans-Serif" font-size="10.00"> elements</text>
</g>
<!-- Node20 -->
<g id="node20" class="node"><title>Node20</title>
<g id="a_node20"><a xlink:title="STL class. ">
<polygon fill="white" stroke="#bfbfbf" points="185,-95.5 185,-136.5 308,-136.5 308,-95.5 185,-95.5"/>
<text text-anchor="start" x="193" y="-124.5" font-family="Helvetica,sans-Serif" font-size="10.00">vector&lt; se3::InertiaTpl,</text>
<text text-anchor="start" x="193" y="-113.5" font-family="Helvetica,sans-Serif" font-size="10.00"> Eigen::aligned_allocator</text>
<text text-anchor="middle" x="246.5" y="-102.5" font-family="Helvetica,sans-Serif" font-size="10.00">&lt; se3::InertiaTpl &gt; &gt;</text>
</a>
</g>
</g>
<!-- Node8&#45;&gt;Node20 -->
<g id="edge24" class="edge"><title>Node8&#45;&gt;Node20</title>
<path fill="none" stroke="#9a32cd" stroke-dasharray="5,2" d="M76.1501,-210.787C101.911,-194.458 145.906,-167.192 185,-146 190.772,-142.871 196.914,-139.676 202.987,-136.592"/>
<polygon fill="#9a32cd" stroke="#9a32cd" points="74.0833,-207.953 67.5271,-216.276 77.8424,-213.858 74.0833,-207.953"/>
<text text-anchor="middle" x="145.5" y="-183" font-family="Helvetica,sans-Serif" font-size="10.00"> elements</text>
</g>
<!-- Node9 -->
<g id="node9" class="node"><title>Node9</title>
<g id="a_node9"><a xlink:title="STL class. ">
<polygon fill="white" stroke="#bfbfbf" points="226,-52.5 226,-71.5 267,-71.5 267,-52.5 226,-52.5"/>
<text text-anchor="middle" x="246.5" y="-59.5" font-family="Helvetica,sans-Serif" font-size="10.00">string</text>
</a>
</g>
</g>
<!-- Node9&#45;&gt;Node3 -->
<g id="edge8" class="edge"><title>Node9&#45;&gt;Node3</title>
<path fill="none" stroke="#9a32cd" stroke-dasharray="5,2" d="M277.413,-66.0108C348.014,-75.5179 520.004,-98.9315 532,-103 586.708,-121.554 644.183,-160.444 669.158,-178.461"/>
<polygon fill="#9a32cd" stroke="#9a32cd" points="277.754,-62.5253 267.377,-64.6612 276.821,-69.4629 277.754,-62.5253"/>
<text text-anchor="middle" x="459.5" y="-106" font-family="Helvetica,sans-Serif" font-size="10.00"> name</text>
</g>
<!-- Node14 -->
<g id="node14" class="node"><title>Node14</title>
<polygon fill="white" stroke="#bfbfbf" points="407,-38.5 407,-57.5 512,-57.5 512,-38.5 407,-38.5"/>
<text text-anchor="middle" x="459.5" y="-45.5" font-family="Helvetica,sans-Serif" font-size="10.00">vector&lt; std::string &gt;</text>
</g>
<!-- Node9&#45;&gt;Node14 -->
<g id="edge15" class="edge"><title>Node9&#45;&gt;Node14</title>
<path fill="none" stroke="#9a32cd" stroke-dasharray="5,2" d="M277.453,-60.0126C311.035,-57.7844 366.096,-54.1311 406.694,-51.4374"/>
<polygon fill="#9a32cd" stroke="#9a32cd" points="277.097,-56.5284 267.35,-60.6829 277.56,-63.5131 277.097,-56.5284"/>
<text text-anchor="middle" x="347.5" y="-60" font-family="Helvetica,sans-Serif" font-size="10.00"> elements</text>
</g>
<!-- Node10 -->
<g id="node10" class="node"><title>Node10</title>
<g id="a_node10"><a xlink:title="STL class. ">
<polygon fill="white" stroke="#bfbfbf" points="0,-52.5 0,-71.5 106,-71.5 106,-52.5 0,-52.5"/>
<text text-anchor="middle" x="53" y="-59.5" font-family="Helvetica,sans-Serif" font-size="10.00">basic_string&lt; char &gt;</text>
</a>
</g>
</g>
<!-- Node10&#45;&gt;Node9 -->
<g id="edge9" class="edge"><title>Node10&#45;&gt;Node9</title>
<path fill="none" stroke="midnightblue" d="M116.496,-62C154.265,-62 199.917,-62 225.538,-62"/>
<polygon fill="midnightblue" stroke="midnightblue" points="116.075,-58.5001 106.075,-62 116.075,-65.5001 116.075,-58.5001"/>
</g>
<!-- Node11 -->
<g id="node11" class="node"><title>Node11</title>
<g id="a_node11"><a xlink:href="classse3_1_1container_1_1aligned__vector.html" target="_top" xlink:title="aligned_vector\&lt; JointModel \&gt;">
<polygon fill="white" stroke="black" points="387,-262.5 387,-281.5 532,-281.5 532,-262.5 387,-262.5"/>
<text text-anchor="middle" x="459.5" y="-269.5" font-family="Helvetica,sans-Serif" font-size="10.00">aligned_vector&lt; JointModel &gt;</text>
</a>
</g>
</g>
<!-- Node11&#45;&gt;Node3 -->
<g id="edge10" class="edge"><title>Node11&#45;&gt;Node3</title>
<path fill="none" stroke="#9a32cd" stroke-dasharray="5,2" d="M542.112,-263.461C569.547,-257.702 599.198,-248.077 623,-232 634.346,-224.336 630.444,-215.719 641,-207 646.928,-202.104 654.325,-198.172 661.199,-195.184"/>
<polygon fill="#9a32cd" stroke="#9a32cd" points="541.264,-260.06 532.12,-265.413 542.606,-266.931 541.264,-260.06"/>
<text text-anchor="middle" x="586.5" y="-265" font-family="Helvetica,sans-Serif" font-size="10.00"> joints</text>
</g>
<!-- Node12&#45;&gt;Node11 -->
<g id="edge11" class="edge"><title>Node12&#45;&gt;Node11</title>
<path fill="none" stroke="midnightblue" d="M318.487,-273.327C340.432,-273.119 364.617,-272.89 386.622,-272.681"/>
<polygon fill="midnightblue" stroke="midnightblue" points="318.213,-269.829 308.247,-273.424 318.28,-276.829 318.213,-269.829"/>
</g>
<!-- Node13 -->
<g id="node13" class="node"><title>Node13</title>
<polygon fill="white" stroke="#bfbfbf" points="406,-0.5 406,-19.5 513,-19.5 513,-0.5 406,-0.5"/>
<text text-anchor="middle" x="459.5" y="-7.5" font-family="Helvetica,sans-Serif" font-size="10.00">vector&lt; JointIndex &gt;</text>
</g>
<!-- Node13&#45;&gt;Node3 -->
<g id="edge13" class="edge"><title>Node13&#45;&gt;Node3</title>
<path fill="none" stroke="#9a32cd" stroke-dasharray="5,2" d="M523.787,-3.0541C556.576,-2.8278 595.412,-8.2361 623,-30 671.275,-68.0845 680.051,-150.007 681.646,-178.218"/>
<polygon fill="#9a32cd" stroke="#9a32cd" points="523.286,0.434661 513.376,-3.31197 523.46,-6.56319 523.286,0.434661"/>
<text text-anchor="middle" x="586.5" y="-33" font-family="Helvetica,sans-Serif" font-size="10.00"> parents</text>
</g>
<!-- Node14&#45;&gt;Node3 -->
<g id="edge14" class="edge"><title>Node14&#45;&gt;Node3</title>
<path fill="none" stroke="#9a32cd" stroke-dasharray="5,2" d="M522.594,-42.6555C555.213,-42.9452 594.265,-48.5068 623,-69 661.112,-96.1804 675.88,-155.082 680.361,-178.305"/>
<polygon fill="#9a32cd" stroke="#9a32cd" points="522.224,-39.1581 512.251,-42.7344 522.278,-46.1579 522.224,-39.1581"/>
<text text-anchor="middle" x="586.5" y="-72" font-family="Helvetica,sans-Serif" font-size="10.00"> names</text>
</g>
<!-- Node15 -->
<g id="node15" class="node"><title>Node15</title>
<polygon fill="white" stroke="#bfbfbf" points="402.5,-222.5 402.5,-241.5 516.5,-241.5 516.5,-222.5 402.5,-222.5"/>
<text text-anchor="middle" x="459.5" y="-229.5" font-family="Helvetica,sans-Serif" font-size="10.00">vector&lt; IndexVector &gt;</text>
</g>
<!-- Node15&#45;&gt;Node3 -->
<g id="edge16" class="edge"><title>Node15&#45;&gt;Node3</title>
<path fill="none" stroke="#9a32cd" stroke-dasharray="5,2" d="M526.918,-221.265C556.437,-216.206 591.554,-209.794 623,-203 635.81,-200.232 650.053,-196.627 661.335,-193.644"/>
<polygon fill="#9a32cd" stroke="#9a32cd" points="525.997,-217.871 516.725,-222.996 527.169,-224.772 525.997,-217.871"/>
<text text-anchor="middle" x="586.5" y="-220" font-family="Helvetica,sans-Serif" font-size="10.00"> subtrees</text>
</g>
<!-- Node16&#45;&gt;Node15 -->
<g id="edge17" class="edge"><title>Node16&#45;&gt;Node15</title>
<path fill="none" stroke="#9a32cd" stroke-dasharray="5,2" d="M290.94,-226.441C323.138,-227.509 367.303,-228.975 402.207,-230.132"/>
<polygon fill="#9a32cd" stroke="#9a32cd" points="291.044,-222.943 280.934,-226.109 290.812,-229.939 291.044,-222.943"/>
<text text-anchor="middle" x="347.5" y="-232" font-family="Helvetica,sans-Serif" font-size="10.00"> elements</text>
</g>
<!-- Node17 -->
<g id="node17" class="node"><title>Node17</title>
<g id="a_node17"><a xlink:href="classse3_1_1container_1_1aligned__vector.html" target="_top" xlink:title="aligned_vector\&lt; se3\l::FrameTpl \&gt;">
<polygon fill="white" stroke="black" points="407.5,-173 407.5,-203 511.5,-203 511.5,-173 407.5,-173"/>
<text text-anchor="start" x="415.5" y="-191" font-family="Helvetica,sans-Serif" font-size="10.00">aligned_vector&lt; se3</text>
<text text-anchor="middle" x="459.5" y="-180" font-family="Helvetica,sans-Serif" font-size="10.00">::FrameTpl &gt;</text>
</a>
</g>
</g>
<!-- Node17&#45;&gt;Node3 -->
<g id="edge19" class="edge"><title>Node17&#45;&gt;Node3</title>
<path fill="none" stroke="#9a32cd" stroke-dasharray="5,2" d="M521.617,-188C568.315,-188 629.857,-188 661.406,-188"/>
<polygon fill="#9a32cd" stroke="#9a32cd" points="521.595,-184.5 511.595,-188 521.595,-191.5 521.595,-184.5"/>
<text text-anchor="middle" x="586.5" y="-191" font-family="Helvetica,sans-Serif" font-size="10.00"> frames</text>
</g>
<!-- Node18&#45;&gt;Node17 -->
<g id="edge20" class="edge"><title>Node18&#45;&gt;Node17</title>
<path fill="none" stroke="midnightblue" d="M318.385,-180.031C347.564,-181.691 380.716,-183.576 407.445,-185.096"/>
<polygon fill="midnightblue" stroke="midnightblue" points="318.429,-176.528 308.247,-179.455 318.032,-183.517 318.429,-176.528"/>
</g>
<!-- Node19 -->
<g id="node19" class="node"><title>Node19</title>
<g id="a_node19"><a xlink:href="classse3_1_1container_1_1aligned__vector.html" target="_top" xlink:title="aligned_vector\&lt; se3\l::InertiaTpl \&gt;">
<polygon fill="white" stroke="black" points="407.5,-124 407.5,-154 511.5,-154 511.5,-124 407.5,-124"/>
<text text-anchor="start" x="415.5" y="-142" font-family="Helvetica,sans-Serif" font-size="10.00">aligned_vector&lt; se3</text>
<text text-anchor="middle" x="459.5" y="-131" font-family="Helvetica,sans-Serif" font-size="10.00">::InertiaTpl &gt;</text>
</a>
</g>
</g>
<!-- Node19&#45;&gt;Node3 -->
<g id="edge22" class="edge"><title>Node19&#45;&gt;Node3</title>
<path fill="none" stroke="#9a32cd" stroke-dasharray="5,2" d="M521.909,-151.204C552.379,-157.423 589.7,-165.287 623,-173 635.767,-175.957 650.009,-179.569 661.301,-182.507"/>
<polygon fill="#9a32cd" stroke="#9a32cd" points="522.351,-147.723 511.854,-149.161 520.957,-154.582 522.351,-147.723"/>
<text text-anchor="middle" x="586.5" y="-176" font-family="Helvetica,sans-Serif" font-size="10.00"> inertias</text>
</g>
<!-- Node20&#45;&gt;Node19 -->
<g id="edge23" class="edge"><title>Node20&#45;&gt;Node19</title>
<path fill="none" stroke="midnightblue" d="M318.385,-123.727C347.564,-126.907 380.716,-130.521 407.445,-133.435"/>
<polygon fill="midnightblue" stroke="midnightblue" points="318.567,-120.226 308.247,-122.622 317.809,-127.185 318.567,-120.226"/>
</g>
</g>
</svg>
