<?xml version="1.0" encoding="UTF-8" standalone="no"?>
<!DOCTYPE svg PUBLIC "-//W3C//DTD SVG 1.1//EN"
 "http://www.w3.org/Graphics/SVG/1.1/DTD/svg11.dtd">
<!-- Generated by graphviz version 2.38.0 (20140413.2041)
 -->
<!-- Title: JointCalcZeroOrderVisitor Pages: 1 -->
<svg width="143pt" height="151pt"
 viewBox="0.00 0.00 143.00 151.00" xmlns="http://www.w3.org/2000/svg" xmlns:xlink="http://www.w3.org/1999/xlink">
<g id="graph0" class="graph" transform="scale(1 1) rotate(0) translate(4 147)">
<title>JointCalcZeroOrderVisitor</title>
<polygon fill="white" stroke="none" points="-4,4 -4,-147 139,-147 139,4 -4,4"/>
<!-- Node1 -->
<g id="node1" class="node"><title>Node1</title>
<polygon fill="#bfbfbf" stroke="black" points="3,-0.5 3,-19.5 132,-19.5 132,-0.5 3,-0.5"/>
<text text-anchor="middle" x="67.5" y="-7.5" font-family="Helvetica,sans-Serif" font-size="10.00">JointCalcZeroOrderVisitor</text>
</g>
<!-- Node2 -->
<g id="node2" class="node"><title>Node2</title>
<g id="a_node2"><a xlink:href="structse3_1_1fusion_1_1JointVisitor.html" target="_top" xlink:title="JointVisitor\&lt; JointCalcZero\lOrderVisitor \&gt;">
<polygon fill="white" stroke="black" points="0,-56.5 0,-86.5 135,-86.5 135,-56.5 0,-56.5"/>
<text text-anchor="start" x="8" y="-74.5" font-family="Helvetica,sans-Serif" font-size="10.00">JointVisitor&lt; JointCalcZero</text>
<text text-anchor="middle" x="67.5" y="-63.5" font-family="Helvetica,sans-Serif" font-size="10.00">OrderVisitor &gt;</text>
</a>
</g>
</g>
<!-- Node2&#45;&gt;Node1 -->
<g id="edge1" class="edge"><title>Node2&#45;&gt;Node1</title>
<path fill="none" stroke="midnightblue" d="M67.5,-46.2892C67.5,-36.857 67.5,-26.6548 67.5,-19.6578"/>
<polygon fill="midnightblue" stroke="midnightblue" points="64.0001,-46.3993 67.5,-56.3993 71.0001,-46.3994 64.0001,-46.3993"/>
</g>
<!-- Node3 -->
<g id="node3" class="node"><title>Node3</title>
<polygon fill="white" stroke="#bfbfbf" points="25.5,-123.5 25.5,-142.5 109.5,-142.5 109.5,-123.5 25.5,-123.5"/>
<text text-anchor="middle" x="67.5" y="-130.5" font-family="Helvetica,sans-Serif" font-size="10.00">static_visitor&lt;&gt;</text>
</g>
<!-- Node3&#45;&gt;Node2 -->
<g id="edge2" class="edge"><title>Node3&#45;&gt;Node2</title>
<path fill="none" stroke="midnightblue" d="M67.5,-113.235C67.5,-104.586 67.5,-94.4969 67.5,-86.523"/>
<polygon fill="midnightblue" stroke="midnightblue" points="64.0001,-113.475 67.5,-123.475 71.0001,-113.475 64.0001,-113.475"/>
</g>
</g>
</svg>
