<?xml version="1.0" encoding="UTF-8" standalone="no"?>
<!DOCTYPE svg PUBLIC "-//W3C//DTD SVG 1.1//EN"
 "http://www.w3.org/Graphics/SVG/1.1/DTD/svg11.dtd">
<!-- Generated by graphviz version 2.38.0 (20140413.2041)
 -->
<!-- Title: JointDataPrismatic&lt; axis &gt; Pages: 1 -->
<svg width="140pt" height="185pt"
 viewBox="0.00 0.00 140.00 185.00" xmlns="http://www.w3.org/2000/svg" xmlns:xlink="http://www.w3.org/1999/xlink">
<g id="graph0" class="graph" transform="scale(1 1) rotate(0) translate(4 181)">
<title>JointDataPrismatic&lt; axis &gt;</title>
<polygon fill="white" stroke="none" points="-4,4 -4,-181 136,-181 136,4 -4,4"/>
<!-- Node1 -->
<g id="node1" class="node"><title>Node1</title>
<polygon fill="#bfbfbf" stroke="black" points="16,-0.5 16,-30.5 116,-30.5 116,-0.5 16,-0.5"/>
<text text-anchor="start" x="24" y="-18.5" font-family="Helvetica,sans-Serif" font-size="10.00">JointDataPrismatic</text>
<text text-anchor="middle" x="66" y="-7.5" font-family="Helvetica,sans-Serif" font-size="10.00">&lt; axis &gt;</text>
</g>
<!-- Node2 -->
<g id="node2" class="node"><title>Node2</title>
<g id="a_node2"><a xlink:href="structse3_1_1JointDataBase.html" target="_top" xlink:title="JointDataBase\&lt; JointData\lPrismatic\&lt; axis \&gt; \&gt;">
<polygon fill="white" stroke="black" points="0,-68.5 0,-98.5 132,-98.5 132,-68.5 0,-68.5"/>
<text text-anchor="start" x="8" y="-86.5" font-family="Helvetica,sans-Serif" font-size="10.00">JointDataBase&lt; JointData</text>
<text text-anchor="middle" x="66" y="-75.5" font-family="Helvetica,sans-Serif" font-size="10.00">Prismatic&lt; axis &gt; &gt;</text>
</a>
</g>
</g>
<!-- Node2&#45;&gt;Node1 -->
<g id="edge1" class="edge"><title>Node2&#45;&gt;Node1</title>
<path fill="none" stroke="midnightblue" d="M66,-58.0322C66,-48.8606 66,-38.7449 66,-30.7931"/>
<polygon fill="midnightblue" stroke="midnightblue" points="62.5001,-58.1789 66,-68.179 69.5001,-58.179 62.5001,-58.1789"/>
</g>
<!-- Node3 -->
<g id="node3" class="node"><title>Node3</title>
<g id="a_node3"><a xlink:href="structse3_1_1traits_3_01JointDataPrismatic_3_01axis_01_4_01_4.html" target="_top" xlink:title="traits\&lt; JointDataPrismatic\l\&lt; axis \&gt; \&gt;">
<polygon fill="white" stroke="black" points="0.5,-146.5 0.5,-176.5 131.5,-176.5 131.5,-146.5 0.5,-146.5"/>
<text text-anchor="start" x="8.5" y="-164.5" font-family="Helvetica,sans-Serif" font-size="10.00">traits&lt; JointDataPrismatic</text>
<text text-anchor="middle" x="66" y="-153.5" font-family="Helvetica,sans-Serif" font-size="10.00">&lt; axis &gt; &gt;</text>
</a>
</g>
</g>
<!-- Node3&#45;&gt;Node2 -->
<g id="edge2" class="edge"><title>Node3&#45;&gt;Node2</title>
<path fill="none" stroke="#9a32cd" stroke-dasharray="5,2" d="M66,-136.09C66,-123.757 66,-109.224 66,-98.7309"/>
<polygon fill="#9a32cd" stroke="#9a32cd" points="62.5001,-136.205 66,-146.205 69.5001,-136.205 62.5001,-136.205"/>
<text text-anchor="middle" x="95" y="-120" font-family="Helvetica,sans-Serif" font-size="10.00"> JointDerived</text>
</g>
</g>
</svg>
