<?xml version="1.0" encoding="UTF-8" standalone="no"?>
<!DOCTYPE svg PUBLIC "-//W3C//DTD SVG 1.1//EN"
 "http://www.w3.org/Graphics/SVG/1.1/DTD/svg11.dtd">
<!-- Generated by graphviz version 2.38.0 (20140413.2041)
 -->
<!-- Title: JointModelRevolute&lt; axis &gt; Pages: 1 -->
<svg width="151pt" height="185pt"
 viewBox="0.00 0.00 151.00 185.00" xmlns="http://www.w3.org/2000/svg" xmlns:xlink="http://www.w3.org/1999/xlink">
<g id="graph0" class="graph" transform="scale(1 1) rotate(0) translate(4 181)">
<title>JointModelRevolute&lt; axis &gt;</title>
<polygon fill="white" stroke="none" points="-4,4 -4,-181 147,-181 147,4 -4,4"/>
<!-- Node1 -->
<g id="node1" class="node"><title>Node1</title>
<polygon fill="#bfbfbf" stroke="black" points="20,-0.5 20,-30.5 123,-30.5 123,-0.5 20,-0.5"/>
<text text-anchor="start" x="28" y="-18.5" font-family="Helvetica,sans-Serif" font-size="10.00">JointModelRevolute</text>
<text text-anchor="middle" x="71.5" y="-7.5" font-family="Helvetica,sans-Serif" font-size="10.00">&lt; axis &gt;</text>
</g>
<!-- Node2 -->
<g id="node2" class="node"><title>Node2</title>
<g id="a_node2"><a xlink:href="structse3_1_1JointModelBase.html" target="_top" xlink:title="JointModelBase\&lt; JointModel\lRevolute\&lt; axis \&gt; \&gt;">
<polygon fill="white" stroke="black" points="0,-68.5 0,-98.5 143,-98.5 143,-68.5 0,-68.5"/>
<text text-anchor="start" x="8" y="-86.5" font-family="Helvetica,sans-Serif" font-size="10.00">JointModelBase&lt; JointModel</text>
<text text-anchor="middle" x="71.5" y="-75.5" font-family="Helvetica,sans-Serif" font-size="10.00">Revolute&lt; axis &gt; &gt;</text>
</a>
</g>
</g>
<!-- Node2&#45;&gt;Node1 -->
<g id="edge1" class="edge"><title>Node2&#45;&gt;Node1</title>
<path fill="none" stroke="midnightblue" d="M71.5,-58.0322C71.5,-48.8606 71.5,-38.7449 71.5,-30.7931"/>
<polygon fill="midnightblue" stroke="midnightblue" points="68.0001,-58.1789 71.5,-68.179 75.0001,-58.179 68.0001,-58.1789"/>
</g>
<!-- Node3 -->
<g id="node3" class="node"><title>Node3</title>
<g id="a_node3"><a xlink:href="structse3_1_1traits_3_01JointModelRevolute_3_01axis_01_4_01_4.html" target="_top" xlink:title="traits\&lt; JointModelRevolute\l\&lt; axis \&gt; \&gt;">
<polygon fill="white" stroke="black" points="4.5,-146.5 4.5,-176.5 138.5,-176.5 138.5,-146.5 4.5,-146.5"/>
<text text-anchor="start" x="12.5" y="-164.5" font-family="Helvetica,sans-Serif" font-size="10.00">traits&lt; JointModelRevolute</text>
<text text-anchor="middle" x="71.5" y="-153.5" font-family="Helvetica,sans-Serif" font-size="10.00">&lt; axis &gt; &gt;</text>
</a>
</g>
</g>
<!-- Node3&#45;&gt;Node2 -->
<g id="edge2" class="edge"><title>Node3&#45;&gt;Node2</title>
<path fill="none" stroke="#9a32cd" stroke-dasharray="5,2" d="M71.5,-136.09C71.5,-123.757 71.5,-109.224 71.5,-98.7309"/>
<polygon fill="#9a32cd" stroke="#9a32cd" points="68.0001,-136.205 71.5,-146.205 75.0001,-136.205 68.0001,-136.205"/>
<text text-anchor="middle" x="100.5" y="-120" font-family="Helvetica,sans-Serif" font-size="10.00"> JointDerived</text>
</g>
</g>
</svg>
