<?xml version="1.0" encoding="UTF-8" standalone="no"?>
<!DOCTYPE svg PUBLIC "-//W3C//DTD SVG 1.1//EN"
 "http://www.w3.org/Graphics/SVG/1.1/DTD/svg11.dtd">
<!-- Generated by graphviz version 2.38.0 (20140413.2041)
 -->
<!-- Title: GeometryData Pages: 1 -->
<svg width="678pt" height="280pt"
 viewBox="0.00 0.00 678.00 280.00" xmlns="http://www.w3.org/2000/svg" xmlns:xlink="http://www.w3.org/1999/xlink">
<g id="graph0" class="graph" transform="scale(1 1) rotate(0) translate(4 276)">
<title>GeometryData</title>
<polygon fill="white" stroke="none" points="-4,4 -4,-276 674,-276 674,4 -4,4"/>
<!-- Node1 -->
<g id="node1" class="node"><title>Node1</title>
<polygon fill="#bfbfbf" stroke="black" points="590,-120.5 590,-139.5 670,-139.5 670,-120.5 590,-120.5"/>
<text text-anchor="middle" x="630" y="-127.5" font-family="Helvetica,sans-Serif" font-size="10.00">GeometryData</text>
</g>
<!-- Node2 -->
<g id="node2" class="node"><title>Node2</title>
<polygon fill="white" stroke="#bfbfbf" points="318,-251.5 318,-270.5 464,-270.5 464,-251.5 318,-251.5"/>
<text text-anchor="middle" x="391" y="-258.5" font-family="Helvetica,sans-Serif" font-size="10.00">vector&lt; fcl::DistanceResult &gt;</text>
</g>
<!-- Node2&#45;&gt;Node1 -->
<g id="edge1" class="edge"><title>Node2&#45;&gt;Node1</title>
<path fill="none" stroke="#9a32cd" stroke-dasharray="5,2" d="M474.142,-262.262C507.055,-259.154 543.782,-250.767 572,-231 604.652,-208.127 620.893,-160.217 626.576,-139.682"/>
<polygon fill="#9a32cd" stroke="#9a32cd" points="473.754,-258.782 464.063,-263.064 474.309,-265.759 473.754,-258.782"/>
<text text-anchor="middle" x="527" y="-264" font-family="Helvetica,sans-Serif" font-size="10.00"> distanceResults</text>
</g>
<!-- Node3 -->
<g id="node3" class="node"><title>Node3</title>
<polygon fill="white" stroke="#bfbfbf" points="319,-213.5 319,-232.5 463,-232.5 463,-213.5 319,-213.5"/>
<text text-anchor="middle" x="391" y="-220.5" font-family="Helvetica,sans-Serif" font-size="10.00">vector&lt; fcl::CollisionObject &gt;</text>
</g>
<!-- Node3&#45;&gt;Node1 -->
<g id="edge2" class="edge"><title>Node3&#45;&gt;Node1</title>
<path fill="none" stroke="#9a32cd" stroke-dasharray="5,2" d="M473.461,-216.952C505.606,-212.007 541.955,-203.079 572,-187 593.716,-175.378 612.514,-152.795 622.142,-139.815"/>
<polygon fill="#9a32cd" stroke="#9a32cd" points="472.588,-213.541 463.185,-218.422 473.58,-220.471 472.588,-213.541"/>
<text text-anchor="middle" x="527" y="-219" font-family="Helvetica,sans-Serif" font-size="10.00"> collisionObjects</text>
</g>
<!-- Node4 -->
<g id="node4" class="node"><title>Node4</title>
<g id="a_node4"><a xlink:href="classse3_1_1container_1_1aligned__vector.html" target="_top" xlink:title="aligned_vector\&lt; se3\l::se3::SE3Tpl \&gt;">
<polygon fill="white" stroke="black" points="339,-164 339,-194 443,-194 443,-164 339,-164"/>
<text text-anchor="start" x="347" y="-182" font-family="Helvetica,sans-Serif" font-size="10.00">aligned_vector&lt; se3</text>
<text text-anchor="middle" x="391" y="-171" font-family="Helvetica,sans-Serif" font-size="10.00">::se3::SE3Tpl &gt;</text>
</a>
</g>
</g>
<!-- Node4&#45;&gt;Node1 -->
<g id="edge3" class="edge"><title>Node4&#45;&gt;Node1</title>
<path fill="none" stroke="#9a32cd" stroke-dasharray="5,2" d="M453.334,-175.114C488.546,-171.824 533.315,-165.829 572,-155 585.423,-151.242 599.792,-144.924 610.745,-139.579"/>
<polygon fill="#9a32cd" stroke="#9a32cd" points="452.852,-171.643 443.2,-176.011 453.47,-178.615 452.852,-171.643"/>
<text text-anchor="middle" x="527" y="-175" font-family="Helvetica,sans-Serif" font-size="10.00"> oMg</text>
</g>
<!-- Node5 -->
<g id="node5" class="node"><title>Node5</title>
<g id="a_node5"><a xlink:title="STL class. ">
<polygon fill="white" stroke="#bfbfbf" points="108,-158.5 108,-199.5 239,-199.5 239,-158.5 108,-158.5"/>
<text text-anchor="start" x="116" y="-187.5" font-family="Helvetica,sans-Serif" font-size="10.00">vector&lt; se3::se3::SE3Tpl,</text>
<text text-anchor="start" x="116" y="-176.5" font-family="Helvetica,sans-Serif" font-size="10.00"> Eigen::aligned_allocator</text>
<text text-anchor="middle" x="173.5" y="-165.5" font-family="Helvetica,sans-Serif" font-size="10.00">&lt; se3::se3::SE3Tpl &gt; &gt;</text>
</a>
</g>
</g>
<!-- Node5&#45;&gt;Node4 -->
<g id="edge4" class="edge"><title>Node5&#45;&gt;Node4</title>
<path fill="none" stroke="midnightblue" d="M249.423,-179C278.921,-179 312.047,-179 338.731,-179"/>
<polygon fill="midnightblue" stroke="midnightblue" points="249.157,-175.5 239.157,-179 249.157,-182.5 249.157,-175.5"/>
</g>
<!-- Node6 -->
<g id="node6" class="node"><title>Node6</title>
<polygon fill="white" stroke="#bfbfbf" points="0,-146.5 0,-165.5 29,-165.5 29,-146.5 0,-146.5"/>
<text text-anchor="middle" x="14.5" y="-153.5" font-family="Helvetica,sans-Serif" font-size="10.00">T</text>
</g>
<!-- Node6&#45;&gt;Node5 -->
<g id="edge5" class="edge"><title>Node6&#45;&gt;Node5</title>
<path fill="none" stroke="#9a32cd" stroke-dasharray="5,2" d="M39.1541,-159.465C57.3834,-162.136 83.4998,-165.962 107.796,-169.521"/>
<polygon fill="#9a32cd" stroke="#9a32cd" points="39.5598,-155.987 29.1581,-158.001 38.5451,-162.913 39.5598,-155.987"/>
<text text-anchor="middle" x="68.5" y="-170" font-family="Helvetica,sans-Serif" font-size="10.00"> elements</text>
</g>
<!-- Node8 -->
<g id="node8" class="node"><title>Node8</title>
<g id="a_node8"><a xlink:title="STL class. ">
<polygon fill="white" stroke="#bfbfbf" points="139.5,-120.5 139.5,-139.5 207.5,-139.5 207.5,-120.5 139.5,-120.5"/>
<text text-anchor="middle" x="173.5" y="-127.5" font-family="Helvetica,sans-Serif" font-size="10.00">vector&lt; T &gt;</text>
</a>
</g>
</g>
<!-- Node6&#45;&gt;Node8 -->
<g id="edge8" class="edge"><title>Node6&#45;&gt;Node8</title>
<path fill="none" stroke="#9a32cd" stroke-dasharray="5,2" d="M38.7613,-148.099C41.5186,-147.317 44.3088,-146.594 47,-146 77.9937,-139.163 113.984,-134.947 139.455,-132.571"/>
<polygon fill="#9a32cd" stroke="#9a32cd" points="37.6714,-144.773 29.1534,-151.073 39.7411,-151.46 37.6714,-144.773"/>
<text text-anchor="middle" x="68.5" y="-149" font-family="Helvetica,sans-Serif" font-size="10.00"> elements</text>
</g>
<!-- Node7 -->
<g id="node7" class="node"><title>Node7</title>
<polygon fill="white" stroke="#bfbfbf" points="318,-115 318,-145 464,-145 464,-115 318,-115"/>
<text text-anchor="start" x="326" y="-133" font-family="Helvetica,sans-Serif" font-size="10.00">map&lt; JointIndex, GeomIndex</text>
<text text-anchor="middle" x="391" y="-122" font-family="Helvetica,sans-Serif" font-size="10.00">List &gt;</text>
</g>
<!-- Node7&#45;&gt;Node1 -->
<g id="edge6" class="edge"><title>Node7&#45;&gt;Node1</title>
<path fill="none" stroke="#9a32cd" stroke-dasharray="5,2" d="M474.179,-130C513.438,-130 558.585,-130 589.956,-130"/>
<polygon fill="#9a32cd" stroke="#9a32cd" points="474.073,-126.5 464.073,-130 474.073,-133.5 474.073,-126.5"/>
<text text-anchor="middle" x="527" y="-144" font-family="Helvetica,sans-Serif" font-size="10.00"> outerObjects</text>
<text text-anchor="middle" x="527" y="-133" font-family="Helvetica,sans-Serif" font-size="10.00">innerObjects</text>
</g>
<!-- Node8&#45;&gt;Node7 -->
<g id="edge7" class="edge"><title>Node8&#45;&gt;Node7</title>
<path fill="none" stroke="#9a32cd" stroke-dasharray="5,2" d="M217.797,-130C246.459,-130 284.742,-130 317.933,-130"/>
<polygon fill="#9a32cd" stroke="#9a32cd" points="217.7,-126.5 207.7,-130 217.7,-133.5 217.7,-126.5"/>
<text text-anchor="middle" x="278.5" y="-133" font-family="Helvetica,sans-Serif" font-size="10.00"> elements</text>
</g>
<!-- Node9 -->
<g id="node9" class="node"><title>Node9</title>
<polygon fill="white" stroke="#bfbfbf" points="351,-76.5 351,-95.5 431,-95.5 431,-76.5 351,-76.5"/>
<text text-anchor="middle" x="391" y="-83.5" font-family="Helvetica,sans-Serif" font-size="10.00">vector&lt; bool &gt;</text>
</g>
<!-- Node9&#45;&gt;Node1 -->
<g id="edge9" class="edge"><title>Node9&#45;&gt;Node1</title>
<path fill="none" stroke="#9a32cd" stroke-dasharray="5,2" d="M441.495,-92.6466C477.789,-97.8424 528.172,-105.726 572,-115 579.508,-116.589 587.51,-118.534 595.07,-120.491"/>
<polygon fill="#9a32cd" stroke="#9a32cd" points="441.57,-89.1225 431.178,-91.1878 440.59,-96.0536 441.57,-89.1225"/>
<text text-anchor="middle" x="527" y="-118" font-family="Helvetica,sans-Serif" font-size="10.00"> activeCollisionPairs</text>
</g>
<!-- Node10 -->
<g id="node10" class="node"><title>Node10</title>
<polygon fill="white" stroke="#bfbfbf" points="346,-38.5 346,-57.5 436,-57.5 436,-38.5 346,-38.5"/>
<text text-anchor="middle" x="391" y="-45.5" font-family="Helvetica,sans-Serif" font-size="10.00">vector&lt; double &gt;</text>
</g>
<!-- Node10&#45;&gt;Node1 -->
<g id="edge10" class="edge"><title>Node10&#45;&gt;Node1</title>
<path fill="none" stroke="#9a32cd" stroke-dasharray="5,2" d="M446.38,-52.5415C483.205,-57.1842 532.208,-66.4847 572,-85 590.976,-93.8295 609.309,-110.129 619.855,-120.499"/>
<polygon fill="#9a32cd" stroke="#9a32cd" points="446.676,-49.0523 436.334,-51.3518 445.853,-56.0037 446.676,-49.0523"/>
<text text-anchor="middle" x="527" y="-88" font-family="Helvetica,sans-Serif" font-size="10.00"> radius</text>
</g>
<!-- Node11 -->
<g id="node11" class="node"><title>Node11</title>
<polygon fill="white" stroke="#bfbfbf" points="319,-0.5 319,-19.5 463,-19.5 463,-0.5 319,-0.5"/>
<text text-anchor="middle" x="391" y="-7.5" font-family="Helvetica,sans-Serif" font-size="10.00">vector&lt; fcl::CollisionResult &gt;</text>
</g>
<!-- Node11&#45;&gt;Node1 -->
<g id="edge11" class="edge"><title>Node11&#45;&gt;Node1</title>
<path fill="none" stroke="#9a32cd" stroke-dasharray="5,2" d="M473.141,-11.7691C506.064,-15.7833 543.066,-24.791 572,-44 600.801,-63.1212 618.573,-102.291 625.576,-120.413"/>
<polygon fill="#9a32cd" stroke="#9a32cd" points="473.387,-8.2753 463.068,-10.6778 472.633,-15.2346 473.387,-8.2753"/>
<text text-anchor="middle" x="527" y="-47" font-family="Helvetica,sans-Serif" font-size="10.00"> collisionResults</text>
</g>
</g>
</svg>
