<?xml version="1.0" encoding="UTF-8" standalone="no"?>
<!DOCTYPE svg PUBLIC "-//W3C//DTD SVG 1.1//EN"
 "http://www.w3.org/Graphics/SVG/1.1/DTD/svg11.dtd">
<!-- Generated by graphviz version 2.38.0 (20140413.2041)
 -->
<!-- Title: JointSphericalZYXTpl&lt; _Scalar, _Options &gt;::MotionSpherical Pages: 1 -->
<svg width="128pt" height="196pt"
 viewBox="0.00 0.00 128.00 196.00" xmlns="http://www.w3.org/2000/svg" xmlns:xlink="http://www.w3.org/1999/xlink">
<g id="graph0" class="graph" transform="scale(1 1) rotate(0) translate(4 192)">
<title>JointSphericalZYXTpl&lt; _Scalar, _Options &gt;::MotionSpherical</title>
<polygon fill="white" stroke="none" points="-4,4 -4,-192 124,-192 124,4 -4,4"/>
<!-- Node1 -->
<g id="node1" class="node"><title>Node1</title>
<polygon fill="#bfbfbf" stroke="black" points="3.5,-0.5 3.5,-41.5 116.5,-41.5 116.5,-0.5 3.5,-0.5"/>
<text text-anchor="start" x="11.5" y="-29.5" font-family="Helvetica,sans-Serif" font-size="10.00">JointSphericalZYXTpl</text>
<text text-anchor="start" x="11.5" y="-18.5" font-family="Helvetica,sans-Serif" font-size="10.00">&lt; _Scalar, _Options &gt;</text>
<text text-anchor="middle" x="60" y="-7.5" font-family="Helvetica,sans-Serif" font-size="10.00">::MotionSpherical</text>
</g>
<!-- Node2 -->
<g id="node2" class="node"><title>Node2</title>
<g id="a_node2"><a xlink:href="classse3_1_1MotionTpl.html" target="_top" xlink:title="MotionTpl\&lt; Scalar,\l Options \&gt;">
<polygon fill="white" stroke="black" points="10.5,-89.5 10.5,-119.5 109.5,-119.5 109.5,-89.5 10.5,-89.5"/>
<text text-anchor="start" x="18.5" y="-107.5" font-family="Helvetica,sans-Serif" font-size="10.00">MotionTpl&lt; Scalar,</text>
<text text-anchor="middle" x="60" y="-96.5" font-family="Helvetica,sans-Serif" font-size="10.00"> Options &gt;</text>
</a>
</g>
</g>
<!-- Node2&#45;&gt;Node1 -->
<g id="edge1" class="edge"><title>Node2&#45;&gt;Node1</title>
<path fill="none" stroke="#9a32cd" stroke-dasharray="5,2" d="M60,-79.0662C60,-67.0614 60,-52.7937 60,-41.5278"/>
<polygon fill="#9a32cd" stroke="#9a32cd" points="56.5001,-79.3037 60,-89.3038 63.5001,-79.3038 56.5001,-79.3037"/>
<text text-anchor="middle" x="65.5" y="-63" font-family="Helvetica,sans-Serif" font-size="10.00"> w</text>
</g>
<!-- Node3 -->
<g id="node3" class="node"><title>Node3</title>
<g id="a_node3"><a xlink:href="classse3_1_1MotionBase.html" target="_top" xlink:title="MotionBase\&lt; MotionTpl\l\&lt; Scalar, _Options \&gt; \&gt;">
<polygon fill="white" stroke="black" points="-7.10543e-15,-157.5 -7.10543e-15,-187.5 120,-187.5 120,-157.5 -7.10543e-15,-157.5"/>
<text text-anchor="start" x="8" y="-175.5" font-family="Helvetica,sans-Serif" font-size="10.00">MotionBase&lt; MotionTpl</text>
<text text-anchor="middle" x="60" y="-164.5" font-family="Helvetica,sans-Serif" font-size="10.00">&lt; Scalar, _Options &gt; &gt;</text>
</a>
</g>
</g>
<!-- Node3&#45;&gt;Node2 -->
<g id="edge2" class="edge"><title>Node3&#45;&gt;Node2</title>
<path fill="none" stroke="midnightblue" d="M60,-147.032C60,-137.861 60,-127.745 60,-119.793"/>
<polygon fill="midnightblue" stroke="midnightblue" points="56.5001,-147.179 60,-157.179 63.5001,-147.179 56.5001,-147.179"/>
</g>
</g>
</svg>
