<?xml version="1.0" encoding="UTF-8" standalone="no"?>
<!DOCTYPE svg PUBLIC "-//W3C//DTD SVG 1.1//EN"
 "http://www.w3.org/Graphics/SVG/1.1/DTD/svg11.dtd">
<!-- Generated by graphviz version 2.38.0 (20140413.2041)
 -->
<!-- Title: JointModelSpherical Pages: 1 -->
<svg width="152pt" height="163pt"
 viewBox="0.00 0.00 152.00 163.00" xmlns="http://www.w3.org/2000/svg" xmlns:xlink="http://www.w3.org/1999/xlink">
<g id="graph0" class="graph" transform="scale(1 1) rotate(0) translate(4 159)">
<title>JointModelSpherical</title>
<polygon fill="white" stroke="none" points="-4,4 -4,-159 148,-159 148,4 -4,4"/>
<!-- Node1 -->
<g id="node1" class="node"><title>Node1</title>
<polygon fill="#bfbfbf" stroke="black" points="20,-0.5 20,-19.5 124,-19.5 124,-0.5 20,-0.5"/>
<text text-anchor="middle" x="72" y="-7.5" font-family="Helvetica,sans-Serif" font-size="10.00">JointModelSpherical</text>
</g>
<!-- Node2 -->
<g id="node2" class="node"><title>Node2</title>
<g id="a_node2"><a xlink:href="structse3_1_1JointModelBase.html" target="_top" xlink:title="JointModelBase\&lt; JointModel\lSpherical \&gt;">
<polygon fill="white" stroke="black" points="0.5,-57.5 0.5,-87.5 143.5,-87.5 143.5,-57.5 0.5,-57.5"/>
<text text-anchor="start" x="8.5" y="-75.5" font-family="Helvetica,sans-Serif" font-size="10.00">JointModelBase&lt; JointModel</text>
<text text-anchor="middle" x="72" y="-64.5" font-family="Helvetica,sans-Serif" font-size="10.00">Spherical &gt;</text>
</a>
</g>
</g>
<!-- Node2&#45;&gt;Node1 -->
<g id="edge1" class="edge"><title>Node2&#45;&gt;Node1</title>
<path fill="none" stroke="midnightblue" d="M72,-47.3524C72,-37.5132 72,-26.7753 72,-19.5399"/>
<polygon fill="midnightblue" stroke="midnightblue" points="68.5001,-47.468 72,-57.468 75.5001,-47.4681 68.5001,-47.468"/>
</g>
<!-- Node3 -->
<g id="node3" class="node"><title>Node3</title>
<g id="a_node3"><a xlink:href="structse3_1_1traits_3_01JointModelSpherical_01_4.html" target="_top" xlink:title="traits\&lt; JointModelSpherical \&gt;">
<polygon fill="white" stroke="black" points="0,-135.5 0,-154.5 144,-154.5 144,-135.5 0,-135.5"/>
<text text-anchor="middle" x="72" y="-142.5" font-family="Helvetica,sans-Serif" font-size="10.00">traits&lt; JointModelSpherical &gt;</text>
</a>
</g>
</g>
<!-- Node3&#45;&gt;Node2 -->
<g id="edge2" class="edge"><title>Node3&#45;&gt;Node2</title>
<path fill="none" stroke="#9a32cd" stroke-dasharray="5,2" d="M72,-125.236C72,-113.408 72,-98.3829 72,-87.5762"/>
<polygon fill="#9a32cd" stroke="#9a32cd" points="68.5001,-125.355 72,-135.355 75.5001,-125.355 68.5001,-125.355"/>
<text text-anchor="middle" x="101" y="-109" font-family="Helvetica,sans-Serif" font-size="10.00"> JointDerived</text>
</g>
</g>
</svg>
