<?xml version="1.0" encoding="UTF-8" standalone="no"?>
<!DOCTYPE svg PUBLIC "-//W3C//DTD SVG 1.1//EN"
 "http://www.w3.org/Graphics/SVG/1.1/DTD/svg11.dtd">
<!-- Generated by graphviz version 2.38.0 (20140413.2041)
 -->
<!-- Title: GeometryModel Pages: 1 -->
<svg width="810pt" height="88pt"
 viewBox="0.00 0.00 810.00 88.00" xmlns="http://www.w3.org/2000/svg" xmlns:xlink="http://www.w3.org/1999/xlink">
<g id="graph0" class="graph" transform="scale(1 1) rotate(0) translate(4 84)">
<title>GeometryModel</title>
<polygon fill="white" stroke="none" points="-4,4 -4,-84 806,-84 806,4 -4,4"/>
<!-- Node1 -->
<g id="node1" class="node"><title>Node1</title>
<polygon fill="#bfbfbf" stroke="black" points="716,-26.5 716,-45.5 802,-45.5 802,-26.5 716,-26.5"/>
<text text-anchor="middle" x="759" y="-33.5" font-family="Helvetica,sans-Serif" font-size="10.00">GeometryModel</text>
</g>
<!-- Node2 -->
<g id="node2" class="node"><title>Node2</title>
<g id="a_node2"><a xlink:href="structse3_1_1container_1_1aligned__vector.html" target="_top" xlink:title="aligned_vector\&lt; se3\l::GeometryObject \&gt;">
<polygon fill="white" stroke="black" points="481,-42 481,-72 585,-72 585,-42 481,-42"/>
<text text-anchor="start" x="489" y="-60" font-family="Helvetica,sans-Serif" font-size="10.00">aligned_vector&lt; se3</text>
<text text-anchor="middle" x="533" y="-49" font-family="Helvetica,sans-Serif" font-size="10.00">::GeometryObject &gt;</text>
</a>
</g>
</g>
<!-- Node2&#45;&gt;Node1 -->
<g id="edge1" class="edge"><title>Node2&#45;&gt;Node1</title>
<path fill="none" stroke="#9a32cd" stroke-dasharray="5,2" d="M595.109,-51.271C633.373,-47.6838 681.702,-43.153 715.747,-39.9612"/>
<polygon fill="#9a32cd" stroke="#9a32cd" points="594.739,-47.7903 585.109,-52.2085 595.392,-54.7597 594.739,-47.7903"/>
<text text-anchor="middle" x="659" y="-51" font-family="Helvetica,sans-Serif" font-size="10.00"> geometryObjects</text>
</g>
<!-- Node3 -->
<g id="node3" class="node"><title>Node3</title>
<g id="a_node3"><a xlink:title="STL class. ">
<polygon fill="white" stroke="#bfbfbf" points="236,-38.5 236,-79.5 385,-79.5 385,-38.5 236,-38.5"/>
<text text-anchor="start" x="244" y="-67.5" font-family="Helvetica,sans-Serif" font-size="10.00">vector&lt; se3::GeometryObject,</text>
<text text-anchor="start" x="244" y="-56.5" font-family="Helvetica,sans-Serif" font-size="10.00"> Eigen::aligned_allocator</text>
<text text-anchor="middle" x="310.5" y="-45.5" font-family="Helvetica,sans-Serif" font-size="10.00">&lt; se3::GeometryObject &gt; &gt;</text>
</a>
</g>
</g>
<!-- Node3&#45;&gt;Node2 -->
<g id="edge2" class="edge"><title>Node3&#45;&gt;Node2</title>
<path fill="none" stroke="midnightblue" d="M395.308,-58.2398C424.141,-57.9783 455.539,-57.6935 480.963,-57.4629"/>
<polygon fill="midnightblue" stroke="midnightblue" points="395.198,-54.7406 385.23,-58.3312 395.261,-61.7403 395.198,-54.7406"/>
</g>
<!-- Node4 -->
<g id="node4" class="node"><title>Node4</title>
<polygon fill="white" stroke="#bfbfbf" points="64,-49.5 64,-68.5 93,-68.5 93,-49.5 64,-49.5"/>
<text text-anchor="middle" x="78.5" y="-56.5" font-family="Helvetica,sans-Serif" font-size="10.00">T</text>
</g>
<!-- Node4&#45;&gt;Node3 -->
<g id="edge3" class="edge"><title>Node4&#45;&gt;Node3</title>
<path fill="none" stroke="#9a32cd" stroke-dasharray="5,2" d="M103.482,-59C134.587,-59 190.264,-59 235.901,-59"/>
<polygon fill="#9a32cd" stroke="#9a32cd" points="103.199,-55.5001 93.1988,-59 103.199,-62.5001 103.199,-55.5001"/>
<text text-anchor="middle" x="196.5" y="-62" font-family="Helvetica,sans-Serif" font-size="10.00"> elements</text>
</g>
<!-- Node5 -->
<g id="node5" class="node"><title>Node5</title>
<polygon fill="white" stroke="#bfbfbf" points="464,-3.5 464,-22.5 602,-22.5 602,-3.5 464,-3.5"/>
<text text-anchor="middle" x="533" y="-10.5" font-family="Helvetica,sans-Serif" font-size="10.00">vector&lt; se3::CollisionPair &gt;</text>
</g>
<!-- Node5&#45;&gt;Node1 -->
<g id="edge4" class="edge"><title>Node5&#45;&gt;Node1</title>
<path fill="none" stroke="#9a32cd" stroke-dasharray="5,2" d="M612.532,-18.6806C639.646,-20.9133 670.192,-23.7309 698,-27 703.754,-27.6764 709.804,-28.4776 715.759,-29.3187"/>
<polygon fill="#9a32cd" stroke="#9a32cd" points="612.57,-15.1724 602.32,-17.8538 612.005,-22.1495 612.57,-15.1724"/>
<text text-anchor="middle" x="659" y="-30" font-family="Helvetica,sans-Serif" font-size="10.00"> collisionPairs</text>
</g>
<!-- Node6 -->
<g id="node6" class="node"><title>Node6</title>
<g id="a_node6"><a xlink:href="structse3_1_1CollisionPair.html" target="_top" xlink:title="CollisionPair">
<polygon fill="white" stroke="black" points="275,-0.5 275,-19.5 346,-19.5 346,-0.5 275,-0.5"/>
<text text-anchor="middle" x="310.5" y="-7.5" font-family="Helvetica,sans-Serif" font-size="10.00">CollisionPair</text>
</a>
</g>
</g>
<!-- Node6&#45;&gt;Node5 -->
<g id="edge5" class="edge"><title>Node6&#45;&gt;Node5</title>
<path fill="none" stroke="#9a32cd" stroke-dasharray="5,2" d="M356.482,-10.612C387.376,-11.0323 428.955,-11.598 463.89,-12.0733"/>
<polygon fill="#9a32cd" stroke="#9a32cd" points="356.486,-7.11182 346.439,-10.4754 356.39,-14.1112 356.486,-7.11182"/>
<text text-anchor="middle" x="424.5" y="-15" font-family="Helvetica,sans-Serif" font-size="10.00"> elements</text>
</g>
<!-- Node7 -->
<g id="node7" class="node"><title>Node7</title>
<polygon fill="white" stroke="#bfbfbf" points="0,-0.5 0,-19.5 157,-19.5 157,-0.5 0,-0.5"/>
<text text-anchor="middle" x="78.5" y="-7.5" font-family="Helvetica,sans-Serif" font-size="10.00">pair&lt; GeomIndex, GeomIndex &gt;</text>
</g>
<!-- Node7&#45;&gt;Node6 -->
<g id="edge6" class="edge"><title>Node7&#45;&gt;Node6</title>
<path fill="none" stroke="midnightblue" d="M167.471,-10C204.858,-10 246.286,-10 274.702,-10"/>
<polygon fill="midnightblue" stroke="midnightblue" points="167.047,-6.5001 157.047,-10 167.047,-13.5001 167.047,-6.5001"/>
</g>
</g>
</svg>
