<?xml version="1.0" encoding="UTF-8" standalone="no"?>
<!DOCTYPE svg PUBLIC "-//W3C//DTD SVG 1.1//EN"
 "http://www.w3.org/Graphics/SVG/1.1/DTD/svg11.dtd">
<!-- Generated by graphviz version 2.38.0 (20140413.2041)
 -->
<!-- Title: JacobiansTimeVariationForwardStep Pages: 1 -->
<svg width="184pt" height="151pt"
 viewBox="0.00 0.00 184.00 151.00" xmlns="http://www.w3.org/2000/svg" xmlns:xlink="http://www.w3.org/1999/xlink">
<g id="graph0" class="graph" transform="scale(1 1) rotate(0) translate(4 147)">
<title>JacobiansTimeVariationForwardStep</title>
<polygon fill="white" stroke="none" points="-4,4 -4,-147 180,-147 180,4 -4,4"/>
<!-- Node1 -->
<g id="node1" class="node"><title>Node1</title>
<polygon fill="#bfbfbf" stroke="black" points="-1.42109e-14,-0.5 -1.42109e-14,-19.5 176,-19.5 176,-0.5 -1.42109e-14,-0.5"/>
<text text-anchor="middle" x="88" y="-7.5" font-family="Helvetica,sans-Serif" font-size="10.00">JacobiansTimeVariationForwardStep</text>
</g>
<!-- Node2 -->
<g id="node2" class="node"><title>Node2</title>
<g id="a_node2"><a xlink:href="structse3_1_1fusion_1_1JointVisitor.html" target="_top" xlink:title="JointVisitor\&lt; JacobiansTime\lVariationForwardStep \&gt;">
<polygon fill="white" stroke="black" points="18,-56.5 18,-86.5 158,-86.5 158,-56.5 18,-56.5"/>
<text text-anchor="start" x="26" y="-74.5" font-family="Helvetica,sans-Serif" font-size="10.00">JointVisitor&lt; JacobiansTime</text>
<text text-anchor="middle" x="88" y="-63.5" font-family="Helvetica,sans-Serif" font-size="10.00">VariationForwardStep &gt;</text>
</a>
</g>
</g>
<!-- Node2&#45;&gt;Node1 -->
<g id="edge1" class="edge"><title>Node2&#45;&gt;Node1</title>
<path fill="none" stroke="midnightblue" d="M88,-46.2892C88,-36.857 88,-26.6548 88,-19.6578"/>
<polygon fill="midnightblue" stroke="midnightblue" points="84.5001,-46.3993 88,-56.3993 91.5001,-46.3994 84.5001,-46.3993"/>
</g>
<!-- Node3 -->
<g id="node3" class="node"><title>Node3</title>
<polygon fill="white" stroke="#bfbfbf" points="46,-123.5 46,-142.5 130,-142.5 130,-123.5 46,-123.5"/>
<text text-anchor="middle" x="88" y="-130.5" font-family="Helvetica,sans-Serif" font-size="10.00">static_visitor&lt;&gt;</text>
</g>
<!-- Node3&#45;&gt;Node2 -->
<g id="edge2" class="edge"><title>Node3&#45;&gt;Node2</title>
<path fill="none" stroke="midnightblue" d="M88,-113.235C88,-104.586 88,-94.4969 88,-86.523"/>
<polygon fill="midnightblue" stroke="midnightblue" points="84.5001,-113.475 88,-123.475 91.5001,-113.475 84.5001,-113.475"/>
</g>
</g>
</svg>
