<?xml version="1.0" encoding="UTF-8" standalone="no"?>
<!DOCTYPE svg PUBLIC "-//W3C//DTD SVG 1.1//EN"
 "http://www.w3.org/Graphics/SVG/1.1/DTD/svg11.dtd">
<!-- Generated by graphviz version 2.38.0 (20140413.2041)
 -->
<!-- Title: ConstraintPrismaticUnaligned::TransposeConst Pages: 1 -->
<svg width="154pt" height="174pt"
 viewBox="0.00 0.00 154.00 174.00" xmlns="http://www.w3.org/2000/svg" xmlns:xlink="http://www.w3.org/1999/xlink">
<g id="graph0" class="graph" transform="scale(1 1) rotate(0) translate(4 170)">
<title>ConstraintPrismaticUnaligned::TransposeConst</title>
<polygon fill="white" stroke="none" points="-4,4 -4,-170 150,-170 150,4 -4,4"/>
<!-- Node1 -->
<g id="node1" class="node"><title>Node1</title>
<polygon fill="#bfbfbf" stroke="black" points="0,-0.5 0,-30.5 146,-30.5 146,-0.5 0,-0.5"/>
<text text-anchor="start" x="8" y="-18.5" font-family="Helvetica,sans-Serif" font-size="10.00">ConstraintPrismaticUnaligned</text>
<text text-anchor="middle" x="73" y="-7.5" font-family="Helvetica,sans-Serif" font-size="10.00">::TransposeConst</text>
</g>
<!-- Node2 -->
<g id="node2" class="node"><title>Node2</title>
<g id="a_node2"><a xlink:href="structse3_1_1ConstraintPrismaticUnaligned.html" target="_top" xlink:title="ConstraintPrismaticUnaligned">
<polygon fill="white" stroke="black" points="0,-78.5 0,-97.5 146,-97.5 146,-78.5 0,-78.5"/>
<text text-anchor="middle" x="73" y="-85.5" font-family="Helvetica,sans-Serif" font-size="10.00">ConstraintPrismaticUnaligned</text>
</a>
</g>
</g>
<!-- Node2&#45;&gt;Node1 -->
<g id="edge1" class="edge"><title>Node2&#45;&gt;Node1</title>
<path fill="none" stroke="#9a32cd" stroke-dasharray="5,2" d="M73,-68.2362C73,-56.4079 73,-41.3829 73,-30.5762"/>
<polygon fill="#9a32cd" stroke="#9a32cd" points="69.5001,-68.3553 73,-78.3553 76.5001,-68.3554 69.5001,-68.3553"/>
<text text-anchor="middle" x="80.5" y="-52" font-family="Helvetica,sans-Serif" font-size="10.00"> ref</text>
</g>
<!-- Node3 -->
<g id="node3" class="node"><title>Node3</title>
<g id="a_node3"><a xlink:href="classse3_1_1ConstraintBase.html" target="_top" xlink:title="ConstraintBase\&lt; Constraint\lPrismaticUnaligned \&gt;">
<polygon fill="white" stroke="black" points="4,-135.5 4,-165.5 142,-165.5 142,-135.5 4,-135.5"/>
<text text-anchor="start" x="12" y="-153.5" font-family="Helvetica,sans-Serif" font-size="10.00">ConstraintBase&lt; Constraint</text>
<text text-anchor="middle" x="73" y="-142.5" font-family="Helvetica,sans-Serif" font-size="10.00">PrismaticUnaligned &gt;</text>
</a>
</g>
</g>
<!-- Node3&#45;&gt;Node2 -->
<g id="edge2" class="edge"><title>Node3&#45;&gt;Node2</title>
<path fill="none" stroke="midnightblue" d="M73,-125.352C73,-115.513 73,-104.775 73,-97.5399"/>
<polygon fill="midnightblue" stroke="midnightblue" points="69.5001,-125.468 73,-135.468 76.5001,-125.468 69.5001,-125.468"/>
</g>
</g>
</svg>
