<?xml version="1.0" encoding="UTF-8" standalone="no"?>
<!DOCTYPE svg PUBLIC "-//W3C//DTD SVG 1.1//EN"
 "http://www.w3.org/Graphics/SVG/1.1/DTD/svg11.dtd">
<!-- Generated by graphviz version 2.38.0 (20140413.2041)
 -->
<!-- Title: JointDataPrismaticUnaligned Pages: 1 -->
<svg width="151pt" height="174pt"
 viewBox="0.00 0.00 151.00 174.00" xmlns="http://www.w3.org/2000/svg" xmlns:xlink="http://www.w3.org/1999/xlink">
<g id="graph0" class="graph" transform="scale(1 1) rotate(0) translate(4 170)">
<title>JointDataPrismaticUnaligned</title>
<polygon fill="white" stroke="none" points="-4,4 -4,-170 147,-170 147,4 -4,4"/>
<!-- Node1 -->
<g id="node1" class="node"><title>Node1</title>
<polygon fill="#bfbfbf" stroke="black" points="0,-0.5 0,-19.5 143,-19.5 143,-0.5 0,-0.5"/>
<text text-anchor="middle" x="71.5" y="-7.5" font-family="Helvetica,sans-Serif" font-size="10.00">JointDataPrismaticUnaligned</text>
</g>
<!-- Node2 -->
<g id="node2" class="node"><title>Node2</title>
<g id="a_node2"><a xlink:href="structse3_1_1JointDataBase.html" target="_top" xlink:title="JointDataBase\&lt; JointData\lPrismaticUnaligned \&gt;">
<polygon fill="white" stroke="black" points="5.5,-57.5 5.5,-87.5 137.5,-87.5 137.5,-57.5 5.5,-57.5"/>
<text text-anchor="start" x="13.5" y="-75.5" font-family="Helvetica,sans-Serif" font-size="10.00">JointDataBase&lt; JointData</text>
<text text-anchor="middle" x="71.5" y="-64.5" font-family="Helvetica,sans-Serif" font-size="10.00">PrismaticUnaligned &gt;</text>
</a>
</g>
</g>
<!-- Node2&#45;&gt;Node1 -->
<g id="edge1" class="edge"><title>Node2&#45;&gt;Node1</title>
<path fill="none" stroke="midnightblue" d="M71.5,-47.3524C71.5,-37.5132 71.5,-26.7753 71.5,-19.5399"/>
<polygon fill="midnightblue" stroke="midnightblue" points="68.0001,-47.468 71.5,-57.468 75.0001,-47.4681 68.0001,-47.468"/>
</g>
<!-- Node3 -->
<g id="node3" class="node"><title>Node3</title>
<g id="a_node3"><a xlink:href="structse3_1_1traits_3_01JointDataPrismaticUnaligned_01_4.html" target="_top" xlink:title="traits\&lt; JointDataPrismatic\lUnaligned \&gt;">
<polygon fill="white" stroke="black" points="6,-135.5 6,-165.5 137,-165.5 137,-135.5 6,-135.5"/>
<text text-anchor="start" x="14" y="-153.5" font-family="Helvetica,sans-Serif" font-size="10.00">traits&lt; JointDataPrismatic</text>
<text text-anchor="middle" x="71.5" y="-142.5" font-family="Helvetica,sans-Serif" font-size="10.00">Unaligned &gt;</text>
</a>
</g>
</g>
<!-- Node3&#45;&gt;Node2 -->
<g id="edge2" class="edge"><title>Node3&#45;&gt;Node2</title>
<path fill="none" stroke="#9a32cd" stroke-dasharray="5,2" d="M71.5,-125.09C71.5,-112.757 71.5,-98.2237 71.5,-87.7309"/>
<polygon fill="#9a32cd" stroke="#9a32cd" points="68.0001,-125.205 71.5,-135.205 75.0001,-125.205 68.0001,-125.205"/>
<text text-anchor="middle" x="100.5" y="-109" font-family="Helvetica,sans-Serif" font-size="10.00"> JointDerived</text>
</g>
</g>
</svg>
