<?xml version="1.0" encoding="UTF-8" standalone="no"?>
<!DOCTYPE svg PUBLIC "-//W3C//DTD SVG 1.1//EN"
 "http://www.w3.org/Graphics/SVG/1.1/DTD/svg11.dtd">
<!-- Generated by graphviz version 2.38.0 (20140413.2041)
 -->
<!-- Title: NormalizeStep Pages: 1 -->
<svg width="106pt" height="151pt"
 viewBox="0.00 0.00 106.00 151.00" xmlns="http://www.w3.org/2000/svg" xmlns:xlink="http://www.w3.org/1999/xlink">
<g id="graph0" class="graph" transform="scale(1 1) rotate(0) translate(4 147)">
<title>NormalizeStep</title>
<polygon fill="white" stroke="none" points="-4,4 -4,-147 102,-147 102,4 -4,4"/>
<!-- Node1 -->
<g id="node1" class="node"><title>Node1</title>
<polygon fill="#bfbfbf" stroke="black" points="8.5,-0.5 8.5,-19.5 89.5,-19.5 89.5,-0.5 8.5,-0.5"/>
<text text-anchor="middle" x="49" y="-7.5" font-family="Helvetica,sans-Serif" font-size="10.00">NormalizeStep</text>
</g>
<!-- Node2 -->
<g id="node2" class="node"><title>Node2</title>
<g id="a_node2"><a xlink:href="structse3_1_1fusion_1_1JointModelVisitor.html" target="_top" xlink:title="JointModelVisitor\&lt;\l NormalizeStep \&gt;">
<polygon fill="white" stroke="black" points="-7.10543e-15,-56.5 -7.10543e-15,-86.5 98,-86.5 98,-56.5 -7.10543e-15,-56.5"/>
<text text-anchor="start" x="8" y="-74.5" font-family="Helvetica,sans-Serif" font-size="10.00">JointModelVisitor&lt;</text>
<text text-anchor="middle" x="49" y="-63.5" font-family="Helvetica,sans-Serif" font-size="10.00"> NormalizeStep &gt;</text>
</a>
</g>
</g>
<!-- Node2&#45;&gt;Node1 -->
<g id="edge1" class="edge"><title>Node2&#45;&gt;Node1</title>
<path fill="none" stroke="midnightblue" d="M49,-46.2892C49,-36.857 49,-26.6548 49,-19.6578"/>
<polygon fill="midnightblue" stroke="midnightblue" points="45.5001,-46.3993 49,-56.3993 52.5001,-46.3994 45.5001,-46.3993"/>
</g>
<!-- Node3 -->
<g id="node3" class="node"><title>Node3</title>
<polygon fill="white" stroke="#bfbfbf" points="7,-123.5 7,-142.5 91,-142.5 91,-123.5 7,-123.5"/>
<text text-anchor="middle" x="49" y="-130.5" font-family="Helvetica,sans-Serif" font-size="10.00">static_visitor&lt;&gt;</text>
</g>
<!-- Node3&#45;&gt;Node2 -->
<g id="edge2" class="edge"><title>Node3&#45;&gt;Node2</title>
<path fill="none" stroke="midnightblue" d="M49,-113.235C49,-104.586 49,-94.4969 49,-86.523"/>
<polygon fill="midnightblue" stroke="midnightblue" points="45.5001,-113.475 49,-123.475 52.5001,-113.475 45.5001,-113.475"/>
</g>
</g>
</svg>
