<?xml version="1.0" encoding="UTF-8" standalone="no"?>
<!DOCTYPE svg PUBLIC "-//W3C//DTD SVG 1.1//EN"
 "http://www.w3.org/Graphics/SVG/1.1/DTD/svg11.dtd">
<!-- Generated by graphviz version 2.38.0 (20140413.2041)
 -->
<!-- Title: JointDataTranslation Pages: 1 -->
<svg width="154pt" height="163pt"
 viewBox="0.00 0.00 154.00 163.00" xmlns="http://www.w3.org/2000/svg" xmlns:xlink="http://www.w3.org/1999/xlink">
<g id="graph0" class="graph" transform="scale(1 1) rotate(0) translate(4 159)">
<title>JointDataTranslation</title>
<polygon fill="white" stroke="none" points="-4,4 -4,-159 150,-159 150,4 -4,4"/>
<!-- Node1 -->
<g id="node1" class="node"><title>Node1</title>
<polygon fill="#bfbfbf" stroke="black" points="19.5,-0.5 19.5,-19.5 126.5,-19.5 126.5,-0.5 19.5,-0.5"/>
<text text-anchor="middle" x="73" y="-7.5" font-family="Helvetica,sans-Serif" font-size="10.00">JointDataTranslation</text>
</g>
<!-- Node2 -->
<g id="node2" class="node"><title>Node2</title>
<g id="a_node2"><a xlink:href="structse3_1_1JointDataBase.html" target="_top" xlink:title="JointDataBase\&lt; JointData\lTranslation \&gt;">
<polygon fill="white" stroke="black" points="7,-57.5 7,-87.5 139,-87.5 139,-57.5 7,-57.5"/>
<text text-anchor="start" x="15" y="-75.5" font-family="Helvetica,sans-Serif" font-size="10.00">JointDataBase&lt; JointData</text>
<text text-anchor="middle" x="73" y="-64.5" font-family="Helvetica,sans-Serif" font-size="10.00">Translation &gt;</text>
</a>
</g>
</g>
<!-- Node2&#45;&gt;Node1 -->
<g id="edge1" class="edge"><title>Node2&#45;&gt;Node1</title>
<path fill="none" stroke="midnightblue" d="M73,-47.3524C73,-37.5132 73,-26.7753 73,-19.5399"/>
<polygon fill="midnightblue" stroke="midnightblue" points="69.5001,-47.468 73,-57.468 76.5001,-47.4681 69.5001,-47.468"/>
</g>
<!-- Node3 -->
<g id="node3" class="node"><title>Node3</title>
<g id="a_node3"><a xlink:href="structse3_1_1traits_3_01JointDataTranslation_01_4.html" target="_top" xlink:title="traits\&lt; JointDataTranslation \&gt;">
<polygon fill="white" stroke="black" points="0,-135.5 0,-154.5 146,-154.5 146,-135.5 0,-135.5"/>
<text text-anchor="middle" x="73" y="-142.5" font-family="Helvetica,sans-Serif" font-size="10.00">traits&lt; JointDataTranslation &gt;</text>
</a>
</g>
</g>
<!-- Node3&#45;&gt;Node2 -->
<g id="edge2" class="edge"><title>Node3&#45;&gt;Node2</title>
<path fill="none" stroke="#9a32cd" stroke-dasharray="5,2" d="M73,-125.236C73,-113.408 73,-98.3829 73,-87.5762"/>
<polygon fill="#9a32cd" stroke="#9a32cd" points="69.5001,-125.355 73,-135.355 76.5001,-125.355 69.5001,-125.355"/>
<text text-anchor="middle" x="102" y="-109" font-family="Helvetica,sans-Serif" font-size="10.00"> JointDerived</text>
</g>
</g>
</svg>
