<?xml version="1.0" encoding="UTF-8" standalone="no"?>
<!DOCTYPE svg PUBLIC "-//W3C//DTD SVG 1.1//EN"
 "http://www.w3.org/Graphics/SVG/1.1/DTD/svg11.dtd">
<!-- Generated by graphviz version 2.38.0 (20140413.2041)
 -->
<!-- Title: ConstraintRevoluteUnaligned::TransposeConst Pages: 1 -->
<svg width="152pt" height="174pt"
 viewBox="0.00 0.00 152.00 174.00" xmlns="http://www.w3.org/2000/svg" xmlns:xlink="http://www.w3.org/1999/xlink">
<g id="graph0" class="graph" transform="scale(1 1) rotate(0) translate(4 170)">
<title>ConstraintRevoluteUnaligned::TransposeConst</title>
<polygon fill="white" stroke="none" points="-4,4 -4,-170 148,-170 148,4 -4,4"/>
<!-- Node1 -->
<g id="node1" class="node"><title>Node1</title>
<polygon fill="#bfbfbf" stroke="black" points="0,-0.5 0,-30.5 144,-30.5 144,-0.5 0,-0.5"/>
<text text-anchor="start" x="8" y="-18.5" font-family="Helvetica,sans-Serif" font-size="10.00">ConstraintRevoluteUnaligned</text>
<text text-anchor="middle" x="72" y="-7.5" font-family="Helvetica,sans-Serif" font-size="10.00">::TransposeConst</text>
</g>
<!-- Node2 -->
<g id="node2" class="node"><title>Node2</title>
<g id="a_node2"><a xlink:href="structse3_1_1ConstraintRevoluteUnaligned.html" target="_top" xlink:title="ConstraintRevoluteUnaligned">
<polygon fill="white" stroke="black" points="0,-78.5 0,-97.5 144,-97.5 144,-78.5 0,-78.5"/>
<text text-anchor="middle" x="72" y="-85.5" font-family="Helvetica,sans-Serif" font-size="10.00">ConstraintRevoluteUnaligned</text>
</a>
</g>
</g>
<!-- Node2&#45;&gt;Node1 -->
<g id="edge1" class="edge"><title>Node2&#45;&gt;Node1</title>
<path fill="none" stroke="#9a32cd" stroke-dasharray="5,2" d="M72,-68.2362C72,-56.4079 72,-41.3829 72,-30.5762"/>
<polygon fill="#9a32cd" stroke="#9a32cd" points="68.5001,-68.3553 72,-78.3553 75.5001,-68.3554 68.5001,-68.3553"/>
<text text-anchor="middle" x="79.5" y="-52" font-family="Helvetica,sans-Serif" font-size="10.00"> ref</text>
</g>
<!-- Node3 -->
<g id="node3" class="node"><title>Node3</title>
<g id="a_node3"><a xlink:href="classse3_1_1ConstraintBase.html" target="_top" xlink:title="ConstraintBase\&lt; Constraint\lRevoluteUnaligned \&gt;">
<polygon fill="white" stroke="black" points="3,-135.5 3,-165.5 141,-165.5 141,-135.5 3,-135.5"/>
<text text-anchor="start" x="11" y="-153.5" font-family="Helvetica,sans-Serif" font-size="10.00">ConstraintBase&lt; Constraint</text>
<text text-anchor="middle" x="72" y="-142.5" font-family="Helvetica,sans-Serif" font-size="10.00">RevoluteUnaligned &gt;</text>
</a>
</g>
</g>
<!-- Node3&#45;&gt;Node2 -->
<g id="edge2" class="edge"><title>Node3&#45;&gt;Node2</title>
<path fill="none" stroke="midnightblue" d="M72,-125.352C72,-115.513 72,-104.775 72,-97.5399"/>
<polygon fill="midnightblue" stroke="midnightblue" points="68.5001,-125.468 72,-135.468 75.5001,-125.468 68.5001,-125.468"/>
</g>
</g>
</svg>
