<?xml version="1.0" encoding="UTF-8" standalone="no"?>
<!DOCTYPE svg PUBLIC "-//W3C//DTD SVG 1.1//EN"
 "http://www.w3.org/Graphics/SVG/1.1/DTD/svg11.dtd">
<!-- Generated by graphviz version 2.38.0 (20140413.2041)
 -->
<!-- Title: JointModelFreeFlyer Pages: 1 -->
<svg width="153pt" height="163pt"
 viewBox="0.00 0.00 153.00 163.00" xmlns="http://www.w3.org/2000/svg" xmlns:xlink="http://www.w3.org/1999/xlink">
<g id="graph0" class="graph" transform="scale(1 1) rotate(0) translate(4 159)">
<title>JointModelFreeFlyer</title>
<polygon fill="white" stroke="none" points="-4,4 -4,-159 149,-159 149,4 -4,4"/>
<!-- Node1 -->
<g id="node1" class="node"><title>Node1</title>
<polygon fill="#bfbfbf" stroke="black" points="20,-0.5 20,-19.5 125,-19.5 125,-0.5 20,-0.5"/>
<text text-anchor="middle" x="72.5" y="-7.5" font-family="Helvetica,sans-Serif" font-size="10.00">JointModelFreeFlyer</text>
</g>
<!-- Node2 -->
<g id="node2" class="node"><title>Node2</title>
<g id="a_node2"><a xlink:href="structse3_1_1JointModelBase.html" target="_top" xlink:title="JointModelBase\&lt; JointModel\lFreeFlyer \&gt;">
<polygon fill="white" stroke="black" points="1,-57.5 1,-87.5 144,-87.5 144,-57.5 1,-57.5"/>
<text text-anchor="start" x="9" y="-75.5" font-family="Helvetica,sans-Serif" font-size="10.00">JointModelBase&lt; JointModel</text>
<text text-anchor="middle" x="72.5" y="-64.5" font-family="Helvetica,sans-Serif" font-size="10.00">FreeFlyer &gt;</text>
</a>
</g>
</g>
<!-- Node2&#45;&gt;Node1 -->
<g id="edge1" class="edge"><title>Node2&#45;&gt;Node1</title>
<path fill="none" stroke="midnightblue" d="M72.5,-47.3524C72.5,-37.5132 72.5,-26.7753 72.5,-19.5399"/>
<polygon fill="midnightblue" stroke="midnightblue" points="69.0001,-47.468 72.5,-57.468 76.0001,-47.4681 69.0001,-47.468"/>
</g>
<!-- Node3 -->
<g id="node3" class="node"><title>Node3</title>
<g id="a_node3"><a xlink:href="structse3_1_1traits_3_01JointModelFreeFlyer_01_4.html" target="_top" xlink:title="traits\&lt; JointModelFreeFlyer \&gt;">
<polygon fill="white" stroke="black" points="0,-135.5 0,-154.5 145,-154.5 145,-135.5 0,-135.5"/>
<text text-anchor="middle" x="72.5" y="-142.5" font-family="Helvetica,sans-Serif" font-size="10.00">traits&lt; JointModelFreeFlyer &gt;</text>
</a>
</g>
</g>
<!-- Node3&#45;&gt;Node2 -->
<g id="edge2" class="edge"><title>Node3&#45;&gt;Node2</title>
<path fill="none" stroke="#9a32cd" stroke-dasharray="5,2" d="M72.5,-125.236C72.5,-113.408 72.5,-98.3829 72.5,-87.5762"/>
<polygon fill="#9a32cd" stroke="#9a32cd" points="69.0001,-125.355 72.5,-135.355 76.0001,-125.355 69.0001,-125.355"/>
<text text-anchor="middle" x="101.5" y="-109" font-family="Helvetica,sans-Serif" font-size="10.00"> JointDerived</text>
</g>
</g>
</svg>
