<?xml version="1.0" encoding="UTF-8" standalone="no"?>
<!DOCTYPE svg PUBLIC "-//W3C//DTD SVG 1.1//EN"
 "http://www.w3.org/Graphics/SVG/1.1/DTD/svg11.dtd">
<!-- Generated by graphviz version 2.38.0 (20140413.2041)
 -->
<!-- Title: JointDataRevoluteUnaligned Pages: 1 -->
<svg width="149pt" height="174pt"
 viewBox="0.00 0.00 149.00 174.00" xmlns="http://www.w3.org/2000/svg" xmlns:xlink="http://www.w3.org/1999/xlink">
<g id="graph0" class="graph" transform="scale(1 1) rotate(0) translate(4 170)">
<title>JointDataRevoluteUnaligned</title>
<polygon fill="white" stroke="none" points="-4,4 -4,-170 145,-170 145,4 -4,4"/>
<!-- Node1 -->
<g id="node1" class="node"><title>Node1</title>
<polygon fill="#bfbfbf" stroke="black" points="0,-0.5 0,-19.5 141,-19.5 141,-0.5 0,-0.5"/>
<text text-anchor="middle" x="70.5" y="-7.5" font-family="Helvetica,sans-Serif" font-size="10.00">JointDataRevoluteUnaligned</text>
</g>
<!-- Node2 -->
<g id="node2" class="node"><title>Node2</title>
<g id="a_node2"><a xlink:href="structse3_1_1JointDataBase.html" target="_top" xlink:title="JointDataBase\&lt; JointData\lRevoluteUnaligned \&gt;">
<polygon fill="white" stroke="black" points="4.5,-57.5 4.5,-87.5 136.5,-87.5 136.5,-57.5 4.5,-57.5"/>
<text text-anchor="start" x="12.5" y="-75.5" font-family="Helvetica,sans-Serif" font-size="10.00">JointDataBase&lt; JointData</text>
<text text-anchor="middle" x="70.5" y="-64.5" font-family="Helvetica,sans-Serif" font-size="10.00">RevoluteUnaligned &gt;</text>
</a>
</g>
</g>
<!-- Node2&#45;&gt;Node1 -->
<g id="edge1" class="edge"><title>Node2&#45;&gt;Node1</title>
<path fill="none" stroke="midnightblue" d="M70.5,-47.3524C70.5,-37.5132 70.5,-26.7753 70.5,-19.5399"/>
<polygon fill="midnightblue" stroke="midnightblue" points="67.0001,-47.468 70.5,-57.468 74.0001,-47.4681 67.0001,-47.468"/>
</g>
<!-- Node3 -->
<g id="node3" class="node"><title>Node3</title>
<g id="a_node3"><a xlink:href="structse3_1_1traits_3_01JointDataRevoluteUnaligned_01_4.html" target="_top" xlink:title="traits\&lt; JointDataRevolute\lUnaligned \&gt;">
<polygon fill="white" stroke="black" points="6.5,-135.5 6.5,-165.5 134.5,-165.5 134.5,-135.5 6.5,-135.5"/>
<text text-anchor="start" x="14.5" y="-153.5" font-family="Helvetica,sans-Serif" font-size="10.00">traits&lt; JointDataRevolute</text>
<text text-anchor="middle" x="70.5" y="-142.5" font-family="Helvetica,sans-Serif" font-size="10.00">Unaligned &gt;</text>
</a>
</g>
</g>
<!-- Node3&#45;&gt;Node2 -->
<g id="edge2" class="edge"><title>Node3&#45;&gt;Node2</title>
<path fill="none" stroke="#9a32cd" stroke-dasharray="5,2" d="M70.5,-125.09C70.5,-112.757 70.5,-98.2237 70.5,-87.7309"/>
<polygon fill="#9a32cd" stroke="#9a32cd" points="67.0001,-125.205 70.5,-135.205 74.0001,-125.205 67.0001,-125.205"/>
<text text-anchor="middle" x="99.5" y="-109" font-family="Helvetica,sans-Serif" font-size="10.00"> JointDerived</text>
</g>
</g>
</svg>
