<?xml version="1.0" encoding="UTF-8" standalone="no"?>
<!DOCTYPE svg PUBLIC "-//W3C//DTD SVG 1.1//EN"
 "http://www.w3.org/Graphics/SVG/1.1/DTD/svg11.dtd">
<!-- Generated by graphviz version 2.38.0 (20140413.2041)
 -->
<!-- Title: ConstraintPlanar::ConstraintTranspose Pages: 1 -->
<svg width="148pt" height="174pt"
 viewBox="0.00 0.00 148.00 174.00" xmlns="http://www.w3.org/2000/svg" xmlns:xlink="http://www.w3.org/1999/xlink">
<g id="graph0" class="graph" transform="scale(1 1) rotate(0) translate(4 170)">
<title>ConstraintPlanar::ConstraintTranspose</title>
<polygon fill="white" stroke="none" points="-4,4 -4,-170 144,-170 144,4 -4,4"/>
<!-- Node1 -->
<g id="node1" class="node"><title>Node1</title>
<polygon fill="#bfbfbf" stroke="black" points="0,-0.5 0,-30.5 140,-30.5 140,-0.5 0,-0.5"/>
<text text-anchor="start" x="8" y="-18.5" font-family="Helvetica,sans-Serif" font-size="10.00">ConstraintPlanar::Constraint</text>
<text text-anchor="middle" x="70" y="-7.5" font-family="Helvetica,sans-Serif" font-size="10.00">Transpose</text>
</g>
<!-- Node2 -->
<g id="node2" class="node"><title>Node2</title>
<g id="a_node2"><a xlink:href="structse3_1_1ConstraintPlanar.html" target="_top" xlink:title="ConstraintPlanar">
<polygon fill="white" stroke="black" points="25.5,-78.5 25.5,-97.5 114.5,-97.5 114.5,-78.5 25.5,-78.5"/>
<text text-anchor="middle" x="70" y="-85.5" font-family="Helvetica,sans-Serif" font-size="10.00">ConstraintPlanar</text>
</a>
</g>
</g>
<!-- Node2&#45;&gt;Node1 -->
<g id="edge1" class="edge"><title>Node2&#45;&gt;Node1</title>
<path fill="none" stroke="#9a32cd" stroke-dasharray="5,2" d="M70,-68.2362C70,-56.4079 70,-41.3829 70,-30.5762"/>
<polygon fill="#9a32cd" stroke="#9a32cd" points="66.5001,-68.3553 70,-78.3553 73.5001,-68.3554 66.5001,-68.3553"/>
<text text-anchor="middle" x="77.5" y="-52" font-family="Helvetica,sans-Serif" font-size="10.00"> ref</text>
</g>
<!-- Node3 -->
<g id="node3" class="node"><title>Node3</title>
<g id="a_node3"><a xlink:href="classse3_1_1ConstraintBase.html" target="_top" xlink:title="ConstraintBase\&lt; Constraint\lPlanar \&gt;">
<polygon fill="white" stroke="black" points="1,-135.5 1,-165.5 139,-165.5 139,-135.5 1,-135.5"/>
<text text-anchor="start" x="9" y="-153.5" font-family="Helvetica,sans-Serif" font-size="10.00">ConstraintBase&lt; Constraint</text>
<text text-anchor="middle" x="70" y="-142.5" font-family="Helvetica,sans-Serif" font-size="10.00">Planar &gt;</text>
</a>
</g>
</g>
<!-- Node3&#45;&gt;Node2 -->
<g id="edge2" class="edge"><title>Node3&#45;&gt;Node2</title>
<path fill="none" stroke="midnightblue" d="M70,-125.352C70,-115.513 70,-104.775 70,-97.5399"/>
<polygon fill="midnightblue" stroke="midnightblue" points="66.5001,-125.468 70,-135.468 73.5001,-125.468 66.5001,-125.468"/>
</g>
</g>
</svg>
