<?xml version="1.0" encoding="UTF-8" standalone="no"?>
<!DOCTYPE svg PUBLIC "-//W3C//DTD SVG 1.1//EN"
 "http://www.w3.org/Graphics/SVG/1.1/DTD/svg11.dtd">
<!-- Generated by graphviz version 2.38.0 (20140413.2041)
 -->
<!-- Title: JointModel Pages: 1 -->
<svg width="274pt" height="152pt"
 viewBox="0.00 0.00 273.50 152.00" xmlns="http://www.w3.org/2000/svg" xmlns:xlink="http://www.w3.org/1999/xlink">
<g id="graph0" class="graph" transform="scale(1 1) rotate(0) translate(4 148)">
<title>JointModel</title>
<polygon fill="white" stroke="none" points="-4,4 -4,-148 269.5,-148 269.5,4 -4,4"/>
<!-- Node1 -->
<g id="node1" class="node"><title>Node1</title>
<polygon fill="#bfbfbf" stroke="black" points="150,-0.5 150,-19.5 214,-19.5 214,-0.5 150,-0.5"/>
<text text-anchor="middle" x="182" y="-7.5" font-family="Helvetica,sans-Serif" font-size="10.00">JointModel</text>
</g>
<!-- Node2 -->
<g id="node2" class="node"><title>Node2</title>
<g id="a_node2"><a xlink:href="structse3_1_1JointModelBase.html" target="_top" xlink:title="JointModelBase\&lt; JointModel \&gt;">
<polygon fill="white" stroke="black" points="0,-57.5 0,-76.5 152,-76.5 152,-57.5 0,-57.5"/>
<text text-anchor="middle" x="76" y="-64.5" font-family="Helvetica,sans-Serif" font-size="10.00">JointModelBase&lt; JointModel &gt;</text>
</a>
</g>
</g>
<!-- Node2&#45;&gt;Node1 -->
<g id="edge1" class="edge"><title>Node2&#45;&gt;Node1</title>
<path fill="none" stroke="midnightblue" d="M101.679,-52.6762C121.554,-42.3634 148.485,-28.3898 165.554,-19.5334"/>
<polygon fill="midnightblue" stroke="midnightblue" points="99.8268,-49.6939 92.5625,-57.4062 103.051,-55.9073 99.8268,-49.6939"/>
</g>
<!-- Node3 -->
<g id="node3" class="node"><title>Node3</title>
<g id="a_node3"><a xlink:href="structse3_1_1traits_3_01JointModel_01_4.html" target="_top" xlink:title="traits\&lt; JointModel \&gt;">
<polygon fill="white" stroke="black" points="24,-124.5 24,-143.5 128,-143.5 128,-124.5 24,-124.5"/>
<text text-anchor="middle" x="76" y="-131.5" font-family="Helvetica,sans-Serif" font-size="10.00">traits&lt; JointModel &gt;</text>
</a>
</g>
</g>
<!-- Node3&#45;&gt;Node2 -->
<g id="edge2" class="edge"><title>Node3&#45;&gt;Node2</title>
<path fill="none" stroke="#9a32cd" stroke-dasharray="5,2" d="M76,-114.037C76,-101.67 76,-86.1198 76,-76.6273"/>
<polygon fill="#9a32cd" stroke="#9a32cd" points="72.5001,-114.234 76,-124.234 79.5001,-114.234 72.5001,-114.234"/>
<text text-anchor="middle" x="105" y="-98" font-family="Helvetica,sans-Serif" font-size="10.00"> JointDerived</text>
</g>
<!-- Node4 -->
<g id="node4" class="node"><title>Node4</title>
<polygon fill="white" stroke="#bfbfbf" points="170.5,-57.5 170.5,-76.5 265.5,-76.5 265.5,-57.5 170.5,-57.5"/>
<text text-anchor="middle" x="218" y="-64.5" font-family="Helvetica,sans-Serif" font-size="10.00">JointModelVariant</text>
</g>
<!-- Node4&#45;&gt;Node1 -->
<g id="edge3" class="edge"><title>Node4&#45;&gt;Node1</title>
<path fill="none" stroke="midnightblue" d="M206.831,-48.9356C200.492,-39.2513 192.826,-27.5397 187.704,-19.7149"/>
<polygon fill="midnightblue" stroke="midnightblue" points="203.97,-50.956 212.375,-57.4062 209.827,-47.1224 203.97,-50.956"/>
</g>
</g>
</svg>
