<?xml version="1.0" encoding="UTF-8" standalone="no"?>
<!DOCTYPE svg PUBLIC "-//W3C//DTD SVG 1.1//EN"
 "http://www.w3.org/Graphics/SVG/1.1/DTD/svg11.dtd">
<!-- Generated by graphviz version 2.38.0 (20140413.2041)
 -->
<!-- Title: Data Pages: 1 -->
<svg width="700pt" height="693pt"
 viewBox="0.00 0.00 700.00 692.50" xmlns="http://www.w3.org/2000/svg" xmlns:xlink="http://www.w3.org/1999/xlink">
<g id="graph0" class="graph" transform="scale(1 1) rotate(0) translate(4 688.5)">
<title>Data</title>
<polygon fill="white" stroke="none" points="-4,4 -4,-688.5 696,-688.5 696,4 -4,4"/>
<!-- Node1 -->
<g id="node1" class="node"><title>Node1</title>
<polygon fill="#bfbfbf" stroke="black" points="654,-312.5 654,-331.5 692,-331.5 692,-312.5 654,-312.5"/>
<text text-anchor="middle" x="673" y="-319.5" font-family="Helvetica,sans-Serif" font-size="10.00">Data</text>
</g>
<!-- Node2 -->
<g id="node2" class="node"><title>Node2</title>
<g id="a_node2"><a xlink:href="structse3_1_1container_1_1aligned__vector.html" target="_top" xlink:title="aligned_vector\&lt; Matrix6x \&gt;">
<polygon fill="white" stroke="black" points="390.5,-622.5 390.5,-641.5 525.5,-641.5 525.5,-622.5 390.5,-622.5"/>
<text text-anchor="middle" x="458" y="-629.5" font-family="Helvetica,sans-Serif" font-size="10.00">aligned_vector&lt; Matrix6x &gt;</text>
</a>
</g>
</g>
<!-- Node2&#45;&gt;Node1 -->
<g id="edge1" class="edge"><title>Node2&#45;&gt;Node1</title>
<path fill="none" stroke="#9a32cd" stroke-dasharray="5,2" d="M536.138,-633.093C571.482,-629.371 610.983,-618.502 636,-591 671.51,-551.962 672.44,-375.287 672.118,-331.729"/>
<polygon fill="#9a32cd" stroke="#9a32cd" points="535.468,-629.638 525.81,-633.995 536.077,-636.611 535.468,-629.638"/>
<text text-anchor="middle" x="591" y="-634" font-family="Helvetica,sans-Serif" font-size="10.00"> Fcrb</text>
</g>
<!-- Node3 -->
<g id="node3" class="node"><title>Node3</title>
<g id="a_node3"><a xlink:title="STL class. ">
<polygon fill="white" stroke="#bfbfbf" points="108,-654 108,-684 268,-684 268,-654 108,-654"/>
<text text-anchor="start" x="116" y="-672" font-family="Helvetica,sans-Serif" font-size="10.00">vector&lt; Matrix6x, Eigen</text>
<text text-anchor="middle" x="188" y="-661" font-family="Helvetica,sans-Serif" font-size="10.00">::aligned_allocator&lt; Matrix6x &gt; &gt;</text>
</a>
</g>
</g>
<!-- Node3&#45;&gt;Node2 -->
<g id="edge2" class="edge"><title>Node3&#45;&gt;Node2</title>
<path fill="none" stroke="midnightblue" d="M278.462,-656.649C314.919,-651.616 356.339,-645.897 390.099,-641.236"/>
<polygon fill="midnightblue" stroke="midnightblue" points="277.748,-653.214 268.321,-658.049 278.706,-660.148 277.748,-653.214"/>
</g>
<!-- Node4 -->
<g id="node4" class="node"><title>Node4</title>
<polygon fill="white" stroke="#bfbfbf" points="0,-442.5 0,-461.5 29,-461.5 29,-442.5 0,-442.5"/>
<text text-anchor="middle" x="14.5" y="-449.5" font-family="Helvetica,sans-Serif" font-size="10.00">T</text>
</g>
<!-- Node4&#45;&gt;Node3 -->
<g id="edge3" class="edge"><title>Node4&#45;&gt;Node3</title>
<path fill="none" stroke="#9a32cd" stroke-dasharray="5,2" d="M16.7681,-471.841C19.237,-498.976 26.4116,-548.46 47,-585 65.6675,-618.131 75.3059,-625.578 108,-645 113.669,-648.368 119.851,-651.3 126.18,-653.845"/>
<polygon fill="#9a32cd" stroke="#9a32cd" points="20.2427,-471.379 15.9726,-461.683 13.264,-471.925 20.2427,-471.379"/>
<text text-anchor="middle" x="68.5" y="-636" font-family="Helvetica,sans-Serif" font-size="10.00"> elements</text>
</g>
<!-- Node6 -->
<g id="node6" class="node"><title>Node6</title>
<g id="a_node6"><a xlink:title="STL class. ">
<polygon fill="white" stroke="#bfbfbf" points="126.5,-594.5 126.5,-635.5 249.5,-635.5 249.5,-594.5 126.5,-594.5"/>
<text text-anchor="start" x="134.5" y="-623.5" font-family="Helvetica,sans-Serif" font-size="10.00">vector&lt; JointData,</text>
<text text-anchor="start" x="134.5" y="-612.5" font-family="Helvetica,sans-Serif" font-size="10.00"> Eigen::aligned_allocator</text>
<text text-anchor="middle" x="188" y="-601.5" font-family="Helvetica,sans-Serif" font-size="10.00">&lt; JointData &gt; &gt;</text>
</a>
</g>
</g>
<!-- Node4&#45;&gt;Node6 -->
<g id="edge6" class="edge"><title>Node4&#45;&gt;Node6</title>
<path fill="none" stroke="#9a32cd" stroke-dasharray="5,2" d="M22.5104,-471.405C28.0686,-485.518 36.6161,-504.744 47,-520 69.1099,-552.485 75.3847,-562.083 108,-584 113.748,-587.862 120.048,-591.351 126.503,-594.474"/>
<polygon fill="#9a32cd" stroke="#9a32cd" points="25.6736,-469.874 18.8618,-461.759 19.1264,-472.351 25.6736,-469.874"/>
<text text-anchor="middle" x="68.5" y="-573" font-family="Helvetica,sans-Serif" font-size="10.00"> elements</text>
</g>
<!-- Node8 -->
<g id="node8" class="node"><title>Node8</title>
<g id="a_node8"><a xlink:title="STL class. ">
<polygon fill="white" stroke="#bfbfbf" points="123,-523 123,-575 253,-575 253,-523 123,-523"/>
<text text-anchor="start" x="131" y="-563" font-family="Helvetica,sans-Serif" font-size="10.00">vector&lt; se3::InertiaTpl</text>
<text text-anchor="start" x="131" y="-552" font-family="Helvetica,sans-Serif" font-size="10.00">::Matrix6, Eigen::aligned</text>
<text text-anchor="start" x="131" y="-541" font-family="Helvetica,sans-Serif" font-size="10.00">_allocator&lt; se3::InertiaTpl</text>
<text text-anchor="middle" x="188" y="-530" font-family="Helvetica,sans-Serif" font-size="10.00">::Matrix6 &gt; &gt;</text>
</a>
</g>
</g>
<!-- Node4&#45;&gt;Node8 -->
<g id="edge9" class="edge"><title>Node4&#45;&gt;Node8</title>
<path fill="none" stroke="#9a32cd" stroke-dasharray="5,2" d="M32.6893,-468.559C37.1803,-472.521 42.1315,-476.588 47,-480 70.7438,-496.64 99.097,-511.424 124.058,-522.997"/>
<polygon fill="#9a32cd" stroke="#9a32cd" points="34.9541,-465.887 25.2198,-461.705 30.2211,-471.045 34.9541,-465.887"/>
<text text-anchor="middle" x="68.5" y="-508" font-family="Helvetica,sans-Serif" font-size="10.00"> elements</text>
</g>
<!-- Node10 -->
<g id="node10" class="node"><title>Node10</title>
<g id="a_node10"><a xlink:title="STL class. ">
<polygon fill="white" stroke="#bfbfbf" points="126.5,-462.5 126.5,-503.5 249.5,-503.5 249.5,-462.5 126.5,-462.5"/>
<text text-anchor="start" x="134.5" y="-491.5" font-family="Helvetica,sans-Serif" font-size="10.00">vector&lt; se3::ForceTpl,</text>
<text text-anchor="start" x="134.5" y="-480.5" font-family="Helvetica,sans-Serif" font-size="10.00"> Eigen::aligned_allocator</text>
<text text-anchor="middle" x="188" y="-469.5" font-family="Helvetica,sans-Serif" font-size="10.00">&lt; se3::ForceTpl &gt; &gt;</text>
</a>
</g>
</g>
<!-- Node4&#45;&gt;Node10 -->
<g id="edge12" class="edge"><title>Node4&#45;&gt;Node10</title>
<path fill="none" stroke="#9a32cd" stroke-dasharray="5,2" d="M39.1862,-456.281C61.5755,-460.329 96.1227,-466.573 126.189,-472.008"/>
<polygon fill="#9a32cd" stroke="#9a32cd" points="39.7078,-452.819 29.2447,-454.484 38.4626,-459.707 39.7078,-452.819"/>
<text text-anchor="middle" x="68.5" y="-468" font-family="Helvetica,sans-Serif" font-size="10.00"> elements</text>
</g>
<!-- Node12 -->
<g id="node12" class="node"><title>Node12</title>
<g id="a_node12"><a xlink:title="STL class. ">
<polygon fill="white" stroke="#bfbfbf" points="125.5,-402.5 125.5,-443.5 250.5,-443.5 250.5,-402.5 125.5,-402.5"/>
<text text-anchor="start" x="133.5" y="-431.5" font-family="Helvetica,sans-Serif" font-size="10.00">vector&lt; Eigen::Vector3d,</text>
<text text-anchor="start" x="133.5" y="-420.5" font-family="Helvetica,sans-Serif" font-size="10.00"> Eigen::aligned_allocator</text>
<text text-anchor="middle" x="188" y="-409.5" font-family="Helvetica,sans-Serif" font-size="10.00">&lt; Eigen::Vector3d &gt; &gt;</text>
</a>
</g>
</g>
<!-- Node4&#45;&gt;Node12 -->
<g id="edge15" class="edge"><title>Node4&#45;&gt;Node12</title>
<path fill="none" stroke="#9a32cd" stroke-dasharray="5,2" d="M39.0844,-444.886C41.7417,-444.196 44.4204,-443.55 47,-443 72.4532,-437.572 100.831,-433.21 125.347,-429.962"/>
<polygon fill="#9a32cd" stroke="#9a32cd" points="37.8878,-441.586 29.1976,-447.646 39.7705,-448.328 37.8878,-441.586"/>
<text text-anchor="middle" x="68.5" y="-446" font-family="Helvetica,sans-Serif" font-size="10.00"> elements</text>
</g>
<!-- Node14 -->
<g id="node14" class="node"><title>Node14</title>
<g id="a_node14"><a xlink:title="STL class. ">
<polygon fill="white" stroke="#bfbfbf" points="126.5,-342.5 126.5,-383.5 249.5,-383.5 249.5,-342.5 126.5,-342.5"/>
<text text-anchor="start" x="134.5" y="-371.5" font-family="Helvetica,sans-Serif" font-size="10.00">vector&lt; se3::SE3Tpl,</text>
<text text-anchor="start" x="134.5" y="-360.5" font-family="Helvetica,sans-Serif" font-size="10.00"> Eigen::aligned_allocator</text>
<text text-anchor="middle" x="188" y="-349.5" font-family="Helvetica,sans-Serif" font-size="10.00">&lt; se3::SE3Tpl &gt; &gt;</text>
</a>
</g>
</g>
<!-- Node4&#45;&gt;Node14 -->
<g id="edge18" class="edge"><title>Node4&#45;&gt;Node14</title>
<path fill="none" stroke="#9a32cd" stroke-dasharray="5,2" d="M30.5854,-435.048C35.5024,-430.125 41.1973,-425.003 47,-421 71.0382,-404.418 100.551,-391.311 126.272,-381.784"/>
<polygon fill="#9a32cd" stroke="#9a32cd" points="27.9294,-432.763 23.5951,-442.43 33.0123,-437.576 27.9294,-432.763"/>
<text text-anchor="middle" x="68.5" y="-424" font-family="Helvetica,sans-Serif" font-size="10.00"> elements</text>
</g>
<!-- Node22 -->
<g id="node22" class="node"><title>Node22</title>
<g id="a_node22"><a xlink:title="STL class. ">
<polygon fill="white" stroke="#bfbfbf" points="126.5,-108.5 126.5,-149.5 249.5,-149.5 249.5,-108.5 126.5,-108.5"/>
<text text-anchor="start" x="134.5" y="-137.5" font-family="Helvetica,sans-Serif" font-size="10.00">vector&lt; se3::MotionTpl,</text>
<text text-anchor="start" x="134.5" y="-126.5" font-family="Helvetica,sans-Serif" font-size="10.00"> Eigen::aligned_allocator</text>
<text text-anchor="middle" x="188" y="-115.5" font-family="Helvetica,sans-Serif" font-size="10.00">&lt; se3::MotionTpl &gt; &gt;</text>
</a>
</g>
</g>
<!-- Node4&#45;&gt;Node22 -->
<g id="edge29" class="edge"><title>Node4&#45;&gt;Node22</title>
<path fill="none" stroke="#9a32cd" stroke-dasharray="5,2" d="M15.9862,-432.159C18.3307,-380.063 31.7662,-237.903 108,-158 113.244,-152.503 119.618,-148.043 126.445,-144.425"/>
<polygon fill="#9a32cd" stroke="#9a32cd" points="12.4809,-432.249 15.6223,-442.368 19.4764,-432.499 12.4809,-432.249"/>
<text text-anchor="middle" x="68.5" y="-261" font-family="Helvetica,sans-Serif" font-size="10.00"> elements</text>
</g>
<!-- Node28 -->
<g id="node28" class="node"><title>Node28</title>
<g id="a_node28"><a xlink:title="STL class. ">
<polygon fill="white" stroke="#bfbfbf" points="126.5,-0.5 126.5,-41.5 249.5,-41.5 249.5,-0.5 126.5,-0.5"/>
<text text-anchor="start" x="134.5" y="-29.5" font-family="Helvetica,sans-Serif" font-size="10.00">vector&lt; se3::InertiaTpl,</text>
<text text-anchor="start" x="134.5" y="-18.5" font-family="Helvetica,sans-Serif" font-size="10.00"> Eigen::aligned_allocator</text>
<text text-anchor="middle" x="188" y="-7.5" font-family="Helvetica,sans-Serif" font-size="10.00">&lt; se3::InertiaTpl &gt; &gt;</text>
</a>
</g>
</g>
<!-- Node4&#45;&gt;Node28 -->
<g id="edge36" class="edge"><title>Node4&#45;&gt;Node28</title>
<path fill="none" stroke="#9a32cd" stroke-dasharray="5,2" d="M15.2728,-432.225C15.2526,-385.412 18.2438,-264.573 47,-169 64.1239,-112.088 63.4936,-89.3882 108,-50 113.47,-45.1587 119.818,-41.1022 126.49,-37.7087"/>
<polygon fill="#9a32cd" stroke="#9a32cd" points="11.7742,-432.49 15.329,-442.471 18.774,-432.452 11.7742,-432.49"/>
<text text-anchor="middle" x="68.5" y="-172" font-family="Helvetica,sans-Serif" font-size="10.00"> elements</text>
</g>
<!-- Node5 -->
<g id="node5" class="node"><title>Node5</title>
<g id="a_node5"><a xlink:href="structse3_1_1container_1_1aligned__vector.html" target="_top" xlink:title="aligned_vector\&lt; JointData \&gt;">
<polygon fill="white" stroke="black" points="388,-576.5 388,-595.5 528,-595.5 528,-576.5 388,-576.5"/>
<text text-anchor="middle" x="458" y="-583.5" font-family="Helvetica,sans-Serif" font-size="10.00">aligned_vector&lt; JointData &gt;</text>
</a>
</g>
</g>
<!-- Node5&#45;&gt;Node1 -->
<g id="edge4" class="edge"><title>Node5&#45;&gt;Node1</title>
<path fill="none" stroke="#9a32cd" stroke-dasharray="5,2" d="M538.039,-578.283C578.565,-572.658 622.249,-563.439 636,-549 666.477,-516.999 671.165,-370.436 671.875,-331.513"/>
<polygon fill="#9a32cd" stroke="#9a32cd" points="537.55,-574.817 528.098,-579.602 538.471,-581.757 537.55,-574.817"/>
<text text-anchor="middle" x="591" y="-579" font-family="Helvetica,sans-Serif" font-size="10.00"> joints</text>
</g>
<!-- Node6&#45;&gt;Node5 -->
<g id="edge5" class="edge"><title>Node6&#45;&gt;Node5</title>
<path fill="none" stroke="midnightblue" d="M259.924,-607.325C299.518,-603.041 348.631,-597.726 387.923,-593.475"/>
<polygon fill="midnightblue" stroke="midnightblue" points="259.379,-603.864 249.813,-608.419 260.132,-610.823 259.379,-603.864"/>
</g>
<!-- Node7 -->
<g id="node7" class="node"><title>Node7</title>
<g id="a_node7"><a xlink:href="structse3_1_1container_1_1aligned__vector.html" target="_top" xlink:title="aligned_vector\&lt; se3\l::InertiaTpl::Matrix6 \&gt;">
<polygon fill="white" stroke="black" points="403,-519 403,-549 513,-549 513,-519 403,-519"/>
<text text-anchor="start" x="411" y="-537" font-family="Helvetica,sans-Serif" font-size="10.00">aligned_vector&lt; se3</text>
<text text-anchor="middle" x="458" y="-526" font-family="Helvetica,sans-Serif" font-size="10.00">::InertiaTpl::Matrix6 &gt;</text>
</a>
</g>
</g>
<!-- Node7&#45;&gt;Node1 -->
<g id="edge7" class="edge"><title>Node7&#45;&gt;Node1</title>
<path fill="none" stroke="#9a32cd" stroke-dasharray="5,2" d="M523.782,-538.637C561.377,-537.682 606.905,-529.686 636,-501 660.491,-476.853 669.329,-365.027 671.453,-331.516"/>
<polygon fill="#9a32cd" stroke="#9a32cd" points="523.377,-535.141 513.409,-538.731 523.441,-542.14 523.377,-535.141"/>
<text text-anchor="middle" x="591" y="-540" font-family="Helvetica,sans-Serif" font-size="10.00"> dYcrb</text>
</g>
<!-- Node8&#45;&gt;Node7 -->
<g id="edge8" class="edge"><title>Node8&#45;&gt;Node7</title>
<path fill="none" stroke="midnightblue" d="M263.319,-544.84C307.557,-542.364 362.699,-539.278 402.82,-537.032"/>
<polygon fill="midnightblue" stroke="midnightblue" points="262.981,-541.354 253.193,-545.407 263.373,-548.343 262.981,-541.354"/>
</g>
<!-- Node9 -->
<g id="node9" class="node"><title>Node9</title>
<g id="a_node9"><a xlink:href="structse3_1_1container_1_1aligned__vector.html" target="_top" xlink:title="aligned_vector\&lt; se3\l::ForceTpl \&gt;">
<polygon fill="white" stroke="black" points="406,-465 406,-495 510,-495 510,-465 406,-465"/>
<text text-anchor="start" x="414" y="-483" font-family="Helvetica,sans-Serif" font-size="10.00">aligned_vector&lt; se3</text>
<text text-anchor="middle" x="458" y="-472" font-family="Helvetica,sans-Serif" font-size="10.00">::ForceTpl &gt;</text>
</a>
</g>
</g>
<!-- Node9&#45;&gt;Node1 -->
<g id="edge10" class="edge"><title>Node9&#45;&gt;Node1</title>
<path fill="none" stroke="#9a32cd" stroke-dasharray="5,2" d="M520.488,-487.559C558.153,-488.694 604.929,-483.336 636,-456 673.256,-423.221 673.864,-356.428 672.68,-331.587"/>
<polygon fill="#9a32cd" stroke="#9a32cd" points="520.278,-484.046 510.127,-487.08 519.955,-491.038 520.278,-484.046"/>
<text text-anchor="middle" x="591" y="-491" font-family="Helvetica,sans-Serif" font-size="10.00"> f</text>
</g>
<!-- Node10&#45;&gt;Node9 -->
<g id="edge11" class="edge"><title>Node10&#45;&gt;Node9</title>
<path fill="none" stroke="midnightblue" d="M259.994,-482.205C305.889,-481.692 364.549,-481.035 405.884,-480.572"/>
<polygon fill="midnightblue" stroke="midnightblue" points="259.774,-478.707 249.813,-482.319 259.852,-485.707 259.774,-478.707"/>
</g>
<!-- Node11 -->
<g id="node11" class="node"><title>Node11</title>
<g id="a_node11"><a xlink:href="structse3_1_1container_1_1aligned__vector.html" target="_top" xlink:title="aligned_vector\&lt; Eigen\l::Vector3d \&gt;">
<polygon fill="white" stroke="black" points="401.5,-408 401.5,-438 514.5,-438 514.5,-408 401.5,-408"/>
<text text-anchor="start" x="409.5" y="-426" font-family="Helvetica,sans-Serif" font-size="10.00">aligned_vector&lt; Eigen</text>
<text text-anchor="middle" x="458" y="-415" font-family="Helvetica,sans-Serif" font-size="10.00">::Vector3d &gt;</text>
</a>
</g>
</g>
<!-- Node11&#45;&gt;Node1 -->
<g id="edge13" class="edge"><title>Node11&#45;&gt;Node1</title>
<path fill="none" stroke="#9a32cd" stroke-dasharray="5,2" d="M524.93,-420.139C567.697,-417.085 618.586,-410.813 636,-398 658.225,-381.646 667.256,-348.015 670.46,-331.532"/>
<polygon fill="#9a32cd" stroke="#9a32cd" points="524.567,-416.656 514.822,-420.814 525.033,-423.64 524.567,-416.656"/>
<text text-anchor="middle" x="591" y="-444" font-family="Helvetica,sans-Serif" font-size="10.00"> acom</text>
<text text-anchor="middle" x="591" y="-433" font-family="Helvetica,sans-Serif" font-size="10.00">com</text>
<text text-anchor="middle" x="591" y="-422" font-family="Helvetica,sans-Serif" font-size="10.00">vcom</text>
</g>
<!-- Node12&#45;&gt;Node11 -->
<g id="edge14" class="edge"><title>Node12&#45;&gt;Node11</title>
<path fill="none" stroke="midnightblue" d="M260.909,-423C305.029,-423 360.678,-423 401.413,-423"/>
<polygon fill="midnightblue" stroke="midnightblue" points="260.821,-419.5 250.821,-423 260.821,-426.5 260.821,-419.5"/>
</g>
<!-- Node13 -->
<g id="node13" class="node"><title>Node13</title>
<g id="a_node13"><a xlink:href="structse3_1_1container_1_1aligned__vector.html" target="_top" xlink:title="aligned_vector\&lt; se3\l::SE3Tpl \&gt;">
<polygon fill="white" stroke="black" points="406,-343 406,-373 510,-373 510,-343 406,-343"/>
<text text-anchor="start" x="414" y="-361" font-family="Helvetica,sans-Serif" font-size="10.00">aligned_vector&lt; se3</text>
<text text-anchor="middle" x="458" y="-350" font-family="Helvetica,sans-Serif" font-size="10.00">::SE3Tpl &gt;</text>
</a>
</g>
</g>
<!-- Node13&#45;&gt;Node1 -->
<g id="edge16" class="edge"><title>Node13&#45;&gt;Node1</title>
<path fill="none" stroke="#9a32cd" stroke-dasharray="5,2" d="M520.527,-352.515C554.802,-348.748 598.087,-342.808 636,-334 641.904,-332.628 648.214,-330.693 653.875,-328.776"/>
<polygon fill="#9a32cd" stroke="#9a32cd" points="519.768,-349.076 510.195,-353.615 520.509,-356.037 519.768,-349.076"/>
<text text-anchor="middle" x="591" y="-386" font-family="Helvetica,sans-Serif" font-size="10.00"> oMf</text>
<text text-anchor="middle" x="591" y="-375" font-family="Helvetica,sans-Serif" font-size="10.00">oMi</text>
<text text-anchor="middle" x="591" y="-364" font-family="Helvetica,sans-Serif" font-size="10.00">liMi</text>
<text text-anchor="middle" x="591" y="-353" font-family="Helvetica,sans-Serif" font-size="10.00">iMf</text>
</g>
<!-- Node14&#45;&gt;Node13 -->
<g id="edge17" class="edge"><title>Node14&#45;&gt;Node13</title>
<path fill="none" stroke="midnightblue" d="M259.994,-361.675C305.889,-360.819 364.549,-359.725 405.884,-358.954"/>
<polygon fill="midnightblue" stroke="midnightblue" points="259.746,-358.179 249.813,-361.865 259.877,-365.178 259.746,-358.179"/>
</g>
<!-- Node15 -->
<g id="node15" class="node"><title>Node15</title>
<g id="a_node15"><a xlink:href="classse3_1_1InertiaTpl.html" target="_top" xlink:title="InertiaTpl\&lt; double, 0 \&gt;">
<polygon fill="white" stroke="black" points="400.5,-303.5 400.5,-322.5 515.5,-322.5 515.5,-303.5 400.5,-303.5"/>
<text text-anchor="middle" x="458" y="-310.5" font-family="Helvetica,sans-Serif" font-size="10.00">InertiaTpl&lt; double, 0 &gt;</text>
</a>
</g>
</g>
<!-- Node15&#45;&gt;Node1 -->
<g id="edge19" class="edge"><title>Node15&#45;&gt;Node1</title>
<path fill="none" stroke="#9a32cd" stroke-dasharray="5,2" d="M525.693,-315.818C570.141,-317.696 625.394,-320.031 653.583,-321.222"/>
<polygon fill="#9a32cd" stroke="#9a32cd" points="525.66,-312.314 515.521,-315.388 525.364,-319.307 525.66,-312.314"/>
<text text-anchor="middle" x="591" y="-324" font-family="Helvetica,sans-Serif" font-size="10.00"> Ig</text>
</g>
<!-- Node16 -->
<g id="node16" class="node"><title>Node16</title>
<g id="a_node16"><a xlink:href="classse3_1_1InertiaBase.html" target="_top" xlink:title="InertiaBase\&lt; InertiaTpl\l\&lt; double, _Options \&gt; \&gt;">
<polygon fill="white" stroke="black" points="129.5,-294 129.5,-324 246.5,-324 246.5,-294 129.5,-294"/>
<text text-anchor="start" x="137.5" y="-312" font-family="Helvetica,sans-Serif" font-size="10.00">InertiaBase&lt; InertiaTpl</text>
<text text-anchor="middle" x="188" y="-301" font-family="Helvetica,sans-Serif" font-size="10.00">&lt; double, _Options &gt; &gt;</text>
</a>
</g>
</g>
<!-- Node16&#45;&gt;Node15 -->
<g id="edge20" class="edge"><title>Node16&#45;&gt;Node15</title>
<path fill="none" stroke="midnightblue" d="M256.802,-312.941C266.596,-313.38 276.554,-313.757 286,-314 323.321,-314.961 332.667,-314.215 370,-314 379.818,-313.944 390.259,-313.851 400.374,-313.745"/>
<polygon fill="midnightblue" stroke="midnightblue" points="256.838,-309.439 246.684,-312.463 256.508,-316.431 256.838,-309.439"/>
</g>
<!-- Node17 -->
<g id="node17" class="node"><title>Node17</title>
<g id="a_node17"><a xlink:href="classse3_1_1Symmetric3Tpl.html" target="_top" xlink:title="Symmetric3Tpl\&lt; double, 0 \&gt;">
<polygon fill="white" stroke="black" points="118,-217.5 118,-236.5 258,-236.5 258,-217.5 118,-217.5"/>
<text text-anchor="middle" x="188" y="-224.5" font-family="Helvetica,sans-Serif" font-size="10.00">Symmetric3Tpl&lt; double, 0 &gt;</text>
</a>
</g>
</g>
<!-- Node17&#45;&gt;Node15 -->
<g id="edge21" class="edge"><title>Node17&#45;&gt;Node15</title>
<path fill="none" stroke="#9a32cd" stroke-dasharray="5,2" d="M268.5,-221.214C302.638,-222.605 341.209,-229.782 370,-251 385.368,-262.326 373.775,-277.268 388,-290 394.492,-295.811 402.497,-300.16 410.728,-303.413"/>
<polygon fill="#9a32cd" stroke="#9a32cd" points="268.146,-217.704 258.063,-220.959 267.974,-224.702 268.146,-217.704"/>
<text text-anchor="middle" x="328" y="-254" font-family="Helvetica,sans-Serif" font-size="10.00"> I</text>
</g>
<!-- Node19 -->
<g id="node19" class="node"><title>Node19</title>
<g id="a_node19"><a xlink:href="classse3_1_1InertiaTpl.html" target="_top" xlink:title="InertiaTpl\&lt; _Scalar,\l _Options \&gt;">
<polygon fill="white" stroke="black" points="407,-251 407,-281 509,-281 509,-251 407,-251"/>
<text text-anchor="start" x="415" y="-269" font-family="Helvetica,sans-Serif" font-size="10.00">InertiaTpl&lt; _Scalar,</text>
<text text-anchor="middle" x="458" y="-258" font-family="Helvetica,sans-Serif" font-size="10.00"> _Options &gt;</text>
</a>
</g>
</g>
<!-- Node17&#45;&gt;Node19 -->
<g id="edge25" class="edge"><title>Node17&#45;&gt;Node19</title>
<path fill="none" stroke="#9a32cd" stroke-dasharray="5,2" d="M238.869,-214.97C248.567,-212.463 258.628,-209.744 268,-207 276.093,-204.63 277.676,-202.351 286,-201 322.851,-195.02 338.016,-181.743 370,-201 384.648,-209.819 375.525,-223.307 388,-235 394.899,-241.466 403.375,-246.748 411.995,-250.999"/>
<polygon fill="#9a32cd" stroke="#9a32cd" points="237.767,-211.639 228.94,-217.498 239.494,-218.422 237.767,-211.639"/>
<text text-anchor="middle" x="328" y="-204" font-family="Helvetica,sans-Serif" font-size="10.00"> I</text>
</g>
<!-- Node18 -->
<g id="node18" class="node"><title>Node18</title>
<g id="a_node18"><a xlink:href="structse3_1_1Symmetric3Tpl_1_1AlphaSkewSquare.html" target="_top" xlink:title="AlphaSkewSquare">
<polygon fill="white" stroke="black" points="139.5,-255.5 139.5,-274.5 236.5,-274.5 236.5,-255.5 139.5,-255.5"/>
<text text-anchor="middle" x="188" y="-262.5" font-family="Helvetica,sans-Serif" font-size="10.00">AlphaSkewSquare</text>
</a>
</g>
</g>
<!-- Node18&#45;&gt;Node15 -->
<g id="edge22" class="edge"><title>Node18&#45;&gt;Node15</title>
<path fill="none" stroke="#9a32cd" stroke-dasharray="5,2" d="M246.559,-275.309C293.213,-283.665 358.442,-295.348 403.867,-303.484"/>
<polygon fill="#9a32cd" stroke="#9a32cd" points="247.065,-271.844 236.604,-273.526 245.831,-278.734 247.065,-271.844"/>
<text text-anchor="middle" x="328" y="-300" font-family="Helvetica,sans-Serif" font-size="10.00"> AlphaSkewSquare</text>
</g>
<!-- Node18&#45;&gt;Node19 -->
<g id="edge26" class="edge"><title>Node18&#45;&gt;Node19</title>
<path fill="none" stroke="#9a32cd" stroke-dasharray="5,2" d="M246.756,-265.216C294.361,-265.393 361.206,-265.643 406.654,-265.812"/>
<polygon fill="#9a32cd" stroke="#9a32cd" points="246.617,-261.715 236.604,-265.178 246.591,-268.715 246.617,-261.715"/>
<text text-anchor="middle" x="328" y="-269" font-family="Helvetica,sans-Serif" font-size="10.00"> AlphaSkewSquare</text>
</g>
<!-- Node19&#45;&gt;Node1 -->
<g id="edge23" class="edge"><title>Node19&#45;&gt;Node1</title>
<path fill="none" stroke="#9a32cd" stroke-dasharray="5,2" d="M519.362,-273.584C554.184,-279.108 598.385,-288.104 636,-302 643.243,-304.676 650.782,-308.654 657.078,-312.358"/>
<polygon fill="#9a32cd" stroke="#9a32cd" points="519.754,-270.103 509.339,-272.048 518.694,-277.022 519.754,-270.103"/>
<text text-anchor="middle" x="591" y="-305" font-family="Helvetica,sans-Serif" font-size="10.00"> Yaba</text>
</g>
<!-- Node20 -->
<g id="node20" class="node"><title>Node20</title>
<g id="a_node20"><a xlink:href="classse3_1_1InertiaBase.html" target="_top" xlink:title="InertiaBase\&lt; InertiaTpl\l\&lt; _Scalar, _Options \&gt; \&gt;">
<polygon fill="white" stroke="black" points="127,-168 127,-198 249,-198 249,-168 127,-168"/>
<text text-anchor="start" x="135" y="-186" font-family="Helvetica,sans-Serif" font-size="10.00">InertiaBase&lt; InertiaTpl</text>
<text text-anchor="middle" x="188" y="-175" font-family="Helvetica,sans-Serif" font-size="10.00">&lt; _Scalar, _Options &gt; &gt;</text>
</a>
</g>
</g>
<!-- Node20&#45;&gt;Node19 -->
<g id="edge24" class="edge"><title>Node20&#45;&gt;Node19</title>
<path fill="none" stroke="midnightblue" d="M259.32,-166.997C295.495,-162.834 338.484,-164.64 370,-187 388.582,-200.184 372.409,-218.386 388,-235 394.111,-241.512 401.844,-246.751 409.906,-250.935"/>
<polygon fill="midnightblue" stroke="midnightblue" points="258.769,-163.539 249.313,-168.317 259.685,-170.479 258.769,-163.539"/>
</g>
<!-- Node21 -->
<g id="node21" class="node"><title>Node21</title>
<g id="a_node21"><a xlink:href="structse3_1_1container_1_1aligned__vector.html" target="_top" xlink:title="aligned_vector\&lt; se3\l::MotionTpl \&gt;">
<polygon fill="white" stroke="black" points="406,-196 406,-226 510,-226 510,-196 406,-196"/>
<text text-anchor="start" x="414" y="-214" font-family="Helvetica,sans-Serif" font-size="10.00">aligned_vector&lt; se3</text>
<text text-anchor="middle" x="458" y="-203" font-family="Helvetica,sans-Serif" font-size="10.00">::MotionTpl &gt;</text>
</a>
</g>
</g>
<!-- Node21&#45;&gt;Node1 -->
<g id="edge27" class="edge"><title>Node21&#45;&gt;Node1</title>
<path fill="none" stroke="#9a32cd" stroke-dasharray="5,2" d="M520.382,-208.435C557.363,-209.967 603.442,-217.678 636,-243 658.605,-260.581 667.486,-295.582 670.563,-312.461"/>
<polygon fill="#9a32cd" stroke="#9a32cd" points="520.304,-204.932 510.212,-208.158 520.113,-211.929 520.304,-204.932"/>
<text text-anchor="middle" x="591" y="-268" font-family="Helvetica,sans-Serif" font-size="10.00"> a</text>
<text text-anchor="middle" x="591" y="-257" font-family="Helvetica,sans-Serif" font-size="10.00">a_gf</text>
<text text-anchor="middle" x="591" y="-246" font-family="Helvetica,sans-Serif" font-size="10.00">v</text>
</g>
<!-- Node22&#45;&gt;Node21 -->
<g id="edge28" class="edge"><title>Node22&#45;&gt;Node21</title>
<path fill="none" stroke="midnightblue" d="M260.252,-124.225C295.876,-125.184 338.079,-131.707 370,-153 383.254,-161.841 375.906,-173.629 388,-184 393.468,-188.689 399.846,-192.619 406.474,-195.897"/>
<polygon fill="midnightblue" stroke="midnightblue" points="259.954,-120.721 249.911,-124.095 259.866,-127.721 259.954,-120.721"/>
</g>
<!-- Node23 -->
<g id="node23" class="node"><title>Node23</title>
<polygon fill="white" stroke="#bfbfbf" points="422,-155.5 422,-174.5 494,-174.5 494,-155.5 422,-155.5"/>
<text text-anchor="middle" x="458" y="-162.5" font-family="Helvetica,sans-Serif" font-size="10.00">vector&lt; int &gt;</text>
</g>
<!-- Node23&#45;&gt;Node1 -->
<g id="edge30" class="edge"><title>Node23&#45;&gt;Node1</title>
<path fill="none" stroke="#9a32cd" stroke-dasharray="5,2" d="M504.224,-158.228C549.894,-152.463 616.413,-147.352 636,-163 659.661,-181.902 668.92,-280.31 671.322,-312.091"/>
<polygon fill="#9a32cd" stroke="#9a32cd" points="503.708,-154.765 494.249,-159.538 504.62,-161.706 503.708,-154.765"/>
<text text-anchor="middle" x="591" y="-199" font-family="Helvetica,sans-Serif" font-size="10.00"> parents_fromRow</text>
<text text-anchor="middle" x="591" y="-188" font-family="Helvetica,sans-Serif" font-size="10.00">lastChild</text>
<text text-anchor="middle" x="591" y="-177" font-family="Helvetica,sans-Serif" font-size="10.00">nvSubtree</text>
<text text-anchor="middle" x="591" y="-166" font-family="Helvetica,sans-Serif" font-size="10.00">nvSubtree_fromRow</text>
</g>
<!-- Node24 -->
<g id="node24" class="node"><title>Node24</title>
<polygon fill="white" stroke="#bfbfbf" points="413,-117.5 413,-136.5 503,-136.5 503,-117.5 413,-117.5"/>
<text text-anchor="middle" x="458" y="-124.5" font-family="Helvetica,sans-Serif" font-size="10.00">vector&lt; double &gt;</text>
</g>
<!-- Node24&#45;&gt;Node1 -->
<g id="edge31" class="edge"><title>Node24&#45;&gt;Node1</title>
<path fill="none" stroke="#9a32cd" stroke-dasharray="5,2" d="M505.645,-115.668C545.166,-109.049 600.861,-107.191 636,-138 662.555,-161.283 669.958,-277.302 671.597,-312.111"/>
<polygon fill="#9a32cd" stroke="#9a32cd" points="504.922,-112.242 495.716,-117.486 506.183,-119.128 504.922,-112.242"/>
<text text-anchor="middle" x="591" y="-141" font-family="Helvetica,sans-Serif" font-size="10.00"> mass</text>
</g>
<!-- Node25 -->
<g id="node25" class="node"><title>Node25</title>
<g id="a_node25"><a xlink:href="classse3_1_1ForceTpl.html" target="_top" xlink:title="ForceTpl\&lt; double, 0 \&gt;">
<polygon fill="white" stroke="black" points="401.5,-76.5 401.5,-95.5 514.5,-95.5 514.5,-76.5 401.5,-76.5"/>
<text text-anchor="middle" x="458" y="-83.5" font-family="Helvetica,sans-Serif" font-size="10.00">ForceTpl&lt; double, 0 &gt;</text>
</a>
</g>
</g>
<!-- Node25&#45;&gt;Node1 -->
<g id="edge32" class="edge"><title>Node25&#45;&gt;Node1</title>
<path fill="none" stroke="#9a32cd" stroke-dasharray="5,2" d="M504.833,-74.5553C544.587,-67.5975 601.084,-65.3031 636,-97 668.439,-126.448 671.694,-273.379 671.982,-312.447"/>
<polygon fill="#9a32cd" stroke="#9a32cd" points="504.024,-71.1465 494.858,-76.459 505.337,-78.0224 504.024,-71.1465"/>
<text text-anchor="middle" x="591" y="-100" font-family="Helvetica,sans-Serif" font-size="10.00"> hg</text>
</g>
<!-- Node26 -->
<g id="node26" class="node"><title>Node26</title>
<g id="a_node26"><a xlink:href="classse3_1_1ForceBase.html" target="_top" xlink:title="Base interface for forces representation. ">
<polygon fill="white" stroke="black" points="129.5,-60 129.5,-90 246.5,-90 246.5,-60 129.5,-60"/>
<text text-anchor="start" x="137.5" y="-78" font-family="Helvetica,sans-Serif" font-size="10.00">ForceBase&lt; ForceTpl</text>
<text text-anchor="middle" x="188" y="-67" font-family="Helvetica,sans-Serif" font-size="10.00">&lt; double, _Options &gt; &gt;</text>
</a>
</g>
</g>
<!-- Node26&#45;&gt;Node25 -->
<g id="edge33" class="edge"><title>Node26&#45;&gt;Node25</title>
<path fill="none" stroke="midnightblue" d="M256.994,-77.7908C301.592,-79.6213 359.193,-81.9855 401.117,-83.7063"/>
<polygon fill="midnightblue" stroke="midnightblue" points="256.957,-74.2864 246.822,-77.3733 256.67,-81.2805 256.957,-74.2864"/>
</g>
<!-- Node27 -->
<g id="node27" class="node"><title>Node27</title>
<g id="a_node27"><a xlink:href="structse3_1_1container_1_1aligned__vector.html" target="_top" xlink:title="aligned_vector\&lt; se3\l::InertiaTpl \&gt;">
<polygon fill="white" stroke="black" points="406,-21 406,-51 510,-51 510,-21 406,-21"/>
<text text-anchor="start" x="414" y="-39" font-family="Helvetica,sans-Serif" font-size="10.00">aligned_vector&lt; se3</text>
<text text-anchor="middle" x="458" y="-28" font-family="Helvetica,sans-Serif" font-size="10.00">::InertiaTpl &gt;</text>
</a>
</g>
</g>
<!-- Node27&#45;&gt;Node1 -->
<g id="edge34" class="edge"><title>Node27&#45;&gt;Node1</title>
<path fill="none" stroke="#9a32cd" stroke-dasharray="5,2" d="M520.296,-25.6107C558.608,-22.8442 606.169,-26.8187 636,-56 673.31,-92.4983 672.89,-268.781 672.202,-312.281"/>
<polygon fill="#9a32cd" stroke="#9a32cd" points="519.917,-22.1305 510.266,-26.5007 520.536,-29.1031 519.917,-22.1305"/>
<text text-anchor="middle" x="591" y="-59" font-family="Helvetica,sans-Serif" font-size="10.00"> Ycrb</text>
</g>
<!-- Node28&#45;&gt;Node27 -->
<g id="edge35" class="edge"><title>Node28&#45;&gt;Node27</title>
<path fill="none" stroke="midnightblue" d="M259.994,-24.9736C305.889,-27.5423 364.549,-30.8255 405.884,-33.139"/>
<polygon fill="midnightblue" stroke="midnightblue" points="259.993,-21.4681 249.813,-24.4037 259.602,-28.4572 259.993,-21.4681"/>
</g>
</g>
</svg>
