<?xml version="1.0" encoding="UTF-8" standalone="no"?>
<!DOCTYPE svg PUBLIC "-//W3C//DTD SVG 1.1//EN"
 "http://www.w3.org/Graphics/SVG/1.1/DTD/svg11.dtd">
<!-- Generated by graphviz version 2.38.0 (20140413.2041)
 -->
<!-- Title: JointDataSpherical Pages: 1 -->
<svg width="147pt" height="163pt"
 viewBox="0.00 0.00 147.00 163.00" xmlns="http://www.w3.org/2000/svg" xmlns:xlink="http://www.w3.org/1999/xlink">
<g id="graph0" class="graph" transform="scale(1 1) rotate(0) translate(4 159)">
<title>JointDataSpherical</title>
<polygon fill="white" stroke="none" points="-4,4 -4,-159 143,-159 143,4 -4,4"/>
<!-- Node1 -->
<g id="node1" class="node"><title>Node1</title>
<polygon fill="#bfbfbf" stroke="black" points="20,-0.5 20,-19.5 119,-19.5 119,-0.5 20,-0.5"/>
<text text-anchor="middle" x="69.5" y="-7.5" font-family="Helvetica,sans-Serif" font-size="10.00">JointDataSpherical</text>
</g>
<!-- Node2 -->
<g id="node2" class="node"><title>Node2</title>
<g id="a_node2"><a xlink:href="structse3_1_1JointDataBase.html" target="_top" xlink:title="JointDataBase\&lt; JointData\lSpherical \&gt;">
<polygon fill="white" stroke="black" points="3.5,-57.5 3.5,-87.5 135.5,-87.5 135.5,-57.5 3.5,-57.5"/>
<text text-anchor="start" x="11.5" y="-75.5" font-family="Helvetica,sans-Serif" font-size="10.00">JointDataBase&lt; JointData</text>
<text text-anchor="middle" x="69.5" y="-64.5" font-family="Helvetica,sans-Serif" font-size="10.00">Spherical &gt;</text>
</a>
</g>
</g>
<!-- Node2&#45;&gt;Node1 -->
<g id="edge1" class="edge"><title>Node2&#45;&gt;Node1</title>
<path fill="none" stroke="midnightblue" d="M69.5,-47.3524C69.5,-37.5132 69.5,-26.7753 69.5,-19.5399"/>
<polygon fill="midnightblue" stroke="midnightblue" points="66.0001,-47.468 69.5,-57.468 73.0001,-47.4681 66.0001,-47.468"/>
</g>
<!-- Node3 -->
<g id="node3" class="node"><title>Node3</title>
<g id="a_node3"><a xlink:href="structse3_1_1traits_3_01JointDataSpherical_01_4.html" target="_top" xlink:title="traits\&lt; JointDataSpherical \&gt;">
<polygon fill="white" stroke="black" points="0,-135.5 0,-154.5 139,-154.5 139,-135.5 0,-135.5"/>
<text text-anchor="middle" x="69.5" y="-142.5" font-family="Helvetica,sans-Serif" font-size="10.00">traits&lt; JointDataSpherical &gt;</text>
</a>
</g>
</g>
<!-- Node3&#45;&gt;Node2 -->
<g id="edge2" class="edge"><title>Node3&#45;&gt;Node2</title>
<path fill="none" stroke="#9a32cd" stroke-dasharray="5,2" d="M69.5,-125.236C69.5,-113.408 69.5,-98.3829 69.5,-87.5762"/>
<polygon fill="#9a32cd" stroke="#9a32cd" points="66.0001,-125.355 69.5,-135.355 73.0001,-125.355 66.0001,-125.355"/>
<text text-anchor="middle" x="98.5" y="-109" font-family="Helvetica,sans-Serif" font-size="10.00"> JointDerived</text>
</g>
</g>
</svg>
