<?xml version="1.0" encoding="UTF-8" standalone="no"?>
<!DOCTYPE svg PUBLIC "-//W3C//DTD SVG 1.1//EN"
 "http://www.w3.org/Graphics/SVG/1.1/DTD/svg11.dtd">
<!-- Generated by graphviz version 2.38.0 (20140413.2041)
 -->
<!-- Title: JointModelComposite Pages: 1 -->
<svg width="724pt" height="184pt"
 viewBox="0.00 0.00 724.00 183.50" xmlns="http://www.w3.org/2000/svg" xmlns:xlink="http://www.w3.org/1999/xlink">
<g id="graph0" class="graph" transform="scale(1 1) rotate(0) translate(4 179.5)">
<title>JointModelComposite</title>
<polygon fill="white" stroke="none" points="-4,4 -4,-179.5 720,-179.5 720,4 -4,4"/>
<!-- Node1 -->
<g id="node1" class="node"><title>Node1</title>
<polygon fill="#bfbfbf" stroke="black" points="605,-84.5 605,-103.5 716,-103.5 716,-84.5 605,-84.5"/>
<text text-anchor="middle" x="660.5" y="-91.5" font-family="Helvetica,sans-Serif" font-size="10.00">JointModelComposite</text>
</g>
<!-- Node2 -->
<g id="node2" class="node"><title>Node2</title>
<g id="a_node2"><a xlink:href="structse3_1_1JointModelBase.html" target="_top" xlink:title="JointModelBase\&lt; JointModel\lComposite \&gt;">
<polygon fill="white" stroke="black" points="353,-145 353,-175 496,-175 496,-145 353,-145"/>
<text text-anchor="start" x="361" y="-163" font-family="Helvetica,sans-Serif" font-size="10.00">JointModelBase&lt; JointModel</text>
<text text-anchor="middle" x="424.5" y="-152" font-family="Helvetica,sans-Serif" font-size="10.00">Composite &gt;</text>
</a>
</g>
</g>
<!-- Node2&#45;&gt;Node1 -->
<g id="edge1" class="edge"><title>Node2&#45;&gt;Node1</title>
<path fill="none" stroke="midnightblue" d="M502.451,-142.628C529.359,-136.109 559.666,-128.263 587,-120 603.128,-115.125 620.943,-108.75 634.877,-103.533"/>
<polygon fill="midnightblue" stroke="midnightblue" points="501.61,-139.231 492.704,-144.968 503.245,-146.037 501.61,-139.231"/>
</g>
<!-- Node3 -->
<g id="node3" class="node"><title>Node3</title>
<g id="a_node3"><a xlink:href="structse3_1_1traits_3_01JointModelComposite_01_4.html" target="_top" xlink:title="traits\&lt; JointModelComposite \&gt;">
<polygon fill="white" stroke="black" points="108,-150.5 108,-169.5 259,-169.5 259,-150.5 108,-150.5"/>
<text text-anchor="middle" x="183.5" y="-157.5" font-family="Helvetica,sans-Serif" font-size="10.00">traits&lt; JointModelComposite &gt;</text>
</a>
</g>
</g>
<!-- Node3&#45;&gt;Node2 -->
<g id="edge2" class="edge"><title>Node3&#45;&gt;Node2</title>
<path fill="none" stroke="#9a32cd" stroke-dasharray="5,2" d="M269.44,-160C296.69,-160 326.563,-160 352.69,-160"/>
<polygon fill="#9a32cd" stroke="#9a32cd" points="269.138,-156.5 259.138,-160 269.138,-163.5 269.138,-156.5"/>
<text text-anchor="middle" x="306" y="-163" font-family="Helvetica,sans-Serif" font-size="10.00"> JointDerived</text>
</g>
<!-- Node4 -->
<g id="node4" class="node"><title>Node4</title>
<g id="a_node4"><a xlink:href="classse3_1_1container_1_1aligned__vector.html" target="_top" xlink:title="aligned_vector\&lt; se3\l::SE3Tpl \&gt;">
<polygon fill="white" stroke="black" points="372.5,-96 372.5,-126 476.5,-126 476.5,-96 372.5,-96"/>
<text text-anchor="start" x="380.5" y="-114" font-family="Helvetica,sans-Serif" font-size="10.00">aligned_vector&lt; se3</text>
<text text-anchor="middle" x="424.5" y="-103" font-family="Helvetica,sans-Serif" font-size="10.00">::SE3Tpl &gt;</text>
</a>
</g>
</g>
<!-- Node4&#45;&gt;Node1 -->
<g id="edge3" class="edge"><title>Node4&#45;&gt;Node1</title>
<path fill="none" stroke="#9a32cd" stroke-dasharray="5,2" d="M486.627,-106.559C523.267,-103.897 569.46,-100.541 604.876,-97.9684"/>
<polygon fill="#9a32cd" stroke="#9a32cd" points="486.283,-103.075 476.563,-107.29 486.79,-110.056 486.283,-103.075"/>
<text text-anchor="middle" x="550.5" y="-108" font-family="Helvetica,sans-Serif" font-size="10.00"> jointPlacements</text>
</g>
<!-- Node5 -->
<g id="node5" class="node"><title>Node5</title>
<g id="a_node5"><a xlink:title="STL class. ">
<polygon fill="white" stroke="#bfbfbf" points="122,-90.5 122,-131.5 245,-131.5 245,-90.5 122,-90.5"/>
<text text-anchor="start" x="130" y="-119.5" font-family="Helvetica,sans-Serif" font-size="10.00">vector&lt; se3::SE3Tpl,</text>
<text text-anchor="start" x="130" y="-108.5" font-family="Helvetica,sans-Serif" font-size="10.00"> Eigen::aligned_allocator</text>
<text text-anchor="middle" x="183.5" y="-97.5" font-family="Helvetica,sans-Serif" font-size="10.00">&lt; se3::SE3Tpl &gt; &gt;</text>
</a>
</g>
</g>
<!-- Node5&#45;&gt;Node4 -->
<g id="edge4" class="edge"><title>Node5&#45;&gt;Node4</title>
<path fill="none" stroke="midnightblue" d="M255.479,-111C292.991,-111 338.185,-111 372.249,-111"/>
<polygon fill="midnightblue" stroke="midnightblue" points="255.119,-107.5 245.119,-111 255.119,-114.5 255.119,-107.5"/>
</g>
<!-- Node6 -->
<g id="node6" class="node"><title>Node6</title>
<polygon fill="white" stroke="#bfbfbf" points="0,-74.5 0,-93.5 29,-93.5 29,-74.5 0,-74.5"/>
<text text-anchor="middle" x="14.5" y="-81.5" font-family="Helvetica,sans-Serif" font-size="10.00">T</text>
</g>
<!-- Node6&#45;&gt;Node5 -->
<g id="edge5" class="edge"><title>Node6&#45;&gt;Node5</title>
<path fill="none" stroke="#9a32cd" stroke-dasharray="5,2" d="M39.3161,-87.8505C60.802,-91.3243 93.333,-96.5838 121.96,-101.212"/>
<polygon fill="#9a32cd" stroke="#9a32cd" points="39.5968,-84.3505 29.1663,-86.2095 38.4795,-91.2608 39.5968,-84.3505"/>
<text text-anchor="middle" x="68.5" y="-99" font-family="Helvetica,sans-Serif" font-size="10.00"> elements</text>
</g>
<!-- Node8 -->
<g id="node8" class="node"><title>Node8</title>
<g id="a_node8"><a xlink:title="STL class. ">
<polygon fill="white" stroke="#bfbfbf" points="116.5,-30.5 116.5,-71.5 250.5,-71.5 250.5,-30.5 116.5,-30.5"/>
<text text-anchor="start" x="124.5" y="-59.5" font-family="Helvetica,sans-Serif" font-size="10.00">vector&lt; JointModelVariant,</text>
<text text-anchor="start" x="124.5" y="-48.5" font-family="Helvetica,sans-Serif" font-size="10.00"> Eigen::aligned_allocator</text>
<text text-anchor="middle" x="183.5" y="-37.5" font-family="Helvetica,sans-Serif" font-size="10.00">&lt; JointModelVariant &gt; &gt;</text>
</a>
</g>
</g>
<!-- Node6&#45;&gt;Node8 -->
<g id="edge8" class="edge"><title>Node6&#45;&gt;Node8</title>
<path fill="none" stroke="#9a32cd" stroke-dasharray="5,2" d="M39.1036,-76.9721C41.7573,-76.2667 44.4299,-75.5931 47,-75 69.4639,-69.816 94.2458,-65.13 116.406,-61.3031"/>
<polygon fill="#9a32cd" stroke="#9a32cd" points="37.9014,-73.6742 29.2201,-79.7476 39.794,-80.4135 37.9014,-73.6742"/>
<text text-anchor="middle" x="68.5" y="-78" font-family="Helvetica,sans-Serif" font-size="10.00"> elements</text>
</g>
<!-- Node7 -->
<g id="node7" class="node"><title>Node7</title>
<g id="a_node7"><a xlink:href="classse3_1_1container_1_1aligned__vector.html" target="_top" xlink:title="aligned_vector\&lt; JointModel\lVariant \&gt;">
<polygon fill="white" stroke="black" points="356.5,-43 356.5,-73 492.5,-73 492.5,-43 356.5,-43"/>
<text text-anchor="start" x="364.5" y="-61" font-family="Helvetica,sans-Serif" font-size="10.00">aligned_vector&lt; JointModel</text>
<text text-anchor="middle" x="424.5" y="-50" font-family="Helvetica,sans-Serif" font-size="10.00">Variant &gt;</text>
</a>
</g>
</g>
<!-- Node7&#45;&gt;Node1 -->
<g id="edge6" class="edge"><title>Node7&#45;&gt;Node1</title>
<path fill="none" stroke="#9a32cd" stroke-dasharray="5,2" d="M502.73,-69.8815C536.067,-75.0103 574.293,-80.8912 604.652,-85.5619"/>
<polygon fill="#9a32cd" stroke="#9a32cd" points="502.971,-66.3775 492.555,-68.3162 501.906,-73.2961 502.971,-66.3775"/>
<text text-anchor="middle" x="550.5" y="-86" font-family="Helvetica,sans-Serif" font-size="10.00"> joints</text>
</g>
<!-- Node8&#45;&gt;Node7 -->
<g id="edge7" class="edge"><title>Node8&#45;&gt;Node7</title>
<path fill="none" stroke="midnightblue" d="M260.97,-53.2397C291.619,-54.1374 326.627,-55.1627 356.283,-56.0313"/>
<polygon fill="midnightblue" stroke="midnightblue" points="260.856,-49.735 250.757,-52.9406 260.651,-56.732 260.856,-49.735"/>
</g>
<!-- Node9 -->
<g id="node9" class="node"><title>Node9</title>
<polygon fill="white" stroke="#bfbfbf" points="388.5,-0.5 388.5,-19.5 460.5,-19.5 460.5,-0.5 388.5,-0.5"/>
<text text-anchor="middle" x="424.5" y="-7.5" font-family="Helvetica,sans-Serif" font-size="10.00">vector&lt; int &gt;</text>
</g>
<!-- Node9&#45;&gt;Node1 -->
<g id="edge9" class="edge"><title>Node9&#45;&gt;Node1</title>
<path fill="none" stroke="#9a32cd" stroke-dasharray="5,2" d="M470.579,-6.03382C504.15,-4.90606 550.323,-7.305 587,-24 616.778,-37.5547 641.737,-68.6578 653.028,-84.4395"/>
<polygon fill="#9a32cd" stroke="#9a32cd" points="470.42,-2.53729 460.589,-6.48512 470.736,-9.53016 470.42,-2.53729"/>
<text text-anchor="middle" x="550.5" y="-60" font-family="Helvetica,sans-Serif" font-size="10.00"> m_nvs</text>
<text text-anchor="middle" x="550.5" y="-49" font-family="Helvetica,sans-Serif" font-size="10.00">m_idx_v</text>
<text text-anchor="middle" x="550.5" y="-38" font-family="Helvetica,sans-Serif" font-size="10.00">m_nqs</text>
<text text-anchor="middle" x="550.5" y="-27" font-family="Helvetica,sans-Serif" font-size="10.00">m_idx_q</text>
</g>
</g>
</svg>
