<?xml version="1.0" encoding="UTF-8" standalone="no"?>
<!DOCTYPE svg PUBLIC "-//W3C//DTD SVG 1.1//EN"
 "http://www.w3.org/Graphics/SVG/1.1/DTD/svg11.dtd">
<!-- Generated by graphviz version 2.38.0 (20140413.2041)
 -->
<!-- Title: ConstraintPrismatic&lt; axis &gt;::TransposeConst Pages: 1 -->
<svg width="146pt" height="185pt"
 viewBox="0.00 0.00 146.00 185.00" xmlns="http://www.w3.org/2000/svg" xmlns:xlink="http://www.w3.org/1999/xlink">
<g id="graph0" class="graph" transform="scale(1 1) rotate(0) translate(4 181)">
<title>ConstraintPrismatic&lt; axis &gt;::TransposeConst</title>
<polygon fill="white" stroke="none" points="-4,4 -4,-181 142,-181 142,4 -4,4"/>
<!-- Node1 -->
<g id="node1" class="node"><title>Node1</title>
<polygon fill="#bfbfbf" stroke="black" points="3.5,-0.5 3.5,-30.5 134.5,-30.5 134.5,-0.5 3.5,-0.5"/>
<text text-anchor="start" x="11.5" y="-18.5" font-family="Helvetica,sans-Serif" font-size="10.00">ConstraintPrismatic</text>
<text text-anchor="middle" x="69" y="-7.5" font-family="Helvetica,sans-Serif" font-size="10.00">&lt; axis &gt;::TransposeConst</text>
</g>
<!-- Node2 -->
<g id="node2" class="node"><title>Node2</title>
<g id="a_node2"><a xlink:href="structse3_1_1ConstraintPrismatic.html" target="_top" xlink:title="ConstraintPrismatic\l\&lt; axis \&gt;">
<polygon fill="white" stroke="black" points="17.5,-78.5 17.5,-108.5 120.5,-108.5 120.5,-78.5 17.5,-78.5"/>
<text text-anchor="start" x="25.5" y="-96.5" font-family="Helvetica,sans-Serif" font-size="10.00">ConstraintPrismatic</text>
<text text-anchor="middle" x="69" y="-85.5" font-family="Helvetica,sans-Serif" font-size="10.00">&lt; axis &gt;</text>
</a>
</g>
</g>
<!-- Node2&#45;&gt;Node1 -->
<g id="edge1" class="edge"><title>Node2&#45;&gt;Node1</title>
<path fill="none" stroke="#9a32cd" stroke-dasharray="5,2" d="M69,-68.0898C69,-55.7565 69,-41.2237 69,-30.7309"/>
<polygon fill="#9a32cd" stroke="#9a32cd" points="65.5001,-68.2049 69,-78.205 72.5001,-68.205 65.5001,-68.2049"/>
<text text-anchor="middle" x="76.5" y="-52" font-family="Helvetica,sans-Serif" font-size="10.00"> ref</text>
</g>
<!-- Node3 -->
<g id="node3" class="node"><title>Node3</title>
<g id="a_node3"><a xlink:href="classse3_1_1ConstraintBase.html" target="_top" xlink:title="ConstraintBase\&lt; Constraint\lPrismatic\&lt; axis \&gt; \&gt;">
<polygon fill="white" stroke="black" points="0,-146.5 0,-176.5 138,-176.5 138,-146.5 0,-146.5"/>
<text text-anchor="start" x="8" y="-164.5" font-family="Helvetica,sans-Serif" font-size="10.00">ConstraintBase&lt; Constraint</text>
<text text-anchor="middle" x="69" y="-153.5" font-family="Helvetica,sans-Serif" font-size="10.00">Prismatic&lt; axis &gt; &gt;</text>
</a>
</g>
</g>
<!-- Node3&#45;&gt;Node2 -->
<g id="edge2" class="edge"><title>Node3&#45;&gt;Node2</title>
<path fill="none" stroke="midnightblue" d="M69,-136.032C69,-126.861 69,-116.745 69,-108.793"/>
<polygon fill="midnightblue" stroke="midnightblue" points="65.5001,-136.179 69,-146.179 72.5001,-136.179 65.5001,-136.179"/>
</g>
</g>
</svg>
