<?xml version="1.0" encoding="UTF-8" standalone="no"?>
<!DOCTYPE svg PUBLIC "-//W3C//DTD SVG 1.1//EN"
 "http://www.w3.org/Graphics/SVG/1.1/DTD/svg11.dtd">
<!-- Generated by graphviz version 2.38.0 (20140413.2041)
 -->
<!-- Title: JointDataSphericalZYX Pages: 1 -->
<svg width="140pt" height="174pt"
 viewBox="0.00 0.00 140.00 174.00" xmlns="http://www.w3.org/2000/svg" xmlns:xlink="http://www.w3.org/1999/xlink">
<g id="graph0" class="graph" transform="scale(1 1) rotate(0) translate(4 170)">
<title>JointDataSphericalZYX</title>
<polygon fill="white" stroke="none" points="-4,4 -4,-170 136,-170 136,4 -4,4"/>
<!-- Node1 -->
<g id="node1" class="node"><title>Node1</title>
<polygon fill="#bfbfbf" stroke="black" points="6.5,-0.5 6.5,-19.5 125.5,-19.5 125.5,-0.5 6.5,-0.5"/>
<text text-anchor="middle" x="66" y="-7.5" font-family="Helvetica,sans-Serif" font-size="10.00">JointDataSphericalZYX</text>
</g>
<!-- Node2 -->
<g id="node2" class="node"><title>Node2</title>
<g id="a_node2"><a xlink:href="structse3_1_1JointDataBase.html" target="_top" xlink:title="JointDataBase\&lt; JointData\lSphericalZYX \&gt;">
<polygon fill="white" stroke="black" points="0,-57.5 0,-87.5 132,-87.5 132,-57.5 0,-57.5"/>
<text text-anchor="start" x="8" y="-75.5" font-family="Helvetica,sans-Serif" font-size="10.00">JointDataBase&lt; JointData</text>
<text text-anchor="middle" x="66" y="-64.5" font-family="Helvetica,sans-Serif" font-size="10.00">SphericalZYX &gt;</text>
</a>
</g>
</g>
<!-- Node2&#45;&gt;Node1 -->
<g id="edge1" class="edge"><title>Node2&#45;&gt;Node1</title>
<path fill="none" stroke="midnightblue" d="M66,-47.3524C66,-37.5132 66,-26.7753 66,-19.5399"/>
<polygon fill="midnightblue" stroke="midnightblue" points="62.5001,-47.468 66,-57.468 69.5001,-47.4681 62.5001,-47.468"/>
</g>
<!-- Node3 -->
<g id="node3" class="node"><title>Node3</title>
<g id="a_node3"><a xlink:href="structse3_1_1traits_3_01JointDataSphericalZYX_01_4.html" target="_top" xlink:title="traits\&lt; JointDataSpherical\lZYX \&gt;">
<polygon fill="white" stroke="black" points="1,-135.5 1,-165.5 131,-165.5 131,-135.5 1,-135.5"/>
<text text-anchor="start" x="9" y="-153.5" font-family="Helvetica,sans-Serif" font-size="10.00">traits&lt; JointDataSpherical</text>
<text text-anchor="middle" x="66" y="-142.5" font-family="Helvetica,sans-Serif" font-size="10.00">ZYX &gt;</text>
</a>
</g>
</g>
<!-- Node3&#45;&gt;Node2 -->
<g id="edge2" class="edge"><title>Node3&#45;&gt;Node2</title>
<path fill="none" stroke="#9a32cd" stroke-dasharray="5,2" d="M66,-125.09C66,-112.757 66,-98.2237 66,-87.7309"/>
<polygon fill="#9a32cd" stroke="#9a32cd" points="62.5001,-125.205 66,-135.205 69.5001,-125.205 62.5001,-125.205"/>
<text text-anchor="middle" x="95" y="-109" font-family="Helvetica,sans-Serif" font-size="10.00"> JointDerived</text>
</g>
</g>
</svg>
