<?xml version="1.0" encoding="UTF-8" standalone="no"?>
<!DOCTYPE svg PUBLIC "-//W3C//DTD SVG 1.1//EN"
 "http://www.w3.org/Graphics/SVG/1.1/DTD/svg11.dtd">
<!-- Generated by graphviz version 2.38.0 (20140413.2041)
 -->
<!-- Title: ConstraintTpl&lt; _Dim, _Scalar, _Options &gt;::Transpose Pages: 1 -->
<svg width="505pt" height="99pt"
 viewBox="0.00 0.00 505.00 98.50" xmlns="http://www.w3.org/2000/svg" xmlns:xlink="http://www.w3.org/1999/xlink">
<g id="graph0" class="graph" transform="scale(1 1) rotate(0) translate(4 94.5)">
<title>ConstraintTpl&lt; _Dim, _Scalar, _Options &gt;::Transpose</title>
<polygon fill="white" stroke="none" points="-4,4 -4,-94.5 501,-94.5 501,4 -4,4"/>
<!-- Node1 -->
<g id="node1" class="node"><title>Node1</title>
<polygon fill="#bfbfbf" stroke="black" points="387,-27.5 387,-68.5 497,-68.5 497,-27.5 387,-27.5"/>
<text text-anchor="start" x="395" y="-56.5" font-family="Helvetica,sans-Serif" font-size="10.00">ConstraintTpl&lt; _Dim,</text>
<text text-anchor="start" x="395" y="-45.5" font-family="Helvetica,sans-Serif" font-size="10.00"> _Scalar, _Options &gt;</text>
<text text-anchor="middle" x="442" y="-34.5" font-family="Helvetica,sans-Serif" font-size="10.00">::Transpose</text>
</g>
<!-- Node2 -->
<g id="node2" class="node"><title>Node2</title>
<g id="a_node2"><a xlink:href="classse3_1_1ConstraintTpl.html" target="_top" xlink:title="ConstraintTpl\&lt; _Dim,\l _Scalar, _Options \&gt;">
<polygon fill="white" stroke="black" points="226,-33 226,-63 336,-63 336,-33 226,-33"/>
<text text-anchor="start" x="234" y="-51" font-family="Helvetica,sans-Serif" font-size="10.00">ConstraintTpl&lt; _Dim,</text>
<text text-anchor="middle" x="281" y="-40" font-family="Helvetica,sans-Serif" font-size="10.00"> _Scalar, _Options &gt;</text>
</a>
</g>
</g>
<!-- Node2&#45;&gt;Node1 -->
<g id="edge1" class="edge"><title>Node2&#45;&gt;Node1</title>
<path fill="none" stroke="#9a32cd" stroke-dasharray="5,2" d="M346.422,-48C359.88,-48 373.936,-48 386.971,-48"/>
<polygon fill="#9a32cd" stroke="#9a32cd" points="346.274,-44.5001 336.274,-48 346.274,-51.5001 346.274,-44.5001"/>
<text text-anchor="middle" x="361.5" y="-51" font-family="Helvetica,sans-Serif" font-size="10.00"> ref</text>
</g>
<!-- Node3 -->
<g id="node3" class="node"><title>Node3</title>
<g id="a_node3"><a xlink:href="classse3_1_1ConstraintBase.html" target="_top" xlink:title="ConstraintBase\&lt; Constraint\lTpl\&lt; _Dim, _Scalar, _Options \&gt; \&gt;">
<polygon fill="white" stroke="black" points="0,-60 0,-90 164,-90 164,-60 0,-60"/>
<text text-anchor="start" x="8" y="-78" font-family="Helvetica,sans-Serif" font-size="10.00">ConstraintBase&lt; Constraint</text>
<text text-anchor="middle" x="82" y="-67" font-family="Helvetica,sans-Serif" font-size="10.00">Tpl&lt; _Dim, _Scalar, _Options &gt; &gt;</text>
</a>
</g>
</g>
<!-- Node3&#45;&gt;Node2 -->
<g id="edge2" class="edge"><title>Node3&#45;&gt;Node2</title>
<path fill="none" stroke="midnightblue" d="M174.558,-62.4515C192.126,-60.0437 209.99,-57.5952 225.9,-55.4147"/>
<polygon fill="midnightblue" stroke="midnightblue" points="173.697,-59.0367 164.265,-63.8622 174.647,-65.9718 173.697,-59.0367"/>
</g>
<!-- Node4 -->
<g id="node4" class="node"><title>Node4</title>
<g id="a_node4"><a xlink:href="classse3_1_1ConstraintBase.html" target="_top" xlink:title="ConstraintBase\&lt; se3\l::ConstraintTpl\&lt; _Dim,\l _Scalar, _Options \&gt; \&gt;">
<polygon fill="white" stroke="black" points="24,-0.5 24,-41.5 140,-41.5 140,-0.5 24,-0.5"/>
<text text-anchor="start" x="32" y="-29.5" font-family="Helvetica,sans-Serif" font-size="10.00">ConstraintBase&lt; se3</text>
<text text-anchor="start" x="32" y="-18.5" font-family="Helvetica,sans-Serif" font-size="10.00">::ConstraintTpl&lt; _Dim,</text>
<text text-anchor="middle" x="82" y="-7.5" font-family="Helvetica,sans-Serif" font-size="10.00"> _Scalar, _Options &gt; &gt;</text>
</a>
</g>
</g>
<!-- Node4&#45;&gt;Node2 -->
<g id="edge3" class="edge"><title>Node4&#45;&gt;Node2</title>
<path fill="none" stroke="#9a32cd" stroke-dasharray="5,2" d="M150.271,-30.2199C174.976,-33.6059 202.605,-37.3925 225.995,-40.5983"/>
<polygon fill="#9a32cd" stroke="#9a32cd" points="150.628,-26.7362 140.245,-28.8458 149.677,-33.6713 150.628,-26.7362"/>
<text text-anchor="middle" x="195" y="-40" font-family="Helvetica,sans-Serif" font-size="10.00"> Base</text>
</g>
</g>
</svg>
