<?xml version="1.0" encoding="UTF-8" standalone="no"?>
<!DOCTYPE svg PUBLIC "-//W3C//DTD SVG 1.1//EN"
 "http://www.w3.org/Graphics/SVG/1.1/DTD/svg11.dtd">
<!-- Generated by graphviz version 2.38.0 (20140413.2041)
 -->
<!-- Title: JointDataComposite Pages: 1 -->
<svg width="720pt" height="188pt"
 viewBox="0.00 0.00 720.00 187.50" xmlns="http://www.w3.org/2000/svg" xmlns:xlink="http://www.w3.org/1999/xlink">
<g id="graph0" class="graph" transform="scale(1 1) rotate(0) translate(4 183.5)">
<title>JointDataComposite</title>
<polygon fill="white" stroke="none" points="-4,4 -4,-183.5 716,-183.5 716,4 -4,4"/>
<!-- Node1 -->
<g id="node1" class="node"><title>Node1</title>
<polygon fill="#bfbfbf" stroke="black" points="606,-79 606,-98 712,-98 712,-79 606,-79"/>
<text text-anchor="middle" x="659" y="-86" font-family="Helvetica,sans-Serif" font-size="10.00">JointDataComposite</text>
</g>
<!-- Node2 -->
<g id="node2" class="node"><title>Node2</title>
<g id="a_node2"><a xlink:href="structse3_1_1JointDataBase.html" target="_top" xlink:title="JointDataBase\&lt; JointData\lComposite \&gt;">
<polygon fill="white" stroke="black" points="388.5,-147.5 388.5,-177.5 520.5,-177.5 520.5,-147.5 388.5,-147.5"/>
<text text-anchor="start" x="396.5" y="-165.5" font-family="Helvetica,sans-Serif" font-size="10.00">JointDataBase&lt; JointData</text>
<text text-anchor="middle" x="454.5" y="-154.5" font-family="Helvetica,sans-Serif" font-size="10.00">Composite &gt;</text>
</a>
</g>
</g>
<!-- Node2&#45;&gt;Node1 -->
<g id="edge1" class="edge"><title>Node2&#45;&gt;Node1</title>
<path fill="none" stroke="midnightblue" d="M506.796,-144.026C531.38,-135.145 561.233,-124.319 588,-114.5 602.727,-109.098 619.17,-102.994 632.418,-98.0583"/>
<polygon fill="midnightblue" stroke="midnightblue" points="505.522,-140.765 497.305,-147.453 507.899,-147.349 505.522,-140.765"/>
</g>
<!-- Node3 -->
<g id="node3" class="node"><title>Node3</title>
<g id="a_node3"><a xlink:href="structse3_1_1traits_3_01JointDataComposite_01_4.html" target="_top" xlink:title="traits\&lt; JointDataComposite \&gt;">
<polygon fill="white" stroke="black" points="118.5,-160 118.5,-179 264.5,-179 264.5,-160 118.5,-160"/>
<text text-anchor="middle" x="191.5" y="-167" font-family="Helvetica,sans-Serif" font-size="10.00">traits&lt; JointDataComposite &gt;</text>
</a>
</g>
</g>
<!-- Node3&#45;&gt;Node2 -->
<g id="edge2" class="edge"><title>Node3&#45;&gt;Node2</title>
<path fill="none" stroke="#9a32cd" stroke-dasharray="5,2" d="M274.689,-167.296C311.374,-166.312 353.991,-165.169 388.416,-164.246"/>
<polygon fill="#9a32cd" stroke="#9a32cd" points="274.413,-163.802 264.51,-167.569 274.601,-170.799 274.413,-163.802"/>
<text text-anchor="middle" x="322" y="-169.5" font-family="Helvetica,sans-Serif" font-size="10.00"> JointDerived</text>
</g>
<!-- Node4 -->
<g id="node4" class="node"><title>Node4</title>
<g id="a_node4"><a xlink:href="structse3_1_1container_1_1aligned__vector.html" target="_top" xlink:title="aligned_vector\&lt; Transformation_t \&gt;">
<polygon fill="white" stroke="black" points="369,-102 369,-121 540,-121 540,-102 369,-102"/>
<text text-anchor="middle" x="454.5" y="-109" font-family="Helvetica,sans-Serif" font-size="10.00">aligned_vector&lt; Transformation_t &gt;</text>
</a>
</g>
</g>
<!-- Node4&#45;&gt;Node1 -->
<g id="edge3" class="edge"><title>Node4&#45;&gt;Node1</title>
<path fill="none" stroke="#9a32cd" stroke-dasharray="5,2" d="M549.419,-100.833C568.812,-98.63 588.565,-96.3865 605.813,-94.4275"/>
<polygon fill="#9a32cd" stroke="#9a32cd" points="548.867,-97.3727 539.326,-101.979 549.657,-104.328 548.867,-97.3727"/>
<text text-anchor="middle" x="573" y="-102.5" font-family="Helvetica,sans-Serif" font-size="10.00"> iMlast</text>
</g>
<!-- Node5 -->
<g id="node5" class="node"><title>Node5</title>
<g id="a_node5"><a xlink:title="STL class. ">
<polygon fill="white" stroke="#bfbfbf" points="124.5,-100 124.5,-141 258.5,-141 258.5,-100 124.5,-100"/>
<text text-anchor="start" x="132.5" y="-129" font-family="Helvetica,sans-Serif" font-size="10.00">vector&lt; Transformation</text>
<text text-anchor="start" x="132.5" y="-118" font-family="Helvetica,sans-Serif" font-size="10.00">_t, Eigen::aligned_allocator</text>
<text text-anchor="middle" x="191.5" y="-107" font-family="Helvetica,sans-Serif" font-size="10.00">&lt; Transformation_t &gt; &gt;</text>
</a>
</g>
</g>
<!-- Node5&#45;&gt;Node4 -->
<g id="edge4" class="edge"><title>Node5&#45;&gt;Node4</title>
<path fill="none" stroke="midnightblue" d="M269.086,-117.859C300.32,-116.782 336.554,-115.533 368.594,-114.428"/>
<polygon fill="midnightblue" stroke="midnightblue" points="268.572,-114.375 258.699,-118.217 268.813,-121.37 268.572,-114.375"/>
</g>
<!-- Node6 -->
<g id="node6" class="node"><title>Node6</title>
<polygon fill="white" stroke="#bfbfbf" points="0,-84 0,-103 29,-103 29,-84 0,-84"/>
<text text-anchor="middle" x="14.5" y="-91" font-family="Helvetica,sans-Serif" font-size="10.00">T</text>
</g>
<!-- Node6&#45;&gt;Node5 -->
<g id="edge5" class="edge"><title>Node6&#45;&gt;Node5</title>
<path fill="none" stroke="#9a32cd" stroke-dasharray="5,2" d="M39.2038,-97.1572C60.9699,-100.515 94.273,-105.654 124.098,-110.255"/>
<polygon fill="#9a32cd" stroke="#9a32cd" points="39.6487,-93.6845 29.232,-95.6186 38.5813,-100.603 39.6487,-93.6845"/>
<text text-anchor="middle" x="68.5" y="-107.5" font-family="Helvetica,sans-Serif" font-size="10.00"> elements</text>
</g>
<!-- Node10 -->
<g id="node10" class="node"><title>Node10</title>
<g id="a_node10"><a xlink:title="STL class. ">
<polygon fill="white" stroke="#bfbfbf" points="127.5,-40 127.5,-81 255.5,-81 255.5,-40 127.5,-40"/>
<text text-anchor="start" x="135.5" y="-69" font-family="Helvetica,sans-Serif" font-size="10.00">vector&lt; JointDataVariant,</text>
<text text-anchor="start" x="135.5" y="-58" font-family="Helvetica,sans-Serif" font-size="10.00"> Eigen::aligned_allocator</text>
<text text-anchor="middle" x="191.5" y="-47" font-family="Helvetica,sans-Serif" font-size="10.00">&lt; JointDataVariant &gt; &gt;</text>
</a>
</g>
</g>
<!-- Node6&#45;&gt;Node10 -->
<g id="edge10" class="edge"><title>Node6&#45;&gt;Node10</title>
<path fill="none" stroke="#9a32cd" stroke-dasharray="5,2" d="M39.0979,-86.4473C41.7527,-85.7465 44.4271,-85.0808 47,-84.5 73.1177,-78.6045 102.209,-73.4765 127.334,-69.4911"/>
<polygon fill="#9a32cd" stroke="#9a32cd" points="37.8973,-83.1489 29.2134,-89.2185 39.787,-89.889 37.8973,-83.1489"/>
<text text-anchor="middle" x="68.5" y="-87.5" font-family="Helvetica,sans-Serif" font-size="10.00"> elements</text>
</g>
<!-- Node7 -->
<g id="node7" class="node"><title>Node7</title>
<g id="a_node7"><a xlink:href="structse3_1_1JointDataBase.html" target="_top" xlink:title="JointDataBase\&lt; se3\l::JointDataComposite \&gt;">
<polygon fill="white" stroke="black" points="394,-0.5 394,-30.5 515,-30.5 515,-0.5 394,-0.5"/>
<text text-anchor="start" x="402" y="-18.5" font-family="Helvetica,sans-Serif" font-size="10.00">JointDataBase&lt; se3</text>
<text text-anchor="middle" x="454.5" y="-7.5" font-family="Helvetica,sans-Serif" font-size="10.00">::JointDataComposite &gt;</text>
</a>
</g>
</g>
<!-- Node7&#45;&gt;Node1 -->
<g id="edge6" class="edge"><title>Node7&#45;&gt;Node1</title>
<path fill="none" stroke="#9a32cd" stroke-dasharray="5,2" d="M517.954,-33.5401C540.267,-40.4454 565.456,-48.7736 588,-57.5 604.981,-64.0732 623.835,-72.4891 637.693,-78.893"/>
<polygon fill="#9a32cd" stroke="#9a32cd" points="518.842,-30.1516 508.255,-30.5712 516.793,-36.845 518.842,-30.1516"/>
<text text-anchor="middle" x="573" y="-60.5" font-family="Helvetica,sans-Serif" font-size="10.00"> Base</text>
</g>
<!-- Node8 -->
<g id="node8" class="node"><title>Node8</title>
<g id="a_node8"><a xlink:href="structse3_1_1traits.html" target="_top" xlink:title="traits\&lt; se3::JointDataComposite \&gt;">
<polygon fill="white" stroke="black" points="108,-2 108,-21 275,-21 275,-2 108,-2"/>
<text text-anchor="middle" x="191.5" y="-9" font-family="Helvetica,sans-Serif" font-size="10.00">traits&lt; se3::JointDataComposite &gt;</text>
</a>
</g>
</g>
<!-- Node8&#45;&gt;Node7 -->
<g id="edge7" class="edge"><title>Node8&#45;&gt;Node7</title>
<path fill="none" stroke="#9a32cd" stroke-dasharray="5,2" d="M285.149,-12.9199C321.275,-13.4736 361.639,-14.0922 393.785,-14.5848"/>
<polygon fill="#9a32cd" stroke="#9a32cd" points="285.135,-9.41937 275.082,-12.7656 285.027,-16.4186 285.135,-9.41937"/>
<text text-anchor="middle" x="322" y="-17.5" font-family="Helvetica,sans-Serif" font-size="10.00"> JointDerived</text>
</g>
<!-- Node9 -->
<g id="node9" class="node"><title>Node9</title>
<g id="a_node9"><a xlink:href="structse3_1_1container_1_1aligned__vector.html" target="_top" xlink:title="aligned_vector\&lt; JointData\lVariant \&gt;">
<polygon fill="white" stroke="black" points="389,-51.5 389,-81.5 520,-81.5 520,-51.5 389,-51.5"/>
<text text-anchor="start" x="397" y="-69.5" font-family="Helvetica,sans-Serif" font-size="10.00">aligned_vector&lt; JointData</text>
<text text-anchor="middle" x="454.5" y="-58.5" font-family="Helvetica,sans-Serif" font-size="10.00">Variant &gt;</text>
</a>
</g>
</g>
<!-- Node9&#45;&gt;Node1 -->
<g id="edge8" class="edge"><title>Node9&#45;&gt;Node1</title>
<path fill="none" stroke="#9a32cd" stroke-dasharray="5,2" d="M530.069,-70.0455C549.007,-71.3627 569.289,-73.1351 588,-75.5 595.358,-76.4299 603.112,-77.6381 610.672,-78.9429"/>
<polygon fill="#9a32cd" stroke="#9a32cd" points="530.215,-66.5476 520.005,-69.3786 529.752,-73.5322 530.215,-66.5476"/>
<text text-anchor="middle" x="573" y="-78.5" font-family="Helvetica,sans-Serif" font-size="10.00"> joints</text>
</g>
<!-- Node10&#45;&gt;Node9 -->
<g id="edge9" class="edge"><title>Node10&#45;&gt;Node9</title>
<path fill="none" stroke="midnightblue" d="M265.819,-62.1855C304.427,-63.073 351.358,-64.1519 388.632,-65.0088"/>
<polygon fill="midnightblue" stroke="midnightblue" points="265.759,-58.6833 255.681,-61.9524 265.598,-65.6814 265.759,-58.6833"/>
</g>
</g>
</svg>
