<?xml version="1.0" encoding="UTF-8" standalone="no"?>
<!DOCTYPE svg PUBLIC "-//W3C//DTD SVG 1.1//EN"
 "http://www.w3.org/Graphics/SVG/1.1/DTD/svg11.dtd">
<!-- Generated by graphviz version 2.38.0 (20140413.2041)
 -->
<!-- Title: InterpolateStep&lt; LieGroup_t &gt; Pages: 1 -->
<svg width="168pt" height="151pt"
 viewBox="0.00 0.00 168.00 151.00" xmlns="http://www.w3.org/2000/svg" xmlns:xlink="http://www.w3.org/1999/xlink">
<g id="graph0" class="graph" transform="scale(1 1) rotate(0) translate(4 147)">
<title>InterpolateStep&lt; LieGroup_t &gt;</title>
<polygon fill="white" stroke="none" points="-4,4 -4,-147 164,-147 164,4 -4,4"/>
<!-- Node1 -->
<g id="node1" class="node"><title>Node1</title>
<polygon fill="#bfbfbf" stroke="black" points="6,-0.5 6,-19.5 154,-19.5 154,-0.5 6,-0.5"/>
<text text-anchor="middle" x="80" y="-7.5" font-family="Helvetica,sans-Serif" font-size="10.00">InterpolateStep&lt; LieGroup_t &gt;</text>
</g>
<!-- Node2 -->
<g id="node2" class="node"><title>Node2</title>
<g id="a_node2"><a xlink:href="structse3_1_1fusion_1_1JointModelVisitor.html" target="_top" xlink:title="JointModelVisitor\&lt;\l InterpolateStep\&lt; LieGroup_t \&gt; \&gt;">
<polygon fill="white" stroke="black" points="0,-56.5 0,-86.5 160,-86.5 160,-56.5 0,-56.5"/>
<text text-anchor="start" x="8" y="-74.5" font-family="Helvetica,sans-Serif" font-size="10.00">JointModelVisitor&lt;</text>
<text text-anchor="middle" x="80" y="-63.5" font-family="Helvetica,sans-Serif" font-size="10.00"> InterpolateStep&lt; LieGroup_t &gt; &gt;</text>
</a>
</g>
</g>
<!-- Node2&#45;&gt;Node1 -->
<g id="edge1" class="edge"><title>Node2&#45;&gt;Node1</title>
<path fill="none" stroke="midnightblue" d="M80,-46.2892C80,-36.857 80,-26.6548 80,-19.6578"/>
<polygon fill="midnightblue" stroke="midnightblue" points="76.5001,-46.3993 80,-56.3993 83.5001,-46.3994 76.5001,-46.3993"/>
</g>
<!-- Node3 -->
<g id="node3" class="node"><title>Node3</title>
<polygon fill="white" stroke="#bfbfbf" points="38,-123.5 38,-142.5 122,-142.5 122,-123.5 38,-123.5"/>
<text text-anchor="middle" x="80" y="-130.5" font-family="Helvetica,sans-Serif" font-size="10.00">static_visitor&lt;&gt;</text>
</g>
<!-- Node3&#45;&gt;Node2 -->
<g id="edge2" class="edge"><title>Node3&#45;&gt;Node2</title>
<path fill="none" stroke="midnightblue" d="M80,-113.235C80,-104.586 80,-94.4969 80,-86.523"/>
<polygon fill="midnightblue" stroke="midnightblue" points="76.5001,-113.475 80,-123.475 83.5001,-113.475 76.5001,-113.475"/>
</g>
</g>
</svg>
