<?xml version="1.0" encoding="UTF-8" standalone="no"?>
<!DOCTYPE svg PUBLIC "-//W3C//DTD SVG 1.1//EN"
 "http://www.w3.org/Graphics/SVG/1.1/DTD/svg11.dtd">
<!-- Generated by graphviz version 2.38.0 (20140413.2041)
 -->
<!-- Title: JointDataRevoluteUnbounded&lt; axis &gt; Pages: 1 -->
<svg width="158pt" height="185pt"
 viewBox="0.00 0.00 158.00 185.00" xmlns="http://www.w3.org/2000/svg" xmlns:xlink="http://www.w3.org/1999/xlink">
<g id="graph0" class="graph" transform="scale(1 1) rotate(0) translate(4 181)">
<title>JointDataRevoluteUnbounded&lt; axis &gt;</title>
<polygon fill="white" stroke="none" points="-4,4 -4,-181 154,-181 154,4 -4,4"/>
<!-- Node1 -->
<g id="node1" class="node"><title>Node1</title>
<polygon fill="#bfbfbf" stroke="black" points="1.5,-0.5 1.5,-30.5 148.5,-30.5 148.5,-0.5 1.5,-0.5"/>
<text text-anchor="start" x="9.5" y="-18.5" font-family="Helvetica,sans-Serif" font-size="10.00">JointDataRevoluteUnbounded</text>
<text text-anchor="middle" x="75" y="-7.5" font-family="Helvetica,sans-Serif" font-size="10.00">&lt; axis &gt;</text>
</g>
<!-- Node2 -->
<g id="node2" class="node"><title>Node2</title>
<g id="a_node2"><a xlink:href="structse3_1_1JointDataBase.html" target="_top" xlink:title="JointDataBase\&lt; JointData\lRevoluteUnbounded\&lt; axis \&gt; \&gt;">
<polygon fill="white" stroke="black" points="-1.42109e-14,-68.5 -1.42109e-14,-98.5 150,-98.5 150,-68.5 -1.42109e-14,-68.5"/>
<text text-anchor="start" x="8" y="-86.5" font-family="Helvetica,sans-Serif" font-size="10.00">JointDataBase&lt; JointData</text>
<text text-anchor="middle" x="75" y="-75.5" font-family="Helvetica,sans-Serif" font-size="10.00">RevoluteUnbounded&lt; axis &gt; &gt;</text>
</a>
</g>
</g>
<!-- Node2&#45;&gt;Node1 -->
<g id="edge1" class="edge"><title>Node2&#45;&gt;Node1</title>
<path fill="none" stroke="midnightblue" d="M75,-58.0322C75,-48.8606 75,-38.7449 75,-30.7931"/>
<polygon fill="midnightblue" stroke="midnightblue" points="71.5001,-58.1789 75,-68.179 78.5001,-58.179 71.5001,-58.1789"/>
</g>
<!-- Node3 -->
<g id="node3" class="node"><title>Node3</title>
<g id="a_node3"><a xlink:href="structse3_1_1traits_3_01JointDataRevoluteUnbounded_3_01axis_01_4_01_4.html" target="_top" xlink:title="traits\&lt; JointDataRevolute\lUnbounded\&lt; axis \&gt; \&gt;">
<polygon fill="white" stroke="black" points="11,-146.5 11,-176.5 139,-176.5 139,-146.5 11,-146.5"/>
<text text-anchor="start" x="19" y="-164.5" font-family="Helvetica,sans-Serif" font-size="10.00">traits&lt; JointDataRevolute</text>
<text text-anchor="middle" x="75" y="-153.5" font-family="Helvetica,sans-Serif" font-size="10.00">Unbounded&lt; axis &gt; &gt;</text>
</a>
</g>
</g>
<!-- Node3&#45;&gt;Node2 -->
<g id="edge2" class="edge"><title>Node3&#45;&gt;Node2</title>
<path fill="none" stroke="#9a32cd" stroke-dasharray="5,2" d="M75,-136.09C75,-123.757 75,-109.224 75,-98.7309"/>
<polygon fill="#9a32cd" stroke="#9a32cd" points="71.5001,-136.205 75,-146.205 78.5001,-136.205 71.5001,-136.205"/>
<text text-anchor="middle" x="104" y="-120" font-family="Helvetica,sans-Serif" font-size="10.00"> JointDerived</text>
</g>
</g>
</svg>
