<?xml version="1.0" encoding="UTF-8" standalone="no"?>
<!DOCTYPE svg PUBLIC "-//W3C//DTD SVG 1.1//EN"
 "http://www.w3.org/Graphics/SVG/1.1/DTD/svg11.dtd">
<!-- Generated by graphviz version 2.38.0 (20140413.2041)
 -->
<!-- Title: JointModelTranslation Pages: 1 -->
<svg width="160pt" height="163pt"
 viewBox="0.00 0.00 160.00 163.00" xmlns="http://www.w3.org/2000/svg" xmlns:xlink="http://www.w3.org/1999/xlink">
<g id="graph0" class="graph" transform="scale(1 1) rotate(0) translate(4 159)">
<title>JointModelTranslation</title>
<polygon fill="white" stroke="none" points="-4,4 -4,-159 156,-159 156,4 -4,4"/>
<!-- Node1 -->
<g id="node1" class="node"><title>Node1</title>
<polygon fill="#bfbfbf" stroke="black" points="20,-0.5 20,-19.5 132,-19.5 132,-0.5 20,-0.5"/>
<text text-anchor="middle" x="76" y="-7.5" font-family="Helvetica,sans-Serif" font-size="10.00">JointModelTranslation</text>
</g>
<!-- Node2 -->
<g id="node2" class="node"><title>Node2</title>
<g id="a_node2"><a xlink:href="structse3_1_1JointModelBase.html" target="_top" xlink:title="JointModelBase\&lt; JointModel\lTranslation \&gt;">
<polygon fill="white" stroke="black" points="4.5,-57.5 4.5,-87.5 147.5,-87.5 147.5,-57.5 4.5,-57.5"/>
<text text-anchor="start" x="12.5" y="-75.5" font-family="Helvetica,sans-Serif" font-size="10.00">JointModelBase&lt; JointModel</text>
<text text-anchor="middle" x="76" y="-64.5" font-family="Helvetica,sans-Serif" font-size="10.00">Translation &gt;</text>
</a>
</g>
</g>
<!-- Node2&#45;&gt;Node1 -->
<g id="edge1" class="edge"><title>Node2&#45;&gt;Node1</title>
<path fill="none" stroke="midnightblue" d="M76,-47.3524C76,-37.5132 76,-26.7753 76,-19.5399"/>
<polygon fill="midnightblue" stroke="midnightblue" points="72.5001,-47.468 76,-57.468 79.5001,-47.4681 72.5001,-47.468"/>
</g>
<!-- Node3 -->
<g id="node3" class="node"><title>Node3</title>
<g id="a_node3"><a xlink:href="structse3_1_1traits_3_01JointModelTranslation_01_4.html" target="_top" xlink:title="traits\&lt; JointModelTranslation \&gt;">
<polygon fill="white" stroke="black" points="0,-135.5 0,-154.5 152,-154.5 152,-135.5 0,-135.5"/>
<text text-anchor="middle" x="76" y="-142.5" font-family="Helvetica,sans-Serif" font-size="10.00">traits&lt; JointModelTranslation &gt;</text>
</a>
</g>
</g>
<!-- Node3&#45;&gt;Node2 -->
<g id="edge2" class="edge"><title>Node3&#45;&gt;Node2</title>
<path fill="none" stroke="#9a32cd" stroke-dasharray="5,2" d="M76,-125.236C76,-113.408 76,-98.3829 76,-87.5762"/>
<polygon fill="#9a32cd" stroke="#9a32cd" points="72.5001,-125.355 76,-135.355 79.5001,-125.355 72.5001,-125.355"/>
<text text-anchor="middle" x="105" y="-109" font-family="Helvetica,sans-Serif" font-size="10.00"> JointDerived</text>
</g>
</g>
</svg>
