<?xml version="1.0" encoding="UTF-8" standalone="no"?>
<!DOCTYPE svg PUBLIC "-//W3C//DTD SVG 1.1//EN"
 "http://www.w3.org/Graphics/SVG/1.1/DTD/svg11.dtd">
<!-- Generated by graphviz version 2.38.0 (20140413.2041)
 -->
<!-- Title: JointData Pages: 1 -->
<svg width="256pt" height="152pt"
 viewBox="0.00 0.00 256.00 152.00" xmlns="http://www.w3.org/2000/svg" xmlns:xlink="http://www.w3.org/1999/xlink">
<g id="graph0" class="graph" transform="scale(1 1) rotate(0) translate(4 148)">
<title>JointData</title>
<polygon fill="white" stroke="none" points="-4,4 -4,-148 252,-148 252,4 -4,4"/>
<!-- Node1 -->
<g id="node1" class="node"><title>Node1</title>
<polygon fill="#bfbfbf" stroke="black" points="140,-0.5 140,-19.5 199,-19.5 199,-0.5 140,-0.5"/>
<text text-anchor="middle" x="169.5" y="-7.5" font-family="Helvetica,sans-Serif" font-size="10.00">JointData</text>
</g>
<!-- Node2 -->
<g id="node2" class="node"><title>Node2</title>
<g id="a_node2"><a xlink:href="structse3_1_1JointDataBase.html" target="_top" xlink:title="JointDataBase\&lt; JointData \&gt;">
<polygon fill="white" stroke="black" points="0,-57.5 0,-76.5 141,-76.5 141,-57.5 0,-57.5"/>
<text text-anchor="middle" x="70.5" y="-64.5" font-family="Helvetica,sans-Serif" font-size="10.00">JointDataBase&lt; JointData &gt;</text>
</a>
</g>
</g>
<!-- Node2&#45;&gt;Node1 -->
<g id="edge1" class="edge"><title>Node2&#45;&gt;Node1</title>
<path fill="none" stroke="midnightblue" d="M94.7364,-52.5353C113.274,-42.2365 138.271,-28.3496 154.14,-19.5334"/>
<polygon fill="midnightblue" stroke="midnightblue" points="93.0106,-49.4902 85.9688,-57.4062 96.4101,-55.6093 93.0106,-49.4902"/>
</g>
<!-- Node3 -->
<g id="node3" class="node"><title>Node3</title>
<g id="a_node3"><a xlink:href="structse3_1_1traits_3_01JointData_01_4.html" target="_top" xlink:title="traits\&lt; JointData \&gt;">
<polygon fill="white" stroke="black" points="21.5,-124.5 21.5,-143.5 119.5,-143.5 119.5,-124.5 21.5,-124.5"/>
<text text-anchor="middle" x="70.5" y="-131.5" font-family="Helvetica,sans-Serif" font-size="10.00">traits&lt; JointData &gt;</text>
</a>
</g>
</g>
<!-- Node3&#45;&gt;Node2 -->
<g id="edge2" class="edge"><title>Node3&#45;&gt;Node2</title>
<path fill="none" stroke="#9a32cd" stroke-dasharray="5,2" d="M70.5,-114.037C70.5,-101.67 70.5,-86.1198 70.5,-76.6273"/>
<polygon fill="#9a32cd" stroke="#9a32cd" points="67.0001,-114.234 70.5,-124.234 74.0001,-114.234 67.0001,-114.234"/>
<text text-anchor="middle" x="99.5" y="-98" font-family="Helvetica,sans-Serif" font-size="10.00"> JointDerived</text>
</g>
<!-- Node4 -->
<g id="node4" class="node"><title>Node4</title>
<polygon fill="white" stroke="#bfbfbf" points="159,-57.5 159,-76.5 248,-76.5 248,-57.5 159,-57.5"/>
<text text-anchor="middle" x="203.5" y="-64.5" font-family="Helvetica,sans-Serif" font-size="10.00">JointDataVariant</text>
</g>
<!-- Node4&#45;&gt;Node1 -->
<g id="edge3" class="edge"><title>Node4&#45;&gt;Node1</title>
<path fill="none" stroke="midnightblue" d="M192.766,-48.6354C186.815,-39.0102 179.675,-27.459 174.887,-19.7149"/>
<polygon fill="midnightblue" stroke="midnightblue" points="189.952,-50.7407 198.188,-57.4062 195.906,-47.0599 189.952,-50.7407"/>
</g>
</g>
</svg>
