<?xml version="1.0" encoding="UTF-8" standalone="no"?>
<!DOCTYPE svg PUBLIC "-//W3C//DTD SVG 1.1//EN"
 "http://www.w3.org/Graphics/SVG/1.1/DTD/svg11.dtd">
<!-- Generated by graphviz version 2.38.0 (20140413.2041)
 -->
<!-- Title: JointModelRevoluteUnaligned Pages: 1 -->
<svg width="154pt" height="174pt"
 viewBox="0.00 0.00 154.00 174.00" xmlns="http://www.w3.org/2000/svg" xmlns:xlink="http://www.w3.org/1999/xlink">
<g id="graph0" class="graph" transform="scale(1 1) rotate(0) translate(4 170)">
<title>JointModelRevoluteUnaligned</title>
<polygon fill="white" stroke="none" points="-4,4 -4,-170 150,-170 150,4 -4,4"/>
<!-- Node1 -->
<g id="node1" class="node"><title>Node1</title>
<polygon fill="#bfbfbf" stroke="black" points="0,-0.5 0,-19.5 146,-19.5 146,-0.5 0,-0.5"/>
<text text-anchor="middle" x="73" y="-7.5" font-family="Helvetica,sans-Serif" font-size="10.00">JointModelRevoluteUnaligned</text>
</g>
<!-- Node2 -->
<g id="node2" class="node"><title>Node2</title>
<g id="a_node2"><a xlink:href="structse3_1_1JointModelBase.html" target="_top" xlink:title="JointModelBase\&lt; JointModel\lRevoluteUnaligned \&gt;">
<polygon fill="white" stroke="black" points="1.5,-57.5 1.5,-87.5 144.5,-87.5 144.5,-57.5 1.5,-57.5"/>
<text text-anchor="start" x="9.5" y="-75.5" font-family="Helvetica,sans-Serif" font-size="10.00">JointModelBase&lt; JointModel</text>
<text text-anchor="middle" x="73" y="-64.5" font-family="Helvetica,sans-Serif" font-size="10.00">RevoluteUnaligned &gt;</text>
</a>
</g>
</g>
<!-- Node2&#45;&gt;Node1 -->
<g id="edge1" class="edge"><title>Node2&#45;&gt;Node1</title>
<path fill="none" stroke="midnightblue" d="M73,-47.3524C73,-37.5132 73,-26.7753 73,-19.5399"/>
<polygon fill="midnightblue" stroke="midnightblue" points="69.5001,-47.468 73,-57.468 76.5001,-47.4681 69.5001,-47.468"/>
</g>
<!-- Node3 -->
<g id="node3" class="node"><title>Node3</title>
<g id="a_node3"><a xlink:href="structse3_1_1traits_3_01JointModelRevoluteUnaligned_01_4.html" target="_top" xlink:title="traits\&lt; JointModelRevolute\lUnaligned \&gt;">
<polygon fill="white" stroke="black" points="6,-135.5 6,-165.5 140,-165.5 140,-135.5 6,-135.5"/>
<text text-anchor="start" x="14" y="-153.5" font-family="Helvetica,sans-Serif" font-size="10.00">traits&lt; JointModelRevolute</text>
<text text-anchor="middle" x="73" y="-142.5" font-family="Helvetica,sans-Serif" font-size="10.00">Unaligned &gt;</text>
</a>
</g>
</g>
<!-- Node3&#45;&gt;Node2 -->
<g id="edge2" class="edge"><title>Node3&#45;&gt;Node2</title>
<path fill="none" stroke="#9a32cd" stroke-dasharray="5,2" d="M73,-125.09C73,-112.757 73,-98.2237 73,-87.7309"/>
<polygon fill="#9a32cd" stroke="#9a32cd" points="69.5001,-125.205 73,-135.205 76.5001,-125.205 69.5001,-125.205"/>
<text text-anchor="middle" x="102" y="-109" font-family="Helvetica,sans-Serif" font-size="10.00"> JointDerived</text>
</g>
</g>
</svg>
