<?xml version="1.0" encoding="UTF-8" standalone="no"?>
<!DOCTYPE svg PUBLIC "-//W3C//DTD SVG 1.1//EN"
 "http://www.w3.org/Graphics/SVG/1.1/DTD/svg11.dtd">
<!-- Generated by graphviz version 2.38.0 (20140413.2041)
 -->
<!-- Title: JointModelPrismaticUnaligned Pages: 1 -->
<svg width="157pt" height="174pt"
 viewBox="0.00 0.00 157.00 174.00" xmlns="http://www.w3.org/2000/svg" xmlns:xlink="http://www.w3.org/1999/xlink">
<g id="graph0" class="graph" transform="scale(1 1) rotate(0) translate(4 170)">
<title>JointModelPrismaticUnaligned</title>
<polygon fill="white" stroke="none" points="-4,4 -4,-170 153,-170 153,4 -4,4"/>
<!-- Node1 -->
<g id="node1" class="node"><title>Node1</title>
<polygon fill="#bfbfbf" stroke="black" points="-1.42109e-14,-0.5 -1.42109e-14,-19.5 149,-19.5 149,-0.5 -1.42109e-14,-0.5"/>
<text text-anchor="middle" x="74.5" y="-7.5" font-family="Helvetica,sans-Serif" font-size="10.00">JointModelPrismaticUnaligned</text>
</g>
<!-- Node2 -->
<g id="node2" class="node"><title>Node2</title>
<g id="a_node2"><a xlink:href="structse3_1_1JointModelBase.html" target="_top" xlink:title="JointModelBase\&lt; JointModel\lPrismaticUnaligned \&gt;">
<polygon fill="white" stroke="black" points="3,-57.5 3,-87.5 146,-87.5 146,-57.5 3,-57.5"/>
<text text-anchor="start" x="11" y="-75.5" font-family="Helvetica,sans-Serif" font-size="10.00">JointModelBase&lt; JointModel</text>
<text text-anchor="middle" x="74.5" y="-64.5" font-family="Helvetica,sans-Serif" font-size="10.00">PrismaticUnaligned &gt;</text>
</a>
</g>
</g>
<!-- Node2&#45;&gt;Node1 -->
<g id="edge1" class="edge"><title>Node2&#45;&gt;Node1</title>
<path fill="none" stroke="midnightblue" d="M74.5,-47.3524C74.5,-37.5132 74.5,-26.7753 74.5,-19.5399"/>
<polygon fill="midnightblue" stroke="midnightblue" points="71.0001,-47.468 74.5,-57.468 78.0001,-47.4681 71.0001,-47.468"/>
</g>
<!-- Node3 -->
<g id="node3" class="node"><title>Node3</title>
<g id="a_node3"><a xlink:href="structse3_1_1traits_3_01JointModelPrismaticUnaligned_01_4.html" target="_top" xlink:title="traits\&lt; JointModelPrismatic\lUnaligned \&gt;">
<polygon fill="white" stroke="black" points="6.5,-135.5 6.5,-165.5 142.5,-165.5 142.5,-135.5 6.5,-135.5"/>
<text text-anchor="start" x="14.5" y="-153.5" font-family="Helvetica,sans-Serif" font-size="10.00">traits&lt; JointModelPrismatic</text>
<text text-anchor="middle" x="74.5" y="-142.5" font-family="Helvetica,sans-Serif" font-size="10.00">Unaligned &gt;</text>
</a>
</g>
</g>
<!-- Node3&#45;&gt;Node2 -->
<g id="edge2" class="edge"><title>Node3&#45;&gt;Node2</title>
<path fill="none" stroke="#9a32cd" stroke-dasharray="5,2" d="M74.5,-125.09C74.5,-112.757 74.5,-98.2237 74.5,-87.7309"/>
<polygon fill="#9a32cd" stroke="#9a32cd" points="71.0001,-125.205 74.5,-135.205 78.0001,-125.205 71.0001,-125.205"/>
<text text-anchor="middle" x="103.5" y="-109" font-family="Helvetica,sans-Serif" font-size="10.00"> JointDerived</text>
</g>
</g>
</svg>
