<?xml version="1.0" encoding="UTF-8" standalone="no"?>
<!DOCTYPE svg PUBLIC "-//W3C//DTD SVG 1.1//EN"
 "http://www.w3.org/Graphics/SVG/1.1/DTD/svg11.dtd">
<!-- Generated by graphviz version 2.38.0 (20140413.2041)
 -->
<!-- Title: CrbaBackwardStep Pages: 1 -->
<svg width="147pt" height="151pt"
 viewBox="0.00 0.00 147.00 151.00" xmlns="http://www.w3.org/2000/svg" xmlns:xlink="http://www.w3.org/1999/xlink">
<g id="graph0" class="graph" transform="scale(1 1) rotate(0) translate(4 147)">
<title>CrbaBackwardStep</title>
<polygon fill="white" stroke="none" points="-4,4 -4,-147 143,-147 143,4 -4,4"/>
<!-- Node1 -->
<g id="node1" class="node"><title>Node1</title>
<polygon fill="#bfbfbf" stroke="black" points="19,-0.5 19,-19.5 120,-19.5 120,-0.5 19,-0.5"/>
<text text-anchor="middle" x="69.5" y="-7.5" font-family="Helvetica,sans-Serif" font-size="10.00">CrbaBackwardStep</text>
</g>
<!-- Node2 -->
<g id="node2" class="node"><title>Node2</title>
<g id="a_node2"><a xlink:href="structse3_1_1fusion_1_1JointVisitor.html" target="_top" xlink:title="JointVisitor\&lt; CrbaBackward\lStep \&gt;">
<polygon fill="white" stroke="black" points="0,-56.5 0,-86.5 139,-86.5 139,-56.5 0,-56.5"/>
<text text-anchor="start" x="8" y="-74.5" font-family="Helvetica,sans-Serif" font-size="10.00">JointVisitor&lt; CrbaBackward</text>
<text text-anchor="middle" x="69.5" y="-63.5" font-family="Helvetica,sans-Serif" font-size="10.00">Step &gt;</text>
</a>
</g>
</g>
<!-- Node2&#45;&gt;Node1 -->
<g id="edge1" class="edge"><title>Node2&#45;&gt;Node1</title>
<path fill="none" stroke="midnightblue" d="M69.5,-46.2892C69.5,-36.857 69.5,-26.6548 69.5,-19.6578"/>
<polygon fill="midnightblue" stroke="midnightblue" points="66.0001,-46.3993 69.5,-56.3993 73.0001,-46.3994 66.0001,-46.3993"/>
</g>
<!-- Node3 -->
<g id="node3" class="node"><title>Node3</title>
<polygon fill="white" stroke="#bfbfbf" points="27.5,-123.5 27.5,-142.5 111.5,-142.5 111.5,-123.5 27.5,-123.5"/>
<text text-anchor="middle" x="69.5" y="-130.5" font-family="Helvetica,sans-Serif" font-size="10.00">static_visitor&lt;&gt;</text>
</g>
<!-- Node3&#45;&gt;Node2 -->
<g id="edge2" class="edge"><title>Node3&#45;&gt;Node2</title>
<path fill="none" stroke="midnightblue" d="M69.5,-113.235C69.5,-104.586 69.5,-94.4969 69.5,-86.523"/>
<polygon fill="midnightblue" stroke="midnightblue" points="66.0001,-113.475 69.5,-123.475 73.0001,-113.475 66.0001,-113.475"/>
</g>
</g>
</svg>
